%TF.GenerationSoftware,KiCad,Pcbnew,10.0.3*%
%TF.CreationDate,2026-07-27T10:38:11+01:00*%
%TF.ProjectId,MRF-Pro-v8,4d52462d-5072-46f2-9d76-382e6b696361,rev?*%
%TF.SameCoordinates,Original*%
%TF.FileFunction,Drillmap*%
%TF.FilePolarity,Positive*%
%FSLAX45Y45*%
G04 Gerber Fmt 4.5, Leading zero omitted, Abs format (unit mm)*
G04 Created by KiCad (PCBNEW 10.0.3) date 2026-07-27 10:38:11*
%MOMM*%
%LPD*%
G01*
G04 APERTURE LIST*
%ADD10C,0.200000*%
%ADD11C,0.100000*%
G04 APERTURE END LIST*
D10*
X10566400Y-9626600D02*
X16212820Y-9626600D01*
X16212820Y-12499340D01*
X10566400Y-12499340D01*
X10566400Y-9626600D01*
D11*
X14837500Y-11002500D02*
X14877500Y-11042500D01*
X14877500Y-11002500D02*
X14837500Y-11042500D01*
X15015000Y-10022500D02*
X15055000Y-10062500D01*
X15055000Y-10022500D02*
X15015000Y-10062500D01*
X15227500Y-9770000D02*
X15267500Y-9810000D01*
X15267500Y-9770000D02*
X15227500Y-9810000D01*
X15435000Y-11382500D02*
X15475000Y-11422500D01*
X15475000Y-11382500D02*
X15435000Y-11422500D01*
X15440000Y-11605000D02*
X15480000Y-11645000D01*
X15480000Y-11605000D02*
X15440000Y-11645000D01*
X15447500Y-9907500D02*
X15487500Y-9947500D01*
X15487500Y-9907500D02*
X15447500Y-9947500D01*
X15490000Y-10155000D02*
X15530000Y-10195000D01*
X15530000Y-10155000D02*
X15490000Y-10195000D01*
X15782500Y-11307500D02*
X15822500Y-11347500D01*
X15822500Y-11307500D02*
X15782500Y-11347500D01*
X15805000Y-10285000D02*
X15845000Y-10325000D01*
X15845000Y-10285000D02*
X15805000Y-10325000D01*
X15947500Y-10740000D02*
X15987500Y-10780000D01*
X15987500Y-10740000D02*
X15947500Y-10780000D01*
X10845000Y-12192000D02*
G75*
G02*
X10745000Y-12192000I-50000J0D01*
G01*
X10745000Y-12192000D02*
G75*
G02*
X10845000Y-12192000I50000J0D01*
G01*
X11099000Y-12192000D02*
G75*
G02*
X10999000Y-12192000I-50000J0D01*
G01*
X10999000Y-12192000D02*
G75*
G02*
X11099000Y-12192000I50000J0D01*
G01*
X11353000Y-12192000D02*
G75*
G02*
X11253000Y-12192000I-50000J0D01*
G01*
X11253000Y-12192000D02*
G75*
G02*
X11353000Y-12192000I50000J0D01*
G01*
X11607000Y-12192000D02*
G75*
G02*
X11507000Y-12192000I-50000J0D01*
G01*
X11507000Y-12192000D02*
G75*
G02*
X11607000Y-12192000I50000J0D01*
G01*
X11861000Y-10160000D02*
G75*
G02*
X11761000Y-10160000I-50000J0D01*
G01*
X11761000Y-10160000D02*
G75*
G02*
X11861000Y-10160000I50000J0D01*
G01*
X11861000Y-12192000D02*
G75*
G02*
X11761000Y-12192000I-50000J0D01*
G01*
X11761000Y-12192000D02*
G75*
G02*
X11861000Y-12192000I50000J0D01*
G01*
X12115000Y-10160000D02*
G75*
G02*
X12015000Y-10160000I-50000J0D01*
G01*
X12015000Y-10160000D02*
G75*
G02*
X12115000Y-10160000I50000J0D01*
G01*
X12115000Y-12192000D02*
G75*
G02*
X12015000Y-12192000I-50000J0D01*
G01*
X12015000Y-12192000D02*
G75*
G02*
X12115000Y-12192000I50000J0D01*
G01*
X12369000Y-10160000D02*
G75*
G02*
X12269000Y-10160000I-50000J0D01*
G01*
X12269000Y-10160000D02*
G75*
G02*
X12369000Y-10160000I50000J0D01*
G01*
X12369000Y-12192000D02*
G75*
G02*
X12269000Y-12192000I-50000J0D01*
G01*
X12269000Y-12192000D02*
G75*
G02*
X12369000Y-12192000I50000J0D01*
G01*
X12623000Y-10160000D02*
G75*
G02*
X12523000Y-10160000I-50000J0D01*
G01*
X12523000Y-10160000D02*
G75*
G02*
X12623000Y-10160000I50000J0D01*
G01*
X12623000Y-12192000D02*
G75*
G02*
X12523000Y-12192000I-50000J0D01*
G01*
X12523000Y-12192000D02*
G75*
G02*
X12623000Y-12192000I50000J0D01*
G01*
X12877000Y-10160000D02*
G75*
G02*
X12777000Y-10160000I-50000J0D01*
G01*
X12777000Y-10160000D02*
G75*
G02*
X12877000Y-10160000I50000J0D01*
G01*
X12877000Y-12192000D02*
G75*
G02*
X12777000Y-12192000I-50000J0D01*
G01*
X12777000Y-12192000D02*
G75*
G02*
X12877000Y-12192000I50000J0D01*
G01*
X13131000Y-10160000D02*
G75*
G02*
X13031000Y-10160000I-50000J0D01*
G01*
X13031000Y-10160000D02*
G75*
G02*
X13131000Y-10160000I50000J0D01*
G01*
X13131000Y-12192000D02*
G75*
G02*
X13031000Y-12192000I-50000J0D01*
G01*
X13031000Y-12192000D02*
G75*
G02*
X13131000Y-12192000I50000J0D01*
G01*
X13385000Y-10160000D02*
G75*
G02*
X13285000Y-10160000I-50000J0D01*
G01*
X13285000Y-10160000D02*
G75*
G02*
X13385000Y-10160000I50000J0D01*
G01*
X13385000Y-12192000D02*
G75*
G02*
X13285000Y-12192000I-50000J0D01*
G01*
X13285000Y-12192000D02*
G75*
G02*
X13385000Y-12192000I50000J0D01*
G01*
X13639000Y-10160000D02*
G75*
G02*
X13539000Y-10160000I-50000J0D01*
G01*
X13539000Y-10160000D02*
G75*
G02*
X13639000Y-10160000I50000J0D01*
G01*
X13639000Y-12192000D02*
G75*
G02*
X13539000Y-12192000I-50000J0D01*
G01*
X13539000Y-12192000D02*
G75*
G02*
X13639000Y-12192000I50000J0D01*
G01*
X13893000Y-10160000D02*
G75*
G02*
X13793000Y-10160000I-50000J0D01*
G01*
X13793000Y-10160000D02*
G75*
G02*
X13893000Y-10160000I50000J0D01*
G01*
X13893000Y-12192000D02*
G75*
G02*
X13793000Y-12192000I-50000J0D01*
G01*
X13793000Y-12192000D02*
G75*
G02*
X13893000Y-12192000I50000J0D01*
G01*
X14147000Y-10160000D02*
G75*
G02*
X14047000Y-10160000I-50000J0D01*
G01*
X14047000Y-10160000D02*
G75*
G02*
X14147000Y-10160000I50000J0D01*
G01*
X14147000Y-12192000D02*
G75*
G02*
X14047000Y-12192000I-50000J0D01*
G01*
X14047000Y-12192000D02*
G75*
G02*
X14147000Y-12192000I50000J0D01*
G01*
X14401000Y-10160000D02*
G75*
G02*
X14301000Y-10160000I-50000J0D01*
G01*
X14301000Y-10160000D02*
G75*
G02*
X14401000Y-10160000I50000J0D01*
G01*
X14401000Y-12192000D02*
G75*
G02*
X14301000Y-12192000I-50000J0D01*
G01*
X14301000Y-12192000D02*
G75*
G02*
X14401000Y-12192000I50000J0D01*
G01*
X14655000Y-10160000D02*
G75*
G02*
X14555000Y-10160000I-50000J0D01*
G01*
X14555000Y-10160000D02*
G75*
G02*
X14655000Y-10160000I50000J0D01*
G01*
X14655000Y-12192000D02*
G75*
G02*
X14555000Y-12192000I-50000J0D01*
G01*
X14555000Y-12192000D02*
G75*
G02*
X14655000Y-12192000I50000J0D01*
G01*
D10*
X10817177Y-12820824D02*
X10817177Y-12620824D01*
X10817177Y-12620824D02*
X10864796Y-12620824D01*
X10864796Y-12620824D02*
X10893367Y-12630348D01*
X10893367Y-12630348D02*
X10912415Y-12649395D01*
X10912415Y-12649395D02*
X10921939Y-12668443D01*
X10921939Y-12668443D02*
X10931463Y-12706538D01*
X10931463Y-12706538D02*
X10931463Y-12735109D01*
X10931463Y-12735109D02*
X10921939Y-12773205D01*
X10921939Y-12773205D02*
X10912415Y-12792252D01*
X10912415Y-12792252D02*
X10893367Y-12811300D01*
X10893367Y-12811300D02*
X10864796Y-12820824D01*
X10864796Y-12820824D02*
X10817177Y-12820824D01*
X11017177Y-12820824D02*
X11017177Y-12687490D01*
X11017177Y-12725586D02*
X11026701Y-12706538D01*
X11026701Y-12706538D02*
X11036224Y-12697014D01*
X11036224Y-12697014D02*
X11055272Y-12687490D01*
X11055272Y-12687490D02*
X11074320Y-12687490D01*
X11140986Y-12820824D02*
X11140986Y-12687490D01*
X11140986Y-12620824D02*
X11131463Y-12630348D01*
X11131463Y-12630348D02*
X11140986Y-12639871D01*
X11140986Y-12639871D02*
X11150510Y-12630348D01*
X11150510Y-12630348D02*
X11140986Y-12620824D01*
X11140986Y-12620824D02*
X11140986Y-12639871D01*
X11264796Y-12820824D02*
X11245748Y-12811300D01*
X11245748Y-12811300D02*
X11236224Y-12792252D01*
X11236224Y-12792252D02*
X11236224Y-12620824D01*
X11369558Y-12820824D02*
X11350510Y-12811300D01*
X11350510Y-12811300D02*
X11340986Y-12792252D01*
X11340986Y-12792252D02*
X11340986Y-12620824D01*
X11598129Y-12820824D02*
X11598129Y-12620824D01*
X11598129Y-12620824D02*
X11664796Y-12763681D01*
X11664796Y-12763681D02*
X11731462Y-12620824D01*
X11731462Y-12620824D02*
X11731462Y-12820824D01*
X11912415Y-12820824D02*
X11912415Y-12716062D01*
X11912415Y-12716062D02*
X11902891Y-12697014D01*
X11902891Y-12697014D02*
X11883843Y-12687490D01*
X11883843Y-12687490D02*
X11845748Y-12687490D01*
X11845748Y-12687490D02*
X11826701Y-12697014D01*
X11912415Y-12811300D02*
X11893367Y-12820824D01*
X11893367Y-12820824D02*
X11845748Y-12820824D01*
X11845748Y-12820824D02*
X11826701Y-12811300D01*
X11826701Y-12811300D02*
X11817177Y-12792252D01*
X11817177Y-12792252D02*
X11817177Y-12773205D01*
X11817177Y-12773205D02*
X11826701Y-12754157D01*
X11826701Y-12754157D02*
X11845748Y-12744633D01*
X11845748Y-12744633D02*
X11893367Y-12744633D01*
X11893367Y-12744633D02*
X11912415Y-12735109D01*
X12007653Y-12687490D02*
X12007653Y-12887490D01*
X12007653Y-12697014D02*
X12026701Y-12687490D01*
X12026701Y-12687490D02*
X12064796Y-12687490D01*
X12064796Y-12687490D02*
X12083843Y-12697014D01*
X12083843Y-12697014D02*
X12093367Y-12706538D01*
X12093367Y-12706538D02*
X12102891Y-12725586D01*
X12102891Y-12725586D02*
X12102891Y-12782728D01*
X12102891Y-12782728D02*
X12093367Y-12801776D01*
X12093367Y-12801776D02*
X12083843Y-12811300D01*
X12083843Y-12811300D02*
X12064796Y-12820824D01*
X12064796Y-12820824D02*
X12026701Y-12820824D01*
X12026701Y-12820824D02*
X12007653Y-12811300D01*
X12188605Y-12801776D02*
X12198129Y-12811300D01*
X12198129Y-12811300D02*
X12188605Y-12820824D01*
X12188605Y-12820824D02*
X12179082Y-12811300D01*
X12179082Y-12811300D02*
X12188605Y-12801776D01*
X12188605Y-12801776D02*
X12188605Y-12820824D01*
X12188605Y-12697014D02*
X12198129Y-12706538D01*
X12198129Y-12706538D02*
X12188605Y-12716062D01*
X12188605Y-12716062D02*
X12179082Y-12706538D01*
X12179082Y-12706538D02*
X12188605Y-12697014D01*
X12188605Y-12697014D02*
X12188605Y-12716062D01*
D11*
X10516400Y-13129340D02*
X10556400Y-13169340D01*
X10556400Y-13129340D02*
X10516400Y-13169340D01*
D10*
X10855272Y-13040824D02*
X10874320Y-13040824D01*
X10874320Y-13040824D02*
X10893367Y-13050348D01*
X10893367Y-13050348D02*
X10902891Y-13059871D01*
X10902891Y-13059871D02*
X10912415Y-13078919D01*
X10912415Y-13078919D02*
X10921939Y-13117014D01*
X10921939Y-13117014D02*
X10921939Y-13164633D01*
X10921939Y-13164633D02*
X10912415Y-13202728D01*
X10912415Y-13202728D02*
X10902891Y-13221776D01*
X10902891Y-13221776D02*
X10893367Y-13231300D01*
X10893367Y-13231300D02*
X10874320Y-13240824D01*
X10874320Y-13240824D02*
X10855272Y-13240824D01*
X10855272Y-13240824D02*
X10836224Y-13231300D01*
X10836224Y-13231300D02*
X10826701Y-13221776D01*
X10826701Y-13221776D02*
X10817177Y-13202728D01*
X10817177Y-13202728D02*
X10807653Y-13164633D01*
X10807653Y-13164633D02*
X10807653Y-13117014D01*
X10807653Y-13117014D02*
X10817177Y-13078919D01*
X10817177Y-13078919D02*
X10826701Y-13059871D01*
X10826701Y-13059871D02*
X10836224Y-13050348D01*
X10836224Y-13050348D02*
X10855272Y-13040824D01*
X11007653Y-13221776D02*
X11017177Y-13231300D01*
X11017177Y-13231300D02*
X11007653Y-13240824D01*
X11007653Y-13240824D02*
X10998129Y-13231300D01*
X10998129Y-13231300D02*
X11007653Y-13221776D01*
X11007653Y-13221776D02*
X11007653Y-13240824D01*
X11188605Y-13107490D02*
X11188605Y-13240824D01*
X11140986Y-13031300D02*
X11093367Y-13174157D01*
X11093367Y-13174157D02*
X11217177Y-13174157D01*
X11331462Y-13040824D02*
X11350510Y-13040824D01*
X11350510Y-13040824D02*
X11369558Y-13050348D01*
X11369558Y-13050348D02*
X11379082Y-13059871D01*
X11379082Y-13059871D02*
X11388605Y-13078919D01*
X11388605Y-13078919D02*
X11398129Y-13117014D01*
X11398129Y-13117014D02*
X11398129Y-13164633D01*
X11398129Y-13164633D02*
X11388605Y-13202728D01*
X11388605Y-13202728D02*
X11379082Y-13221776D01*
X11379082Y-13221776D02*
X11369558Y-13231300D01*
X11369558Y-13231300D02*
X11350510Y-13240824D01*
X11350510Y-13240824D02*
X11331462Y-13240824D01*
X11331462Y-13240824D02*
X11312415Y-13231300D01*
X11312415Y-13231300D02*
X11302891Y-13221776D01*
X11302891Y-13221776D02*
X11293367Y-13202728D01*
X11293367Y-13202728D02*
X11283843Y-13164633D01*
X11283843Y-13164633D02*
X11283843Y-13117014D01*
X11283843Y-13117014D02*
X11293367Y-13078919D01*
X11293367Y-13078919D02*
X11302891Y-13059871D01*
X11302891Y-13059871D02*
X11312415Y-13050348D01*
X11312415Y-13050348D02*
X11331462Y-13040824D01*
X11521939Y-13040824D02*
X11540986Y-13040824D01*
X11540986Y-13040824D02*
X11560034Y-13050348D01*
X11560034Y-13050348D02*
X11569558Y-13059871D01*
X11569558Y-13059871D02*
X11579082Y-13078919D01*
X11579082Y-13078919D02*
X11588605Y-13117014D01*
X11588605Y-13117014D02*
X11588605Y-13164633D01*
X11588605Y-13164633D02*
X11579082Y-13202728D01*
X11579082Y-13202728D02*
X11569558Y-13221776D01*
X11569558Y-13221776D02*
X11560034Y-13231300D01*
X11560034Y-13231300D02*
X11540986Y-13240824D01*
X11540986Y-13240824D02*
X11521939Y-13240824D01*
X11521939Y-13240824D02*
X11502891Y-13231300D01*
X11502891Y-13231300D02*
X11493367Y-13221776D01*
X11493367Y-13221776D02*
X11483843Y-13202728D01*
X11483843Y-13202728D02*
X11474320Y-13164633D01*
X11474320Y-13164633D02*
X11474320Y-13117014D01*
X11474320Y-13117014D02*
X11483843Y-13078919D01*
X11483843Y-13078919D02*
X11493367Y-13059871D01*
X11493367Y-13059871D02*
X11502891Y-13050348D01*
X11502891Y-13050348D02*
X11521939Y-13040824D01*
X11674320Y-13240824D02*
X11674320Y-13107490D01*
X11674320Y-13126538D02*
X11683843Y-13117014D01*
X11683843Y-13117014D02*
X11702891Y-13107490D01*
X11702891Y-13107490D02*
X11731463Y-13107490D01*
X11731463Y-13107490D02*
X11750510Y-13117014D01*
X11750510Y-13117014D02*
X11760034Y-13136062D01*
X11760034Y-13136062D02*
X11760034Y-13240824D01*
X11760034Y-13136062D02*
X11769558Y-13117014D01*
X11769558Y-13117014D02*
X11788605Y-13107490D01*
X11788605Y-13107490D02*
X11817177Y-13107490D01*
X11817177Y-13107490D02*
X11836224Y-13117014D01*
X11836224Y-13117014D02*
X11845748Y-13136062D01*
X11845748Y-13136062D02*
X11845748Y-13240824D01*
X11940986Y-13240824D02*
X11940986Y-13107490D01*
X11940986Y-13126538D02*
X11950510Y-13117014D01*
X11950510Y-13117014D02*
X11969558Y-13107490D01*
X11969558Y-13107490D02*
X11998129Y-13107490D01*
X11998129Y-13107490D02*
X12017177Y-13117014D01*
X12017177Y-13117014D02*
X12026701Y-13136062D01*
X12026701Y-13136062D02*
X12026701Y-13240824D01*
X12026701Y-13136062D02*
X12036224Y-13117014D01*
X12036224Y-13117014D02*
X12055272Y-13107490D01*
X12055272Y-13107490D02*
X12083843Y-13107490D01*
X12083843Y-13107490D02*
X12102891Y-13117014D01*
X12102891Y-13117014D02*
X12112415Y-13136062D01*
X12112415Y-13136062D02*
X12112415Y-13240824D01*
X12502891Y-13031300D02*
X12331463Y-13288443D01*
X12760034Y-13040824D02*
X12779082Y-13040824D01*
X12779082Y-13040824D02*
X12798129Y-13050348D01*
X12798129Y-13050348D02*
X12807653Y-13059871D01*
X12807653Y-13059871D02*
X12817177Y-13078919D01*
X12817177Y-13078919D02*
X12826701Y-13117014D01*
X12826701Y-13117014D02*
X12826701Y-13164633D01*
X12826701Y-13164633D02*
X12817177Y-13202728D01*
X12817177Y-13202728D02*
X12807653Y-13221776D01*
X12807653Y-13221776D02*
X12798129Y-13231300D01*
X12798129Y-13231300D02*
X12779082Y-13240824D01*
X12779082Y-13240824D02*
X12760034Y-13240824D01*
X12760034Y-13240824D02*
X12740986Y-13231300D01*
X12740986Y-13231300D02*
X12731463Y-13221776D01*
X12731463Y-13221776D02*
X12721939Y-13202728D01*
X12721939Y-13202728D02*
X12712415Y-13164633D01*
X12712415Y-13164633D02*
X12712415Y-13117014D01*
X12712415Y-13117014D02*
X12721939Y-13078919D01*
X12721939Y-13078919D02*
X12731463Y-13059871D01*
X12731463Y-13059871D02*
X12740986Y-13050348D01*
X12740986Y-13050348D02*
X12760034Y-13040824D01*
X12912415Y-13221776D02*
X12921939Y-13231300D01*
X12921939Y-13231300D02*
X12912415Y-13240824D01*
X12912415Y-13240824D02*
X12902891Y-13231300D01*
X12902891Y-13231300D02*
X12912415Y-13221776D01*
X12912415Y-13221776D02*
X12912415Y-13240824D01*
X13045748Y-13040824D02*
X13064796Y-13040824D01*
X13064796Y-13040824D02*
X13083844Y-13050348D01*
X13083844Y-13050348D02*
X13093367Y-13059871D01*
X13093367Y-13059871D02*
X13102891Y-13078919D01*
X13102891Y-13078919D02*
X13112415Y-13117014D01*
X13112415Y-13117014D02*
X13112415Y-13164633D01*
X13112415Y-13164633D02*
X13102891Y-13202728D01*
X13102891Y-13202728D02*
X13093367Y-13221776D01*
X13093367Y-13221776D02*
X13083844Y-13231300D01*
X13083844Y-13231300D02*
X13064796Y-13240824D01*
X13064796Y-13240824D02*
X13045748Y-13240824D01*
X13045748Y-13240824D02*
X13026701Y-13231300D01*
X13026701Y-13231300D02*
X13017177Y-13221776D01*
X13017177Y-13221776D02*
X13007653Y-13202728D01*
X13007653Y-13202728D02*
X12998129Y-13164633D01*
X12998129Y-13164633D02*
X12998129Y-13117014D01*
X12998129Y-13117014D02*
X13007653Y-13078919D01*
X13007653Y-13078919D02*
X13017177Y-13059871D01*
X13017177Y-13059871D02*
X13026701Y-13050348D01*
X13026701Y-13050348D02*
X13045748Y-13040824D01*
X13302891Y-13240824D02*
X13188606Y-13240824D01*
X13245748Y-13240824D02*
X13245748Y-13040824D01*
X13245748Y-13040824D02*
X13226701Y-13069395D01*
X13226701Y-13069395D02*
X13207653Y-13088443D01*
X13207653Y-13088443D02*
X13188606Y-13097967D01*
X13483844Y-13040824D02*
X13388606Y-13040824D01*
X13388606Y-13040824D02*
X13379082Y-13136062D01*
X13379082Y-13136062D02*
X13388606Y-13126538D01*
X13388606Y-13126538D02*
X13407653Y-13117014D01*
X13407653Y-13117014D02*
X13455272Y-13117014D01*
X13455272Y-13117014D02*
X13474320Y-13126538D01*
X13474320Y-13126538D02*
X13483844Y-13136062D01*
X13483844Y-13136062D02*
X13493367Y-13155109D01*
X13493367Y-13155109D02*
X13493367Y-13202728D01*
X13493367Y-13202728D02*
X13483844Y-13221776D01*
X13483844Y-13221776D02*
X13474320Y-13231300D01*
X13474320Y-13231300D02*
X13455272Y-13240824D01*
X13455272Y-13240824D02*
X13407653Y-13240824D01*
X13407653Y-13240824D02*
X13388606Y-13231300D01*
X13388606Y-13231300D02*
X13379082Y-13221776D01*
X13560034Y-13040824D02*
X13693367Y-13040824D01*
X13693367Y-13040824D02*
X13607653Y-13240824D01*
X13760034Y-13040824D02*
X13760034Y-13078919D01*
X13836225Y-13040824D02*
X13836225Y-13078919D01*
X14131463Y-13317014D02*
X14121939Y-13307490D01*
X14121939Y-13307490D02*
X14102891Y-13278919D01*
X14102891Y-13278919D02*
X14093368Y-13259871D01*
X14093368Y-13259871D02*
X14083844Y-13231300D01*
X14083844Y-13231300D02*
X14074320Y-13183681D01*
X14074320Y-13183681D02*
X14074320Y-13145586D01*
X14074320Y-13145586D02*
X14083844Y-13097967D01*
X14083844Y-13097967D02*
X14093368Y-13069395D01*
X14093368Y-13069395D02*
X14102891Y-13050348D01*
X14102891Y-13050348D02*
X14121939Y-13021776D01*
X14121939Y-13021776D02*
X14131463Y-13012252D01*
X14312415Y-13240824D02*
X14198129Y-13240824D01*
X14255272Y-13240824D02*
X14255272Y-13040824D01*
X14255272Y-13040824D02*
X14236225Y-13069395D01*
X14236225Y-13069395D02*
X14217177Y-13088443D01*
X14217177Y-13088443D02*
X14198129Y-13097967D01*
X14436225Y-13040824D02*
X14455272Y-13040824D01*
X14455272Y-13040824D02*
X14474320Y-13050348D01*
X14474320Y-13050348D02*
X14483844Y-13059871D01*
X14483844Y-13059871D02*
X14493368Y-13078919D01*
X14493368Y-13078919D02*
X14502891Y-13117014D01*
X14502891Y-13117014D02*
X14502891Y-13164633D01*
X14502891Y-13164633D02*
X14493368Y-13202728D01*
X14493368Y-13202728D02*
X14483844Y-13221776D01*
X14483844Y-13221776D02*
X14474320Y-13231300D01*
X14474320Y-13231300D02*
X14455272Y-13240824D01*
X14455272Y-13240824D02*
X14436225Y-13240824D01*
X14436225Y-13240824D02*
X14417177Y-13231300D01*
X14417177Y-13231300D02*
X14407653Y-13221776D01*
X14407653Y-13221776D02*
X14398129Y-13202728D01*
X14398129Y-13202728D02*
X14388606Y-13164633D01*
X14388606Y-13164633D02*
X14388606Y-13117014D01*
X14388606Y-13117014D02*
X14398129Y-13078919D01*
X14398129Y-13078919D02*
X14407653Y-13059871D01*
X14407653Y-13059871D02*
X14417177Y-13050348D01*
X14417177Y-13050348D02*
X14436225Y-13040824D01*
X14740987Y-13240824D02*
X14740987Y-13040824D01*
X14826701Y-13240824D02*
X14826701Y-13136062D01*
X14826701Y-13136062D02*
X14817177Y-13117014D01*
X14817177Y-13117014D02*
X14798130Y-13107490D01*
X14798130Y-13107490D02*
X14769558Y-13107490D01*
X14769558Y-13107490D02*
X14750510Y-13117014D01*
X14750510Y-13117014D02*
X14740987Y-13126538D01*
X14950510Y-13240824D02*
X14931463Y-13231300D01*
X14931463Y-13231300D02*
X14921939Y-13221776D01*
X14921939Y-13221776D02*
X14912415Y-13202728D01*
X14912415Y-13202728D02*
X14912415Y-13145586D01*
X14912415Y-13145586D02*
X14921939Y-13126538D01*
X14921939Y-13126538D02*
X14931463Y-13117014D01*
X14931463Y-13117014D02*
X14950510Y-13107490D01*
X14950510Y-13107490D02*
X14979082Y-13107490D01*
X14979082Y-13107490D02*
X14998130Y-13117014D01*
X14998130Y-13117014D02*
X15007653Y-13126538D01*
X15007653Y-13126538D02*
X15017177Y-13145586D01*
X15017177Y-13145586D02*
X15017177Y-13202728D01*
X15017177Y-13202728D02*
X15007653Y-13221776D01*
X15007653Y-13221776D02*
X14998130Y-13231300D01*
X14998130Y-13231300D02*
X14979082Y-13240824D01*
X14979082Y-13240824D02*
X14950510Y-13240824D01*
X15131463Y-13240824D02*
X15112415Y-13231300D01*
X15112415Y-13231300D02*
X15102891Y-13212252D01*
X15102891Y-13212252D02*
X15102891Y-13040824D01*
X15283844Y-13231300D02*
X15264796Y-13240824D01*
X15264796Y-13240824D02*
X15226701Y-13240824D01*
X15226701Y-13240824D02*
X15207653Y-13231300D01*
X15207653Y-13231300D02*
X15198130Y-13212252D01*
X15198130Y-13212252D02*
X15198130Y-13136062D01*
X15198130Y-13136062D02*
X15207653Y-13117014D01*
X15207653Y-13117014D02*
X15226701Y-13107490D01*
X15226701Y-13107490D02*
X15264796Y-13107490D01*
X15264796Y-13107490D02*
X15283844Y-13117014D01*
X15283844Y-13117014D02*
X15293368Y-13136062D01*
X15293368Y-13136062D02*
X15293368Y-13155109D01*
X15293368Y-13155109D02*
X15198130Y-13174157D01*
X15369558Y-13231300D02*
X15388606Y-13240824D01*
X15388606Y-13240824D02*
X15426701Y-13240824D01*
X15426701Y-13240824D02*
X15445749Y-13231300D01*
X15445749Y-13231300D02*
X15455272Y-13212252D01*
X15455272Y-13212252D02*
X15455272Y-13202728D01*
X15455272Y-13202728D02*
X15445749Y-13183681D01*
X15445749Y-13183681D02*
X15426701Y-13174157D01*
X15426701Y-13174157D02*
X15398130Y-13174157D01*
X15398130Y-13174157D02*
X15379082Y-13164633D01*
X15379082Y-13164633D02*
X15369558Y-13145586D01*
X15369558Y-13145586D02*
X15369558Y-13136062D01*
X15369558Y-13136062D02*
X15379082Y-13117014D01*
X15379082Y-13117014D02*
X15398130Y-13107490D01*
X15398130Y-13107490D02*
X15426701Y-13107490D01*
X15426701Y-13107490D02*
X15445749Y-13117014D01*
X15521939Y-13317014D02*
X15531463Y-13307490D01*
X15531463Y-13307490D02*
X15550511Y-13278919D01*
X15550511Y-13278919D02*
X15560034Y-13259871D01*
X15560034Y-13259871D02*
X15569558Y-13231300D01*
X15569558Y-13231300D02*
X15579082Y-13183681D01*
X15579082Y-13183681D02*
X15579082Y-13145586D01*
X15579082Y-13145586D02*
X15569558Y-13097967D01*
X15569558Y-13097967D02*
X15560034Y-13069395D01*
X15560034Y-13069395D02*
X15550511Y-13050348D01*
X15550511Y-13050348D02*
X15531463Y-13021776D01*
X15531463Y-13021776D02*
X15521939Y-13012252D01*
D11*
X10556400Y-13413340D02*
G75*
G02*
X10456400Y-13413340I-50000J0D01*
G01*
X10456400Y-13413340D02*
G75*
G02*
X10556400Y-13413340I50000J0D01*
G01*
D10*
X10921939Y-13504824D02*
X10807653Y-13504824D01*
X10864796Y-13504824D02*
X10864796Y-13304824D01*
X10864796Y-13304824D02*
X10845748Y-13333395D01*
X10845748Y-13333395D02*
X10826701Y-13352443D01*
X10826701Y-13352443D02*
X10807653Y-13361967D01*
X11007653Y-13485776D02*
X11017177Y-13495300D01*
X11017177Y-13495300D02*
X11007653Y-13504824D01*
X11007653Y-13504824D02*
X10998129Y-13495300D01*
X10998129Y-13495300D02*
X11007653Y-13485776D01*
X11007653Y-13485776D02*
X11007653Y-13504824D01*
X11140986Y-13304824D02*
X11160034Y-13304824D01*
X11160034Y-13304824D02*
X11179082Y-13314348D01*
X11179082Y-13314348D02*
X11188605Y-13323871D01*
X11188605Y-13323871D02*
X11198129Y-13342919D01*
X11198129Y-13342919D02*
X11207653Y-13381014D01*
X11207653Y-13381014D02*
X11207653Y-13428633D01*
X11207653Y-13428633D02*
X11198129Y-13466728D01*
X11198129Y-13466728D02*
X11188605Y-13485776D01*
X11188605Y-13485776D02*
X11179082Y-13495300D01*
X11179082Y-13495300D02*
X11160034Y-13504824D01*
X11160034Y-13504824D02*
X11140986Y-13504824D01*
X11140986Y-13504824D02*
X11121939Y-13495300D01*
X11121939Y-13495300D02*
X11112415Y-13485776D01*
X11112415Y-13485776D02*
X11102891Y-13466728D01*
X11102891Y-13466728D02*
X11093367Y-13428633D01*
X11093367Y-13428633D02*
X11093367Y-13381014D01*
X11093367Y-13381014D02*
X11102891Y-13342919D01*
X11102891Y-13342919D02*
X11112415Y-13323871D01*
X11112415Y-13323871D02*
X11121939Y-13314348D01*
X11121939Y-13314348D02*
X11140986Y-13304824D01*
X11331462Y-13304824D02*
X11350510Y-13304824D01*
X11350510Y-13304824D02*
X11369558Y-13314348D01*
X11369558Y-13314348D02*
X11379082Y-13323871D01*
X11379082Y-13323871D02*
X11388605Y-13342919D01*
X11388605Y-13342919D02*
X11398129Y-13381014D01*
X11398129Y-13381014D02*
X11398129Y-13428633D01*
X11398129Y-13428633D02*
X11388605Y-13466728D01*
X11388605Y-13466728D02*
X11379082Y-13485776D01*
X11379082Y-13485776D02*
X11369558Y-13495300D01*
X11369558Y-13495300D02*
X11350510Y-13504824D01*
X11350510Y-13504824D02*
X11331462Y-13504824D01*
X11331462Y-13504824D02*
X11312415Y-13495300D01*
X11312415Y-13495300D02*
X11302891Y-13485776D01*
X11302891Y-13485776D02*
X11293367Y-13466728D01*
X11293367Y-13466728D02*
X11283843Y-13428633D01*
X11283843Y-13428633D02*
X11283843Y-13381014D01*
X11283843Y-13381014D02*
X11293367Y-13342919D01*
X11293367Y-13342919D02*
X11302891Y-13323871D01*
X11302891Y-13323871D02*
X11312415Y-13314348D01*
X11312415Y-13314348D02*
X11331462Y-13304824D01*
X11521939Y-13304824D02*
X11540986Y-13304824D01*
X11540986Y-13304824D02*
X11560034Y-13314348D01*
X11560034Y-13314348D02*
X11569558Y-13323871D01*
X11569558Y-13323871D02*
X11579082Y-13342919D01*
X11579082Y-13342919D02*
X11588605Y-13381014D01*
X11588605Y-13381014D02*
X11588605Y-13428633D01*
X11588605Y-13428633D02*
X11579082Y-13466728D01*
X11579082Y-13466728D02*
X11569558Y-13485776D01*
X11569558Y-13485776D02*
X11560034Y-13495300D01*
X11560034Y-13495300D02*
X11540986Y-13504824D01*
X11540986Y-13504824D02*
X11521939Y-13504824D01*
X11521939Y-13504824D02*
X11502891Y-13495300D01*
X11502891Y-13495300D02*
X11493367Y-13485776D01*
X11493367Y-13485776D02*
X11483843Y-13466728D01*
X11483843Y-13466728D02*
X11474320Y-13428633D01*
X11474320Y-13428633D02*
X11474320Y-13381014D01*
X11474320Y-13381014D02*
X11483843Y-13342919D01*
X11483843Y-13342919D02*
X11493367Y-13323871D01*
X11493367Y-13323871D02*
X11502891Y-13314348D01*
X11502891Y-13314348D02*
X11521939Y-13304824D01*
X11674320Y-13504824D02*
X11674320Y-13371490D01*
X11674320Y-13390538D02*
X11683843Y-13381014D01*
X11683843Y-13381014D02*
X11702891Y-13371490D01*
X11702891Y-13371490D02*
X11731463Y-13371490D01*
X11731463Y-13371490D02*
X11750510Y-13381014D01*
X11750510Y-13381014D02*
X11760034Y-13400062D01*
X11760034Y-13400062D02*
X11760034Y-13504824D01*
X11760034Y-13400062D02*
X11769558Y-13381014D01*
X11769558Y-13381014D02*
X11788605Y-13371490D01*
X11788605Y-13371490D02*
X11817177Y-13371490D01*
X11817177Y-13371490D02*
X11836224Y-13381014D01*
X11836224Y-13381014D02*
X11845748Y-13400062D01*
X11845748Y-13400062D02*
X11845748Y-13504824D01*
X11940986Y-13504824D02*
X11940986Y-13371490D01*
X11940986Y-13390538D02*
X11950510Y-13381014D01*
X11950510Y-13381014D02*
X11969558Y-13371490D01*
X11969558Y-13371490D02*
X11998129Y-13371490D01*
X11998129Y-13371490D02*
X12017177Y-13381014D01*
X12017177Y-13381014D02*
X12026701Y-13400062D01*
X12026701Y-13400062D02*
X12026701Y-13504824D01*
X12026701Y-13400062D02*
X12036224Y-13381014D01*
X12036224Y-13381014D02*
X12055272Y-13371490D01*
X12055272Y-13371490D02*
X12083843Y-13371490D01*
X12083843Y-13371490D02*
X12102891Y-13381014D01*
X12102891Y-13381014D02*
X12112415Y-13400062D01*
X12112415Y-13400062D02*
X12112415Y-13504824D01*
X12502891Y-13295300D02*
X12331463Y-13552443D01*
X12760034Y-13304824D02*
X12779082Y-13304824D01*
X12779082Y-13304824D02*
X12798129Y-13314348D01*
X12798129Y-13314348D02*
X12807653Y-13323871D01*
X12807653Y-13323871D02*
X12817177Y-13342919D01*
X12817177Y-13342919D02*
X12826701Y-13381014D01*
X12826701Y-13381014D02*
X12826701Y-13428633D01*
X12826701Y-13428633D02*
X12817177Y-13466728D01*
X12817177Y-13466728D02*
X12807653Y-13485776D01*
X12807653Y-13485776D02*
X12798129Y-13495300D01*
X12798129Y-13495300D02*
X12779082Y-13504824D01*
X12779082Y-13504824D02*
X12760034Y-13504824D01*
X12760034Y-13504824D02*
X12740986Y-13495300D01*
X12740986Y-13495300D02*
X12731463Y-13485776D01*
X12731463Y-13485776D02*
X12721939Y-13466728D01*
X12721939Y-13466728D02*
X12712415Y-13428633D01*
X12712415Y-13428633D02*
X12712415Y-13381014D01*
X12712415Y-13381014D02*
X12721939Y-13342919D01*
X12721939Y-13342919D02*
X12731463Y-13323871D01*
X12731463Y-13323871D02*
X12740986Y-13314348D01*
X12740986Y-13314348D02*
X12760034Y-13304824D01*
X12912415Y-13485776D02*
X12921939Y-13495300D01*
X12921939Y-13495300D02*
X12912415Y-13504824D01*
X12912415Y-13504824D02*
X12902891Y-13495300D01*
X12902891Y-13495300D02*
X12912415Y-13485776D01*
X12912415Y-13485776D02*
X12912415Y-13504824D01*
X13045748Y-13304824D02*
X13064796Y-13304824D01*
X13064796Y-13304824D02*
X13083844Y-13314348D01*
X13083844Y-13314348D02*
X13093367Y-13323871D01*
X13093367Y-13323871D02*
X13102891Y-13342919D01*
X13102891Y-13342919D02*
X13112415Y-13381014D01*
X13112415Y-13381014D02*
X13112415Y-13428633D01*
X13112415Y-13428633D02*
X13102891Y-13466728D01*
X13102891Y-13466728D02*
X13093367Y-13485776D01*
X13093367Y-13485776D02*
X13083844Y-13495300D01*
X13083844Y-13495300D02*
X13064796Y-13504824D01*
X13064796Y-13504824D02*
X13045748Y-13504824D01*
X13045748Y-13504824D02*
X13026701Y-13495300D01*
X13026701Y-13495300D02*
X13017177Y-13485776D01*
X13017177Y-13485776D02*
X13007653Y-13466728D01*
X13007653Y-13466728D02*
X12998129Y-13428633D01*
X12998129Y-13428633D02*
X12998129Y-13381014D01*
X12998129Y-13381014D02*
X13007653Y-13342919D01*
X13007653Y-13342919D02*
X13017177Y-13323871D01*
X13017177Y-13323871D02*
X13026701Y-13314348D01*
X13026701Y-13314348D02*
X13045748Y-13304824D01*
X13179082Y-13304824D02*
X13302891Y-13304824D01*
X13302891Y-13304824D02*
X13236225Y-13381014D01*
X13236225Y-13381014D02*
X13264796Y-13381014D01*
X13264796Y-13381014D02*
X13283844Y-13390538D01*
X13283844Y-13390538D02*
X13293367Y-13400062D01*
X13293367Y-13400062D02*
X13302891Y-13419109D01*
X13302891Y-13419109D02*
X13302891Y-13466728D01*
X13302891Y-13466728D02*
X13293367Y-13485776D01*
X13293367Y-13485776D02*
X13283844Y-13495300D01*
X13283844Y-13495300D02*
X13264796Y-13504824D01*
X13264796Y-13504824D02*
X13207653Y-13504824D01*
X13207653Y-13504824D02*
X13188606Y-13495300D01*
X13188606Y-13495300D02*
X13179082Y-13485776D01*
X13398129Y-13504824D02*
X13436225Y-13504824D01*
X13436225Y-13504824D02*
X13455272Y-13495300D01*
X13455272Y-13495300D02*
X13464796Y-13485776D01*
X13464796Y-13485776D02*
X13483844Y-13457205D01*
X13483844Y-13457205D02*
X13493367Y-13419109D01*
X13493367Y-13419109D02*
X13493367Y-13342919D01*
X13493367Y-13342919D02*
X13483844Y-13323871D01*
X13483844Y-13323871D02*
X13474320Y-13314348D01*
X13474320Y-13314348D02*
X13455272Y-13304824D01*
X13455272Y-13304824D02*
X13417177Y-13304824D01*
X13417177Y-13304824D02*
X13398129Y-13314348D01*
X13398129Y-13314348D02*
X13388606Y-13323871D01*
X13388606Y-13323871D02*
X13379082Y-13342919D01*
X13379082Y-13342919D02*
X13379082Y-13390538D01*
X13379082Y-13390538D02*
X13388606Y-13409586D01*
X13388606Y-13409586D02*
X13398129Y-13419109D01*
X13398129Y-13419109D02*
X13417177Y-13428633D01*
X13417177Y-13428633D02*
X13455272Y-13428633D01*
X13455272Y-13428633D02*
X13474320Y-13419109D01*
X13474320Y-13419109D02*
X13483844Y-13409586D01*
X13483844Y-13409586D02*
X13493367Y-13390538D01*
X13664796Y-13371490D02*
X13664796Y-13504824D01*
X13617177Y-13295300D02*
X13569558Y-13438157D01*
X13569558Y-13438157D02*
X13693367Y-13438157D01*
X13760034Y-13304824D02*
X13760034Y-13342919D01*
X13836225Y-13304824D02*
X13836225Y-13342919D01*
X14131463Y-13581014D02*
X14121939Y-13571490D01*
X14121939Y-13571490D02*
X14102891Y-13542919D01*
X14102891Y-13542919D02*
X14093368Y-13523871D01*
X14093368Y-13523871D02*
X14083844Y-13495300D01*
X14083844Y-13495300D02*
X14074320Y-13447681D01*
X14074320Y-13447681D02*
X14074320Y-13409586D01*
X14074320Y-13409586D02*
X14083844Y-13361967D01*
X14083844Y-13361967D02*
X14093368Y-13333395D01*
X14093368Y-13333395D02*
X14102891Y-13314348D01*
X14102891Y-13314348D02*
X14121939Y-13285776D01*
X14121939Y-13285776D02*
X14131463Y-13276252D01*
X14198129Y-13323871D02*
X14207653Y-13314348D01*
X14207653Y-13314348D02*
X14226701Y-13304824D01*
X14226701Y-13304824D02*
X14274320Y-13304824D01*
X14274320Y-13304824D02*
X14293368Y-13314348D01*
X14293368Y-13314348D02*
X14302891Y-13323871D01*
X14302891Y-13323871D02*
X14312415Y-13342919D01*
X14312415Y-13342919D02*
X14312415Y-13361967D01*
X14312415Y-13361967D02*
X14302891Y-13390538D01*
X14302891Y-13390538D02*
X14188606Y-13504824D01*
X14188606Y-13504824D02*
X14312415Y-13504824D01*
X14426701Y-13390538D02*
X14407653Y-13381014D01*
X14407653Y-13381014D02*
X14398129Y-13371490D01*
X14398129Y-13371490D02*
X14388606Y-13352443D01*
X14388606Y-13352443D02*
X14388606Y-13342919D01*
X14388606Y-13342919D02*
X14398129Y-13323871D01*
X14398129Y-13323871D02*
X14407653Y-13314348D01*
X14407653Y-13314348D02*
X14426701Y-13304824D01*
X14426701Y-13304824D02*
X14464796Y-13304824D01*
X14464796Y-13304824D02*
X14483844Y-13314348D01*
X14483844Y-13314348D02*
X14493368Y-13323871D01*
X14493368Y-13323871D02*
X14502891Y-13342919D01*
X14502891Y-13342919D02*
X14502891Y-13352443D01*
X14502891Y-13352443D02*
X14493368Y-13371490D01*
X14493368Y-13371490D02*
X14483844Y-13381014D01*
X14483844Y-13381014D02*
X14464796Y-13390538D01*
X14464796Y-13390538D02*
X14426701Y-13390538D01*
X14426701Y-13390538D02*
X14407653Y-13400062D01*
X14407653Y-13400062D02*
X14398129Y-13409586D01*
X14398129Y-13409586D02*
X14388606Y-13428633D01*
X14388606Y-13428633D02*
X14388606Y-13466728D01*
X14388606Y-13466728D02*
X14398129Y-13485776D01*
X14398129Y-13485776D02*
X14407653Y-13495300D01*
X14407653Y-13495300D02*
X14426701Y-13504824D01*
X14426701Y-13504824D02*
X14464796Y-13504824D01*
X14464796Y-13504824D02*
X14483844Y-13495300D01*
X14483844Y-13495300D02*
X14493368Y-13485776D01*
X14493368Y-13485776D02*
X14502891Y-13466728D01*
X14502891Y-13466728D02*
X14502891Y-13428633D01*
X14502891Y-13428633D02*
X14493368Y-13409586D01*
X14493368Y-13409586D02*
X14483844Y-13400062D01*
X14483844Y-13400062D02*
X14464796Y-13390538D01*
X14740987Y-13504824D02*
X14740987Y-13304824D01*
X14826701Y-13504824D02*
X14826701Y-13400062D01*
X14826701Y-13400062D02*
X14817177Y-13381014D01*
X14817177Y-13381014D02*
X14798130Y-13371490D01*
X14798130Y-13371490D02*
X14769558Y-13371490D01*
X14769558Y-13371490D02*
X14750510Y-13381014D01*
X14750510Y-13381014D02*
X14740987Y-13390538D01*
X14950510Y-13504824D02*
X14931463Y-13495300D01*
X14931463Y-13495300D02*
X14921939Y-13485776D01*
X14921939Y-13485776D02*
X14912415Y-13466728D01*
X14912415Y-13466728D02*
X14912415Y-13409586D01*
X14912415Y-13409586D02*
X14921939Y-13390538D01*
X14921939Y-13390538D02*
X14931463Y-13381014D01*
X14931463Y-13381014D02*
X14950510Y-13371490D01*
X14950510Y-13371490D02*
X14979082Y-13371490D01*
X14979082Y-13371490D02*
X14998130Y-13381014D01*
X14998130Y-13381014D02*
X15007653Y-13390538D01*
X15007653Y-13390538D02*
X15017177Y-13409586D01*
X15017177Y-13409586D02*
X15017177Y-13466728D01*
X15017177Y-13466728D02*
X15007653Y-13485776D01*
X15007653Y-13485776D02*
X14998130Y-13495300D01*
X14998130Y-13495300D02*
X14979082Y-13504824D01*
X14979082Y-13504824D02*
X14950510Y-13504824D01*
X15131463Y-13504824D02*
X15112415Y-13495300D01*
X15112415Y-13495300D02*
X15102891Y-13476252D01*
X15102891Y-13476252D02*
X15102891Y-13304824D01*
X15283844Y-13495300D02*
X15264796Y-13504824D01*
X15264796Y-13504824D02*
X15226701Y-13504824D01*
X15226701Y-13504824D02*
X15207653Y-13495300D01*
X15207653Y-13495300D02*
X15198130Y-13476252D01*
X15198130Y-13476252D02*
X15198130Y-13400062D01*
X15198130Y-13400062D02*
X15207653Y-13381014D01*
X15207653Y-13381014D02*
X15226701Y-13371490D01*
X15226701Y-13371490D02*
X15264796Y-13371490D01*
X15264796Y-13371490D02*
X15283844Y-13381014D01*
X15283844Y-13381014D02*
X15293368Y-13400062D01*
X15293368Y-13400062D02*
X15293368Y-13419109D01*
X15293368Y-13419109D02*
X15198130Y-13438157D01*
X15369558Y-13495300D02*
X15388606Y-13504824D01*
X15388606Y-13504824D02*
X15426701Y-13504824D01*
X15426701Y-13504824D02*
X15445749Y-13495300D01*
X15445749Y-13495300D02*
X15455272Y-13476252D01*
X15455272Y-13476252D02*
X15455272Y-13466728D01*
X15455272Y-13466728D02*
X15445749Y-13447681D01*
X15445749Y-13447681D02*
X15426701Y-13438157D01*
X15426701Y-13438157D02*
X15398130Y-13438157D01*
X15398130Y-13438157D02*
X15379082Y-13428633D01*
X15379082Y-13428633D02*
X15369558Y-13409586D01*
X15369558Y-13409586D02*
X15369558Y-13400062D01*
X15369558Y-13400062D02*
X15379082Y-13381014D01*
X15379082Y-13381014D02*
X15398130Y-13371490D01*
X15398130Y-13371490D02*
X15426701Y-13371490D01*
X15426701Y-13371490D02*
X15445749Y-13381014D01*
X15521939Y-13581014D02*
X15531463Y-13571490D01*
X15531463Y-13571490D02*
X15550511Y-13542919D01*
X15550511Y-13542919D02*
X15560034Y-13523871D01*
X15560034Y-13523871D02*
X15569558Y-13495300D01*
X15569558Y-13495300D02*
X15579082Y-13447681D01*
X15579082Y-13447681D02*
X15579082Y-13409586D01*
X15579082Y-13409586D02*
X15569558Y-13361967D01*
X15569558Y-13361967D02*
X15560034Y-13333395D01*
X15560034Y-13333395D02*
X15550511Y-13314348D01*
X15550511Y-13314348D02*
X15531463Y-13285776D01*
X15531463Y-13285776D02*
X15521939Y-13276252D01*
M02*
