%TF.GenerationSoftware,KiCad,Pcbnew,10.0.3*%
%TF.CreationDate,2026-07-27T10:38:11+01:00*%
%TF.ProjectId,MRF-Pro-v8,4d52462d-5072-46f2-9d76-382e6b696361,rev?*%
%TF.SameCoordinates,Original*%
%TF.FileFunction,Copper,L2,Bot*%
%TF.FilePolarity,Positive*%
%FSLAX46Y46*%
G04 Gerber Fmt 4.6, Leading zero omitted, Abs format (unit mm)*
G04 Created by KiCad (PCBNEW 10.0.3) date 2026-07-27 10:38:11*
%MOMM*%
%LPD*%
G01*
G04 APERTURE LIST*
%TA.AperFunction,ComponentPad*%
%ADD10R,1.700000X1.700000*%
%TD*%
%TA.AperFunction,ComponentPad*%
%ADD11O,1.700000X1.700000*%
%TD*%
%TA.AperFunction,ViaPad*%
%ADD12C,0.800000*%
%TD*%
%TA.AperFunction,Conductor*%
%ADD13C,0.250000*%
%TD*%
%TA.AperFunction,Conductor*%
%ADD14C,1.000000*%
%TD*%
%TA.AperFunction,Conductor*%
%ADD15C,0.500000*%
%TD*%
G04 APERTURE END LIST*
D10*
%TO.P,J2,1,Pin_1_1*%
%TO.N,Net-(J2-Pin_1)*%
X146050000Y-101600000D03*
D11*
%TO.P,J2,2,Pin_2_2*%
%TO.N,Net-(J2-Pin_2)*%
X143510000Y-101600000D03*
%TO.P,J2,3,Pin_3_3*%
%TO.N,unconnected-(J2-Pin_3-Pad3)*%
X140970000Y-101600000D03*
%TO.P,J2,4,Pin_4_4*%
%TO.N,unconnected-(J2-Pin_4-Pad4)*%
X138430000Y-101600000D03*
%TO.P,J2,5,Pin_5_5*%
%TO.N,Net-(J2-Pin_5)*%
X135890000Y-101600000D03*
%TO.P,J2,6,Pin_6_6*%
%TO.N,Net-(J2-Pin_6)*%
X133350000Y-101600000D03*
%TO.P,J2,7,Pin_7_7*%
%TO.N,unconnected-(J2-Pin_7-Pad7)*%
X130810000Y-101600000D03*
%TO.P,J2,8,Pin_8_8*%
%TO.N,unconnected-(J2-Pin_8-Pad8)*%
X128270000Y-101600000D03*
%TO.P,J2,9,Pin_9_9*%
%TO.N,unconnected-(J2-Pin_9-Pad9)*%
X125730000Y-101600000D03*
%TO.P,J2,10,Pin_10_10*%
%TO.N,unconnected-(J2-Pin_10-Pad10)*%
X123190000Y-101600000D03*
%TO.P,J2,11,Pin_11_11*%
%TO.N,EN*%
X120650000Y-101600000D03*
%TO.P,J2,12,Pin_12_12*%
%TO.N,VBAT*%
X118110000Y-101600000D03*
%TD*%
D10*
%TO.P,J1,1,Pin_1_1*%
%TO.N,unconnected-(J1-Pin_1-Pad1)*%
X107950000Y-121920000D03*
D11*
%TO.P,J1,2,Pin_2_2*%
%TO.N,3.3IN*%
X110490000Y-121920000D03*
%TO.P,J1,3,Pin_3_3*%
X113030000Y-121920000D03*
%TO.P,J1,4,Pin_4_4*%
%TO.N,GND*%
X115570000Y-121920000D03*
%TO.P,J1,5,Pin_5_5*%
%TO.N,unconnected-(J1-Pin_5-Pad5)*%
X118110000Y-121920000D03*
%TO.P,J1,6,Pin_6_6*%
%TO.N,unconnected-(J1-Pin_6-Pad6)*%
X120650000Y-121920000D03*
%TO.P,J1,7,Pin_7_7*%
%TO.N,unconnected-(J1-Pin_7-Pad7)*%
X123190000Y-121920000D03*
%TO.P,J1,8,Pin_8_8*%
%TO.N,unconnected-(J1-Pin_8-Pad8)*%
X125730000Y-121920000D03*
%TO.P,J1,9,Pin_9_9*%
%TO.N,unconnected-(J1-Pin_9-Pad9)*%
X128270000Y-121920000D03*
%TO.P,J1,10,Pin_10_10*%
%TO.N,unconnected-(J1-Pin_10-Pad10)*%
X130810000Y-121920000D03*
%TO.P,J1,11,Pin_11_11*%
%TO.N,unconnected-(J1-Pin_11-Pad11)*%
X133350000Y-121920000D03*
%TO.P,J1,12,Pin_12_12*%
%TO.N,unconnected-(J1-Pin_12-Pad12)*%
X135890000Y-121920000D03*
%TO.P,J1,13,Pin_13_13*%
%TO.N,unconnected-(J1-Pin_13-Pad13)*%
X138430000Y-121920000D03*
%TO.P,J1,14,Pin_14_14*%
%TO.N,Net-(J1-Pin_14)*%
X140970000Y-121920000D03*
%TO.P,J1,15,Pin_15_15*%
%TO.N,Net-(J1-Pin_15)*%
X143510000Y-121920000D03*
%TO.P,J1,16,Pin_16_16*%
%TO.N,unconnected-(J1-Pin_16-Pad16)*%
X146050000Y-121920000D03*
%TD*%
D12*
%TO.N,Net-(J2-Pin_5)*%
X152475000Y-97900000D03*
%TO.N,Net-(J2-Pin_6)*%
X150350000Y-100425000D03*
X158250000Y-103050000D03*
%TO.N,EN*%
X155100000Y-101750000D03*
%TO.N,VBAT*%
X154600000Y-116250000D03*
X148575000Y-110225000D03*
%TO.N,GND*%
X154675000Y-99275000D03*
X154550000Y-114025000D03*
%TO.N,3.3OUT*%
X159675000Y-107600000D03*
X158025000Y-113275000D03*
%TD*%
%TO.N,Net-(J2-Pin_5)*%
D13*
X152475000Y-97900000D02*
X139590000Y-97900000D01*
X139590000Y-97900000D02*
X135890000Y-101600000D01*
%TO.N,Net-(J2-Pin_6)*%
X150350000Y-100425000D02*
X155625000Y-100425000D01*
X155625000Y-100425000D02*
X158250000Y-103050000D01*
%TO.N,EN*%
X152650000Y-104200000D02*
X123250000Y-104200000D01*
X155100000Y-101750000D02*
X152650000Y-104200000D01*
X123250000Y-104200000D02*
X120650000Y-101600000D01*
%TO.N,VBAT*%
D14*
X154600000Y-116250000D02*
X148575000Y-110225000D01*
%TO.N,3.3OUT*%
D15*
X159675000Y-107600000D02*
X159680000Y-111620000D01*
X159675000Y-111625000D02*
X158025000Y-113275000D01*
%TD*%
%TA.AperFunction,Conductor*%
%TO.N,GND*%
G36*
X162070739Y-96286185D02*
G01*
X162116494Y-96338989D01*
X162127700Y-96390500D01*
X162127700Y-124868900D01*
X162108015Y-124935939D01*
X162055211Y-124981694D01*
X162003700Y-124992900D01*
X105788500Y-124992900D01*
X105721461Y-124973215D01*
X105675706Y-124920411D01*
X105664500Y-124868900D01*
X105664500Y-121022135D01*
X106599500Y-121022135D01*
X106599500Y-122817870D01*
X106599501Y-122817876D01*
X106605908Y-122877483D01*
X106656202Y-123012328D01*
X106656206Y-123012335D01*
X106742452Y-123127544D01*
X106742455Y-123127547D01*
X106857664Y-123213793D01*
X106857671Y-123213797D01*
X106992517Y-123264091D01*
X106992516Y-123264091D01*
X106999444Y-123264835D01*
X107052127Y-123270500D01*
X108847872Y-123270499D01*
X108907483Y-123264091D01*
X109042331Y-123213796D01*
X109157546Y-123127546D01*
X109243796Y-123012331D01*
X109292810Y-122880916D01*
X109334681Y-122824984D01*
X109400145Y-122800566D01*
X109468418Y-122815417D01*
X109496673Y-122836569D01*
X109610213Y-122950109D01*
X109782179Y-123075048D01*
X109782181Y-123075049D01*
X109782184Y-123075051D01*
X109971588Y-123171557D01*
X110173757Y-123237246D01*
X110383713Y-123270500D01*
X110383714Y-123270500D01*
X110596286Y-123270500D01*
X110596287Y-123270500D01*
X110806243Y-123237246D01*
X111008412Y-123171557D01*
X111197816Y-123075051D01*
X111260110Y-123029792D01*
X111369786Y-122950109D01*
X111369788Y-122950106D01*
X111369792Y-122950104D01*
X111520104Y-122799792D01*
X111520106Y-122799788D01*
X111520109Y-122799786D01*
X111645048Y-122627820D01*
X111645047Y-122627820D01*
X111645051Y-122627816D01*
X111649514Y-122619054D01*
X111697488Y-122568259D01*
X111765308Y-122551463D01*
X111831444Y-122573999D01*
X111870486Y-122619056D01*
X111874951Y-122627820D01*
X111999890Y-122799786D01*
X112150213Y-122950109D01*
X112322179Y-123075048D01*
X112322181Y-123075049D01*
X112322184Y-123075051D01*
X112511588Y-123171557D01*
X112713757Y-123237246D01*
X112923713Y-123270500D01*
X112923714Y-123270500D01*
X113136286Y-123270500D01*
X113136287Y-123270500D01*
X113346243Y-123237246D01*
X113548412Y-123171557D01*
X113737816Y-123075051D01*
X113800110Y-123029792D01*
X113909786Y-122950109D01*
X113909788Y-122950106D01*
X113909792Y-122950104D01*
X114060104Y-122799792D01*
X114060106Y-122799788D01*
X114060109Y-122799786D01*
X114185048Y-122627820D01*
X114185051Y-122627816D01*
X114189793Y-122618508D01*
X114237763Y-122567711D01*
X114305583Y-122550911D01*
X114371719Y-122573445D01*
X114410763Y-122618500D01*
X114415377Y-122627555D01*
X114540272Y-122799459D01*
X114540276Y-122799464D01*
X114690535Y-122949723D01*
X114690540Y-122949727D01*
X114862442Y-123074620D01*
X115051782Y-123171095D01*
X115253871Y-123236757D01*
X115320000Y-123247231D01*
X115320000Y-122353012D01*
X115377007Y-122385925D01*
X115504174Y-122420000D01*
X115635826Y-122420000D01*
X115762993Y-122385925D01*
X115820000Y-122353012D01*
X115820000Y-123247230D01*
X115886126Y-123236757D01*
X115886129Y-123236757D01*
X116088217Y-123171095D01*
X116277557Y-123074620D01*
X116449459Y-122949727D01*
X116449464Y-122949723D01*
X116599723Y-122799464D01*
X116599727Y-122799459D01*
X116724620Y-122627558D01*
X116729232Y-122618507D01*
X116777205Y-122567709D01*
X116845025Y-122550912D01*
X116911161Y-122573447D01*
X116950204Y-122618504D01*
X116954949Y-122627817D01*
X117079890Y-122799786D01*
X117230213Y-122950109D01*
X117402179Y-123075048D01*
X117402181Y-123075049D01*
X117402184Y-123075051D01*
X117591588Y-123171557D01*
X117793757Y-123237246D01*
X118003713Y-123270500D01*
X118003714Y-123270500D01*
X118216286Y-123270500D01*
X118216287Y-123270500D01*
X118426243Y-123237246D01*
X118628412Y-123171557D01*
X118817816Y-123075051D01*
X118880110Y-123029792D01*
X118989786Y-122950109D01*
X118989788Y-122950106D01*
X118989792Y-122950104D01*
X119140104Y-122799792D01*
X119140106Y-122799788D01*
X119140109Y-122799786D01*
X119265048Y-122627820D01*
X119265047Y-122627820D01*
X119265051Y-122627816D01*
X119269514Y-122619054D01*
X119317488Y-122568259D01*
X119385308Y-122551463D01*
X119451444Y-122573999D01*
X119490486Y-122619056D01*
X119494951Y-122627820D01*
X119619890Y-122799786D01*
X119770213Y-122950109D01*
X119942179Y-123075048D01*
X119942181Y-123075049D01*
X119942184Y-123075051D01*
X120131588Y-123171557D01*
X120333757Y-123237246D01*
X120543713Y-123270500D01*
X120543714Y-123270500D01*
X120756286Y-123270500D01*
X120756287Y-123270500D01*
X120966243Y-123237246D01*
X121168412Y-123171557D01*
X121357816Y-123075051D01*
X121420110Y-123029792D01*
X121529786Y-122950109D01*
X121529788Y-122950106D01*
X121529792Y-122950104D01*
X121680104Y-122799792D01*
X121680106Y-122799788D01*
X121680109Y-122799786D01*
X121805048Y-122627820D01*
X121805047Y-122627820D01*
X121805051Y-122627816D01*
X121809514Y-122619054D01*
X121857488Y-122568259D01*
X121925308Y-122551463D01*
X121991444Y-122573999D01*
X122030486Y-122619056D01*
X122034951Y-122627820D01*
X122159890Y-122799786D01*
X122310213Y-122950109D01*
X122482179Y-123075048D01*
X122482181Y-123075049D01*
X122482184Y-123075051D01*
X122671588Y-123171557D01*
X122873757Y-123237246D01*
X123083713Y-123270500D01*
X123083714Y-123270500D01*
X123296286Y-123270500D01*
X123296287Y-123270500D01*
X123506243Y-123237246D01*
X123708412Y-123171557D01*
X123897816Y-123075051D01*
X123960110Y-123029792D01*
X124069786Y-122950109D01*
X124069788Y-122950106D01*
X124069792Y-122950104D01*
X124220104Y-122799792D01*
X124220106Y-122799788D01*
X124220109Y-122799786D01*
X124345048Y-122627820D01*
X124345047Y-122627820D01*
X124345051Y-122627816D01*
X124349514Y-122619054D01*
X124397488Y-122568259D01*
X124465308Y-122551463D01*
X124531444Y-122573999D01*
X124570486Y-122619056D01*
X124574951Y-122627820D01*
X124699890Y-122799786D01*
X124850213Y-122950109D01*
X125022179Y-123075048D01*
X125022181Y-123075049D01*
X125022184Y-123075051D01*
X125211588Y-123171557D01*
X125413757Y-123237246D01*
X125623713Y-123270500D01*
X125623714Y-123270500D01*
X125836286Y-123270500D01*
X125836287Y-123270500D01*
X126046243Y-123237246D01*
X126248412Y-123171557D01*
X126437816Y-123075051D01*
X126500110Y-123029792D01*
X126609786Y-122950109D01*
X126609788Y-122950106D01*
X126609792Y-122950104D01*
X126760104Y-122799792D01*
X126760106Y-122799788D01*
X126760109Y-122799786D01*
X126885048Y-122627820D01*
X126885047Y-122627820D01*
X126885051Y-122627816D01*
X126889514Y-122619054D01*
X126937488Y-122568259D01*
X127005308Y-122551463D01*
X127071444Y-122573999D01*
X127110486Y-122619056D01*
X127114951Y-122627820D01*
X127239890Y-122799786D01*
X127390213Y-122950109D01*
X127562179Y-123075048D01*
X127562181Y-123075049D01*
X127562184Y-123075051D01*
X127751588Y-123171557D01*
X127953757Y-123237246D01*
X128163713Y-123270500D01*
X128163714Y-123270500D01*
X128376286Y-123270500D01*
X128376287Y-123270500D01*
X128586243Y-123237246D01*
X128788412Y-123171557D01*
X128977816Y-123075051D01*
X129040110Y-123029792D01*
X129149786Y-122950109D01*
X129149788Y-122950106D01*
X129149792Y-122950104D01*
X129300104Y-122799792D01*
X129300106Y-122799788D01*
X129300109Y-122799786D01*
X129425048Y-122627820D01*
X129425047Y-122627820D01*
X129425051Y-122627816D01*
X129429514Y-122619054D01*
X129477488Y-122568259D01*
X129545308Y-122551463D01*
X129611444Y-122573999D01*
X129650486Y-122619056D01*
X129654951Y-122627820D01*
X129779890Y-122799786D01*
X129930213Y-122950109D01*
X130102179Y-123075048D01*
X130102181Y-123075049D01*
X130102184Y-123075051D01*
X130291588Y-123171557D01*
X130493757Y-123237246D01*
X130703713Y-123270500D01*
X130703714Y-123270500D01*
X130916286Y-123270500D01*
X130916287Y-123270500D01*
X131126243Y-123237246D01*
X131328412Y-123171557D01*
X131517816Y-123075051D01*
X131580110Y-123029792D01*
X131689786Y-122950109D01*
X131689788Y-122950106D01*
X131689792Y-122950104D01*
X131840104Y-122799792D01*
X131840106Y-122799788D01*
X131840109Y-122799786D01*
X131965048Y-122627820D01*
X131965047Y-122627820D01*
X131965051Y-122627816D01*
X131969514Y-122619054D01*
X132017488Y-122568259D01*
X132085308Y-122551463D01*
X132151444Y-122573999D01*
X132190486Y-122619056D01*
X132194951Y-122627820D01*
X132319890Y-122799786D01*
X132470213Y-122950109D01*
X132642179Y-123075048D01*
X132642181Y-123075049D01*
X132642184Y-123075051D01*
X132831588Y-123171557D01*
X133033757Y-123237246D01*
X133243713Y-123270500D01*
X133243714Y-123270500D01*
X133456286Y-123270500D01*
X133456287Y-123270500D01*
X133666243Y-123237246D01*
X133868412Y-123171557D01*
X134057816Y-123075051D01*
X134120110Y-123029792D01*
X134229786Y-122950109D01*
X134229788Y-122950106D01*
X134229792Y-122950104D01*
X134380104Y-122799792D01*
X134380106Y-122799788D01*
X134380109Y-122799786D01*
X134505048Y-122627820D01*
X134505047Y-122627820D01*
X134505051Y-122627816D01*
X134509514Y-122619054D01*
X134557488Y-122568259D01*
X134625308Y-122551463D01*
X134691444Y-122573999D01*
X134730486Y-122619056D01*
X134734951Y-122627820D01*
X134859890Y-122799786D01*
X135010213Y-122950109D01*
X135182179Y-123075048D01*
X135182181Y-123075049D01*
X135182184Y-123075051D01*
X135371588Y-123171557D01*
X135573757Y-123237246D01*
X135783713Y-123270500D01*
X135783714Y-123270500D01*
X135996286Y-123270500D01*
X135996287Y-123270500D01*
X136206243Y-123237246D01*
X136408412Y-123171557D01*
X136597816Y-123075051D01*
X136660110Y-123029792D01*
X136769786Y-122950109D01*
X136769788Y-122950106D01*
X136769792Y-122950104D01*
X136920104Y-122799792D01*
X136920106Y-122799788D01*
X136920109Y-122799786D01*
X137045048Y-122627820D01*
X137045047Y-122627820D01*
X137045051Y-122627816D01*
X137049514Y-122619054D01*
X137097488Y-122568259D01*
X137165308Y-122551463D01*
X137231444Y-122573999D01*
X137270486Y-122619056D01*
X137274951Y-122627820D01*
X137399890Y-122799786D01*
X137550213Y-122950109D01*
X137722179Y-123075048D01*
X137722181Y-123075049D01*
X137722184Y-123075051D01*
X137911588Y-123171557D01*
X138113757Y-123237246D01*
X138323713Y-123270500D01*
X138323714Y-123270500D01*
X138536286Y-123270500D01*
X138536287Y-123270500D01*
X138746243Y-123237246D01*
X138948412Y-123171557D01*
X139137816Y-123075051D01*
X139200110Y-123029792D01*
X139309786Y-122950109D01*
X139309788Y-122950106D01*
X139309792Y-122950104D01*
X139460104Y-122799792D01*
X139460106Y-122799788D01*
X139460109Y-122799786D01*
X139585048Y-122627820D01*
X139585047Y-122627820D01*
X139585051Y-122627816D01*
X139589514Y-122619054D01*
X139637488Y-122568259D01*
X139705308Y-122551463D01*
X139771444Y-122573999D01*
X139810486Y-122619056D01*
X139814951Y-122627820D01*
X139939890Y-122799786D01*
X140090213Y-122950109D01*
X140262179Y-123075048D01*
X140262181Y-123075049D01*
X140262184Y-123075051D01*
X140451588Y-123171557D01*
X140653757Y-123237246D01*
X140863713Y-123270500D01*
X140863714Y-123270500D01*
X141076286Y-123270500D01*
X141076287Y-123270500D01*
X141286243Y-123237246D01*
X141488412Y-123171557D01*
X141677816Y-123075051D01*
X141740110Y-123029792D01*
X141849786Y-122950109D01*
X141849788Y-122950106D01*
X141849792Y-122950104D01*
X142000104Y-122799792D01*
X142000106Y-122799788D01*
X142000109Y-122799786D01*
X142125048Y-122627820D01*
X142125047Y-122627820D01*
X142125051Y-122627816D01*
X142129514Y-122619054D01*
X142177488Y-122568259D01*
X142245308Y-122551463D01*
X142311444Y-122573999D01*
X142350486Y-122619056D01*
X142354951Y-122627820D01*
X142479890Y-122799786D01*
X142630213Y-122950109D01*
X142802179Y-123075048D01*
X142802181Y-123075049D01*
X142802184Y-123075051D01*
X142991588Y-123171557D01*
X143193757Y-123237246D01*
X143403713Y-123270500D01*
X143403714Y-123270500D01*
X143616286Y-123270500D01*
X143616287Y-123270500D01*
X143826243Y-123237246D01*
X144028412Y-123171557D01*
X144217816Y-123075051D01*
X144280110Y-123029792D01*
X144389786Y-122950109D01*
X144389788Y-122950106D01*
X144389792Y-122950104D01*
X144540104Y-122799792D01*
X144540106Y-122799788D01*
X144540109Y-122799786D01*
X144665048Y-122627820D01*
X144665047Y-122627820D01*
X144665051Y-122627816D01*
X144669514Y-122619054D01*
X144717488Y-122568259D01*
X144785308Y-122551463D01*
X144851444Y-122573999D01*
X144890486Y-122619056D01*
X144894951Y-122627820D01*
X145019890Y-122799786D01*
X145170213Y-122950109D01*
X145342179Y-123075048D01*
X145342181Y-123075049D01*
X145342184Y-123075051D01*
X145531588Y-123171557D01*
X145733757Y-123237246D01*
X145943713Y-123270500D01*
X145943714Y-123270500D01*
X146156286Y-123270500D01*
X146156287Y-123270500D01*
X146366243Y-123237246D01*
X146568412Y-123171557D01*
X146757816Y-123075051D01*
X146820110Y-123029792D01*
X146929786Y-122950109D01*
X146929788Y-122950106D01*
X146929792Y-122950104D01*
X147080104Y-122799792D01*
X147080106Y-122799788D01*
X147080109Y-122799786D01*
X147205048Y-122627820D01*
X147205047Y-122627820D01*
X147205051Y-122627816D01*
X147301557Y-122438412D01*
X147367246Y-122236243D01*
X147397740Y-122043713D01*
X157974500Y-122043713D01*
X157974500Y-122256287D01*
X158007754Y-122466243D01*
X158060252Y-122627816D01*
X158073444Y-122668414D01*
X158169951Y-122857820D01*
X158294890Y-123029786D01*
X158445213Y-123180109D01*
X158617179Y-123305048D01*
X158617181Y-123305049D01*
X158617184Y-123305051D01*
X158806588Y-123401557D01*
X159008757Y-123467246D01*
X159218713Y-123500500D01*
X159218714Y-123500500D01*
X159431286Y-123500500D01*
X159431287Y-123500500D01*
X159641243Y-123467246D01*
X159843412Y-123401557D01*
X160032816Y-123305051D01*
X160080373Y-123270499D01*
X160204786Y-123180109D01*
X160204788Y-123180106D01*
X160204792Y-123180104D01*
X160355104Y-123029792D01*
X160355106Y-123029788D01*
X160355109Y-123029786D01*
X160480048Y-122857820D01*
X160480047Y-122857820D01*
X160480051Y-122857816D01*
X160576557Y-122668412D01*
X160642246Y-122466243D01*
X160675500Y-122256287D01*
X160675500Y-122043713D01*
X160642246Y-121833757D01*
X160576557Y-121631588D01*
X160480051Y-121442184D01*
X160480049Y-121442181D01*
X160480048Y-121442179D01*
X160355109Y-121270213D01*
X160204786Y-121119890D01*
X160032820Y-120994951D01*
X159843414Y-120898444D01*
X159843413Y-120898443D01*
X159843412Y-120898443D01*
X159641243Y-120832754D01*
X159641241Y-120832753D01*
X159641240Y-120832753D01*
X159479957Y-120807208D01*
X159431287Y-120799500D01*
X159218713Y-120799500D01*
X159170042Y-120807208D01*
X159008760Y-120832753D01*
X158806585Y-120898444D01*
X158617179Y-120994951D01*
X158445213Y-121119890D01*
X158294890Y-121270213D01*
X158169951Y-121442179D01*
X158073444Y-121631585D01*
X158007753Y-121833760D01*
X158004520Y-121854174D01*
X157974500Y-122043713D01*
X147397740Y-122043713D01*
X147400500Y-122026287D01*
X147400500Y-121813713D01*
X147367246Y-121603757D01*
X147301557Y-121401588D01*
X147205051Y-121212184D01*
X147205049Y-121212181D01*
X147205048Y-121212179D01*
X147080109Y-121040213D01*
X146929786Y-120889890D01*
X146757820Y-120764951D01*
X146568414Y-120668444D01*
X146568413Y-120668443D01*
X146568412Y-120668443D01*
X146366243Y-120602754D01*
X146366241Y-120602753D01*
X146366240Y-120602753D01*
X146204957Y-120577208D01*
X146156287Y-120569500D01*
X145943713Y-120569500D01*
X145895042Y-120577208D01*
X145733760Y-120602753D01*
X145531585Y-120668444D01*
X145342179Y-120764951D01*
X145170213Y-120889890D01*
X145019890Y-121040213D01*
X144894949Y-121212182D01*
X144890484Y-121220946D01*
X144842509Y-121271742D01*
X144774688Y-121288536D01*
X144708553Y-121265998D01*
X144669516Y-121220946D01*
X144665050Y-121212182D01*
X144540109Y-121040213D01*
X144389786Y-120889890D01*
X144217820Y-120764951D01*
X144028414Y-120668444D01*
X144028413Y-120668443D01*
X144028412Y-120668443D01*
X143826243Y-120602754D01*
X143826241Y-120602753D01*
X143826240Y-120602753D01*
X143664957Y-120577208D01*
X143616287Y-120569500D01*
X143403713Y-120569500D01*
X143355042Y-120577208D01*
X143193760Y-120602753D01*
X142991585Y-120668444D01*
X142802179Y-120764951D01*
X142630213Y-120889890D01*
X142479890Y-121040213D01*
X142354949Y-121212182D01*
X142350484Y-121220946D01*
X142302509Y-121271742D01*
X142234688Y-121288536D01*
X142168553Y-121265998D01*
X142129516Y-121220946D01*
X142125050Y-121212182D01*
X142000109Y-121040213D01*
X141849786Y-120889890D01*
X141677820Y-120764951D01*
X141488414Y-120668444D01*
X141488413Y-120668443D01*
X141488412Y-120668443D01*
X141286243Y-120602754D01*
X141286241Y-120602753D01*
X141286240Y-120602753D01*
X141124957Y-120577208D01*
X141076287Y-120569500D01*
X140863713Y-120569500D01*
X140815042Y-120577208D01*
X140653760Y-120602753D01*
X140451585Y-120668444D01*
X140262179Y-120764951D01*
X140090213Y-120889890D01*
X139939890Y-121040213D01*
X139814949Y-121212182D01*
X139810484Y-121220946D01*
X139762509Y-121271742D01*
X139694688Y-121288536D01*
X139628553Y-121265998D01*
X139589516Y-121220946D01*
X139585050Y-121212182D01*
X139460109Y-121040213D01*
X139309786Y-120889890D01*
X139137820Y-120764951D01*
X138948414Y-120668444D01*
X138948413Y-120668443D01*
X138948412Y-120668443D01*
X138746243Y-120602754D01*
X138746241Y-120602753D01*
X138746240Y-120602753D01*
X138584957Y-120577208D01*
X138536287Y-120569500D01*
X138323713Y-120569500D01*
X138275042Y-120577208D01*
X138113760Y-120602753D01*
X137911585Y-120668444D01*
X137722179Y-120764951D01*
X137550213Y-120889890D01*
X137399890Y-121040213D01*
X137274949Y-121212182D01*
X137270484Y-121220946D01*
X137222509Y-121271742D01*
X137154688Y-121288536D01*
X137088553Y-121265998D01*
X137049516Y-121220946D01*
X137045050Y-121212182D01*
X136920109Y-121040213D01*
X136769786Y-120889890D01*
X136597820Y-120764951D01*
X136408414Y-120668444D01*
X136408413Y-120668443D01*
X136408412Y-120668443D01*
X136206243Y-120602754D01*
X136206241Y-120602753D01*
X136206240Y-120602753D01*
X136044957Y-120577208D01*
X135996287Y-120569500D01*
X135783713Y-120569500D01*
X135735042Y-120577208D01*
X135573760Y-120602753D01*
X135371585Y-120668444D01*
X135182179Y-120764951D01*
X135010213Y-120889890D01*
X134859890Y-121040213D01*
X134734949Y-121212182D01*
X134730484Y-121220946D01*
X134682509Y-121271742D01*
X134614688Y-121288536D01*
X134548553Y-121265998D01*
X134509516Y-121220946D01*
X134505050Y-121212182D01*
X134380109Y-121040213D01*
X134229786Y-120889890D01*
X134057820Y-120764951D01*
X133868414Y-120668444D01*
X133868413Y-120668443D01*
X133868412Y-120668443D01*
X133666243Y-120602754D01*
X133666241Y-120602753D01*
X133666240Y-120602753D01*
X133504957Y-120577208D01*
X133456287Y-120569500D01*
X133243713Y-120569500D01*
X133195042Y-120577208D01*
X133033760Y-120602753D01*
X132831585Y-120668444D01*
X132642179Y-120764951D01*
X132470213Y-120889890D01*
X132319890Y-121040213D01*
X132194949Y-121212182D01*
X132190484Y-121220946D01*
X132142509Y-121271742D01*
X132074688Y-121288536D01*
X132008553Y-121265998D01*
X131969516Y-121220946D01*
X131965050Y-121212182D01*
X131840109Y-121040213D01*
X131689786Y-120889890D01*
X131517820Y-120764951D01*
X131328414Y-120668444D01*
X131328413Y-120668443D01*
X131328412Y-120668443D01*
X131126243Y-120602754D01*
X131126241Y-120602753D01*
X131126240Y-120602753D01*
X130964957Y-120577208D01*
X130916287Y-120569500D01*
X130703713Y-120569500D01*
X130655042Y-120577208D01*
X130493760Y-120602753D01*
X130291585Y-120668444D01*
X130102179Y-120764951D01*
X129930213Y-120889890D01*
X129779890Y-121040213D01*
X129654949Y-121212182D01*
X129650484Y-121220946D01*
X129602509Y-121271742D01*
X129534688Y-121288536D01*
X129468553Y-121265998D01*
X129429516Y-121220946D01*
X129425050Y-121212182D01*
X129300109Y-121040213D01*
X129149786Y-120889890D01*
X128977820Y-120764951D01*
X128788414Y-120668444D01*
X128788413Y-120668443D01*
X128788412Y-120668443D01*
X128586243Y-120602754D01*
X128586241Y-120602753D01*
X128586240Y-120602753D01*
X128424957Y-120577208D01*
X128376287Y-120569500D01*
X128163713Y-120569500D01*
X128115042Y-120577208D01*
X127953760Y-120602753D01*
X127751585Y-120668444D01*
X127562179Y-120764951D01*
X127390213Y-120889890D01*
X127239890Y-121040213D01*
X127114949Y-121212182D01*
X127110484Y-121220946D01*
X127062509Y-121271742D01*
X126994688Y-121288536D01*
X126928553Y-121265998D01*
X126889516Y-121220946D01*
X126885050Y-121212182D01*
X126760109Y-121040213D01*
X126609786Y-120889890D01*
X126437820Y-120764951D01*
X126248414Y-120668444D01*
X126248413Y-120668443D01*
X126248412Y-120668443D01*
X126046243Y-120602754D01*
X126046241Y-120602753D01*
X126046240Y-120602753D01*
X125884957Y-120577208D01*
X125836287Y-120569500D01*
X125623713Y-120569500D01*
X125575042Y-120577208D01*
X125413760Y-120602753D01*
X125211585Y-120668444D01*
X125022179Y-120764951D01*
X124850213Y-120889890D01*
X124699890Y-121040213D01*
X124574949Y-121212182D01*
X124570484Y-121220946D01*
X124522509Y-121271742D01*
X124454688Y-121288536D01*
X124388553Y-121265998D01*
X124349516Y-121220946D01*
X124345050Y-121212182D01*
X124220109Y-121040213D01*
X124069786Y-120889890D01*
X123897820Y-120764951D01*
X123708414Y-120668444D01*
X123708413Y-120668443D01*
X123708412Y-120668443D01*
X123506243Y-120602754D01*
X123506241Y-120602753D01*
X123506240Y-120602753D01*
X123344957Y-120577208D01*
X123296287Y-120569500D01*
X123083713Y-120569500D01*
X123035042Y-120577208D01*
X122873760Y-120602753D01*
X122671585Y-120668444D01*
X122482179Y-120764951D01*
X122310213Y-120889890D01*
X122159890Y-121040213D01*
X122034949Y-121212182D01*
X122030484Y-121220946D01*
X121982509Y-121271742D01*
X121914688Y-121288536D01*
X121848553Y-121265998D01*
X121809516Y-121220946D01*
X121805050Y-121212182D01*
X121680109Y-121040213D01*
X121529786Y-120889890D01*
X121357820Y-120764951D01*
X121168414Y-120668444D01*
X121168413Y-120668443D01*
X121168412Y-120668443D01*
X120966243Y-120602754D01*
X120966241Y-120602753D01*
X120966240Y-120602753D01*
X120804957Y-120577208D01*
X120756287Y-120569500D01*
X120543713Y-120569500D01*
X120495042Y-120577208D01*
X120333760Y-120602753D01*
X120131585Y-120668444D01*
X119942179Y-120764951D01*
X119770213Y-120889890D01*
X119619890Y-121040213D01*
X119494949Y-121212182D01*
X119490484Y-121220946D01*
X119442509Y-121271742D01*
X119374688Y-121288536D01*
X119308553Y-121265998D01*
X119269516Y-121220946D01*
X119265050Y-121212182D01*
X119140109Y-121040213D01*
X118989786Y-120889890D01*
X118817820Y-120764951D01*
X118628414Y-120668444D01*
X118628413Y-120668443D01*
X118628412Y-120668443D01*
X118426243Y-120602754D01*
X118426241Y-120602753D01*
X118426240Y-120602753D01*
X118264957Y-120577208D01*
X118216287Y-120569500D01*
X118003713Y-120569500D01*
X117955042Y-120577208D01*
X117793760Y-120602753D01*
X117591585Y-120668444D01*
X117402179Y-120764951D01*
X117230213Y-120889890D01*
X117079890Y-121040213D01*
X116954949Y-121212182D01*
X116950202Y-121221499D01*
X116902227Y-121272293D01*
X116834405Y-121289087D01*
X116768271Y-121266548D01*
X116729234Y-121221495D01*
X116724622Y-121212444D01*
X116599727Y-121040540D01*
X116599723Y-121040535D01*
X116449464Y-120890276D01*
X116449459Y-120890272D01*
X116277557Y-120765379D01*
X116088215Y-120668903D01*
X115886124Y-120603241D01*
X115820000Y-120592768D01*
X115820000Y-121486988D01*
X115762993Y-121454075D01*
X115635826Y-121420000D01*
X115504174Y-121420000D01*
X115377007Y-121454075D01*
X115320000Y-121486988D01*
X115320000Y-120592768D01*
X115319999Y-120592768D01*
X115253875Y-120603241D01*
X115051784Y-120668903D01*
X114862442Y-120765379D01*
X114690540Y-120890272D01*
X114690535Y-120890276D01*
X114540276Y-121040535D01*
X114540272Y-121040540D01*
X114415378Y-121212443D01*
X114410762Y-121221502D01*
X114362784Y-121272295D01*
X114294963Y-121289087D01*
X114228829Y-121266546D01*
X114189794Y-121221493D01*
X114185051Y-121212184D01*
X114185049Y-121212181D01*
X114185048Y-121212179D01*
X114060109Y-121040213D01*
X113909786Y-120889890D01*
X113737820Y-120764951D01*
X113548414Y-120668444D01*
X113548413Y-120668443D01*
X113548412Y-120668443D01*
X113346243Y-120602754D01*
X113346241Y-120602753D01*
X113346240Y-120602753D01*
X113184957Y-120577208D01*
X113136287Y-120569500D01*
X112923713Y-120569500D01*
X112875042Y-120577208D01*
X112713760Y-120602753D01*
X112511585Y-120668444D01*
X112322179Y-120764951D01*
X112150213Y-120889890D01*
X111999890Y-121040213D01*
X111874949Y-121212182D01*
X111870484Y-121220946D01*
X111822509Y-121271742D01*
X111754688Y-121288536D01*
X111688553Y-121265998D01*
X111649516Y-121220946D01*
X111645050Y-121212182D01*
X111520109Y-121040213D01*
X111369786Y-120889890D01*
X111197820Y-120764951D01*
X111008414Y-120668444D01*
X111008413Y-120668443D01*
X111008412Y-120668443D01*
X110806243Y-120602754D01*
X110806241Y-120602753D01*
X110806240Y-120602753D01*
X110644957Y-120577208D01*
X110596287Y-120569500D01*
X110383713Y-120569500D01*
X110335042Y-120577208D01*
X110173760Y-120602753D01*
X109971585Y-120668444D01*
X109782179Y-120764951D01*
X109610215Y-120889889D01*
X109496673Y-121003431D01*
X109435350Y-121036915D01*
X109365658Y-121031931D01*
X109309725Y-120990059D01*
X109292810Y-120959082D01*
X109243797Y-120827671D01*
X109243793Y-120827664D01*
X109157547Y-120712455D01*
X109157544Y-120712452D01*
X109042335Y-120626206D01*
X109042328Y-120626202D01*
X108907482Y-120575908D01*
X108907483Y-120575908D01*
X108847883Y-120569501D01*
X108847881Y-120569500D01*
X108847873Y-120569500D01*
X108847864Y-120569500D01*
X107052129Y-120569500D01*
X107052123Y-120569501D01*
X106992516Y-120575908D01*
X106857671Y-120626202D01*
X106857664Y-120626206D01*
X106742455Y-120712452D01*
X106742452Y-120712455D01*
X106656206Y-120827664D01*
X106656202Y-120827671D01*
X106605908Y-120962517D01*
X106599501Y-121022116D01*
X106599500Y-121022135D01*
X105664500Y-121022135D01*
X105664500Y-110126455D01*
X147574500Y-110126455D01*
X147574500Y-110323544D01*
X147612947Y-110516828D01*
X147612949Y-110516836D01*
X147688367Y-110698910D01*
X147688372Y-110698920D01*
X147797860Y-110862780D01*
X147797863Y-110862784D01*
X153962213Y-117027135D01*
X153962214Y-117027136D01*
X153962217Y-117027138D01*
X153962219Y-117027140D01*
X154126086Y-117136631D01*
X154308165Y-117212052D01*
X154501455Y-117250499D01*
X154501459Y-117250500D01*
X154501460Y-117250500D01*
X154698541Y-117250500D01*
X154698542Y-117250499D01*
X154891836Y-117212052D01*
X155073914Y-117136631D01*
X155237782Y-117027140D01*
X155377140Y-116887782D01*
X155486631Y-116723914D01*
X155562052Y-116541836D01*
X155600500Y-116348540D01*
X155600500Y-116151460D01*
X155562052Y-115958165D01*
X155486631Y-115776086D01*
X155377140Y-115612219D01*
X155377138Y-115612217D01*
X155377136Y-115612214D01*
X153032820Y-113267898D01*
X152951226Y-113186304D01*
X157124500Y-113186304D01*
X157124500Y-113363695D01*
X157159103Y-113537658D01*
X157159106Y-113537667D01*
X157226983Y-113701540D01*
X157226990Y-113701553D01*
X157325535Y-113849034D01*
X157325538Y-113849038D01*
X157450961Y-113974461D01*
X157450965Y-113974464D01*
X157598446Y-114073009D01*
X157598459Y-114073016D01*
X157721363Y-114123923D01*
X157762334Y-114140894D01*
X157762336Y-114140894D01*
X157762341Y-114140896D01*
X157936304Y-114175499D01*
X157936307Y-114175500D01*
X157936309Y-114175500D01*
X158113693Y-114175500D01*
X158113694Y-114175499D01*
X158171682Y-114163964D01*
X158287658Y-114140896D01*
X158287661Y-114140894D01*
X158287666Y-114140894D01*
X158451547Y-114073013D01*
X158599035Y-113974464D01*
X158724464Y-113849035D01*
X158823013Y-113701547D01*
X158890894Y-113537666D01*
X158900240Y-113490678D01*
X158932624Y-113428770D01*
X158934121Y-113427245D01*
X160158750Y-112202616D01*
X160159141Y-112202355D01*
X160210931Y-112150435D01*
X160257951Y-112103416D01*
X160257953Y-112103412D01*
X160261582Y-112099784D01*
X160262794Y-112098443D01*
X160263546Y-112097690D01*
X160345526Y-111974667D01*
X160401930Y-111838015D01*
X160430591Y-111692984D01*
X160426163Y-108134425D01*
X160445764Y-108067365D01*
X160447018Y-108065448D01*
X160473013Y-108026547D01*
X160540894Y-107862666D01*
X160575500Y-107688691D01*
X160575500Y-107511309D01*
X160575500Y-107511306D01*
X160575499Y-107511304D01*
X160540896Y-107337341D01*
X160540893Y-107337332D01*
X160473016Y-107173459D01*
X160473009Y-107173446D01*
X160374464Y-107025965D01*
X160374461Y-107025961D01*
X160249038Y-106900538D01*
X160249034Y-106900535D01*
X160101553Y-106801990D01*
X160101540Y-106801983D01*
X159937667Y-106734106D01*
X159937658Y-106734103D01*
X159763694Y-106699500D01*
X159763691Y-106699500D01*
X159586309Y-106699500D01*
X159586306Y-106699500D01*
X159412341Y-106734103D01*
X159412332Y-106734106D01*
X159248459Y-106801983D01*
X159248446Y-106801990D01*
X159100965Y-106900535D01*
X159100961Y-106900538D01*
X158975538Y-107025961D01*
X158975535Y-107025965D01*
X158876990Y-107173446D01*
X158876983Y-107173459D01*
X158809106Y-107337332D01*
X158809103Y-107337341D01*
X158774500Y-107511304D01*
X158774500Y-107688695D01*
X158809103Y-107862658D01*
X158809106Y-107862667D01*
X158876983Y-108026539D01*
X158876989Y-108026550D01*
X158904268Y-108067376D01*
X158925145Y-108134053D01*
X158925165Y-108136112D01*
X158929049Y-111258066D01*
X158909448Y-111325130D01*
X158892730Y-111345901D01*
X157872807Y-112365823D01*
X157811484Y-112399308D01*
X157809319Y-112399759D01*
X157762337Y-112409104D01*
X157762331Y-112409106D01*
X157598459Y-112476983D01*
X157598446Y-112476990D01*
X157450965Y-112575535D01*
X157450961Y-112575538D01*
X157325538Y-112700961D01*
X157325535Y-112700965D01*
X157226990Y-112848446D01*
X157226983Y-112848459D01*
X157159106Y-113012332D01*
X157159103Y-113012341D01*
X157124500Y-113186304D01*
X152951226Y-113186304D01*
X149212784Y-109447863D01*
X149212780Y-109447860D01*
X149048920Y-109338372D01*
X149048910Y-109338367D01*
X148866836Y-109262949D01*
X148866828Y-109262947D01*
X148673543Y-109224500D01*
X148673540Y-109224500D01*
X148476460Y-109224500D01*
X148476457Y-109224500D01*
X148283171Y-109262947D01*
X148283163Y-109262949D01*
X148101089Y-109338367D01*
X148101079Y-109338372D01*
X147937219Y-109447860D01*
X147937215Y-109447863D01*
X147797863Y-109587215D01*
X147797860Y-109587219D01*
X147688372Y-109751079D01*
X147688367Y-109751089D01*
X147612949Y-109933163D01*
X147612947Y-109933171D01*
X147574500Y-110126455D01*
X105664500Y-110126455D01*
X105664500Y-101493713D01*
X116759500Y-101493713D01*
X116759500Y-101706287D01*
X116768943Y-101765910D01*
X116786410Y-101876193D01*
X116792754Y-101916243D01*
X116856743Y-102113181D01*
X116858444Y-102118414D01*
X116954951Y-102307820D01*
X117079890Y-102479786D01*
X117230213Y-102630109D01*
X117402179Y-102755048D01*
X117402181Y-102755049D01*
X117402184Y-102755051D01*
X117591588Y-102851557D01*
X117793757Y-102917246D01*
X118003713Y-102950500D01*
X118003714Y-102950500D01*
X118216286Y-102950500D01*
X118216287Y-102950500D01*
X118426243Y-102917246D01*
X118628412Y-102851557D01*
X118817816Y-102755051D01*
X118904138Y-102692335D01*
X118989786Y-102630109D01*
X118989788Y-102630106D01*
X118989792Y-102630104D01*
X119140104Y-102479792D01*
X119140106Y-102479788D01*
X119140109Y-102479786D01*
X119265048Y-102307820D01*
X119265047Y-102307820D01*
X119265051Y-102307816D01*
X119269514Y-102299054D01*
X119317488Y-102248259D01*
X119385308Y-102231463D01*
X119451444Y-102253999D01*
X119490486Y-102299056D01*
X119494951Y-102307820D01*
X119619890Y-102479786D01*
X119770213Y-102630109D01*
X119942179Y-102755048D01*
X119942181Y-102755049D01*
X119942184Y-102755051D01*
X120131588Y-102851557D01*
X120333757Y-102917246D01*
X120543713Y-102950500D01*
X120543714Y-102950500D01*
X120756286Y-102950500D01*
X120756287Y-102950500D01*
X120966243Y-102917246D01*
X120981840Y-102912177D01*
X121051679Y-102910183D01*
X121107838Y-102942428D01*
X122761016Y-104595606D01*
X122761045Y-104595637D01*
X122851263Y-104685855D01*
X122851267Y-104685858D01*
X122953707Y-104754307D01*
X122953711Y-104754309D01*
X122953714Y-104754311D01*
X123067548Y-104801463D01*
X123127971Y-104813481D01*
X123188393Y-104825500D01*
X152711607Y-104825500D01*
X152772029Y-104813481D01*
X152832452Y-104801463D01*
X152865792Y-104787652D01*
X152946286Y-104754312D01*
X152997509Y-104720084D01*
X153048733Y-104685858D01*
X153135858Y-104598733D01*
X153135859Y-104598731D01*
X153142925Y-104591665D01*
X153142927Y-104591661D01*
X155047771Y-102686819D01*
X155109094Y-102653334D01*
X155135452Y-102650500D01*
X155188693Y-102650500D01*
X155188694Y-102650499D01*
X155246682Y-102638964D01*
X155362658Y-102615896D01*
X155362661Y-102615894D01*
X155362666Y-102615894D01*
X155526547Y-102548013D01*
X155674035Y-102449464D01*
X155799464Y-102324035D01*
X155898013Y-102176547D01*
X155965894Y-102012666D01*
X155980726Y-101938099D01*
X156013109Y-101876193D01*
X156073824Y-101841618D01*
X156143594Y-101845357D01*
X156190023Y-101874613D01*
X157313181Y-102997771D01*
X157346666Y-103059094D01*
X157349500Y-103085452D01*
X157349500Y-103138695D01*
X157384103Y-103312658D01*
X157384106Y-103312667D01*
X157451983Y-103476540D01*
X157451990Y-103476553D01*
X157550535Y-103624034D01*
X157550538Y-103624038D01*
X157675961Y-103749461D01*
X157675965Y-103749464D01*
X157823446Y-103848009D01*
X157823459Y-103848016D01*
X157946363Y-103898923D01*
X157987334Y-103915894D01*
X157987336Y-103915894D01*
X157987341Y-103915896D01*
X158161304Y-103950499D01*
X158161307Y-103950500D01*
X158161309Y-103950500D01*
X158338693Y-103950500D01*
X158338694Y-103950499D01*
X158396682Y-103938964D01*
X158512658Y-103915896D01*
X158512661Y-103915894D01*
X158512666Y-103915894D01*
X158676547Y-103848013D01*
X158824035Y-103749464D01*
X158949464Y-103624035D01*
X159048013Y-103476547D01*
X159115894Y-103312666D01*
X159150500Y-103138691D01*
X159150500Y-102961309D01*
X159150500Y-102961306D01*
X159150499Y-102961304D01*
X159115896Y-102787341D01*
X159115893Y-102787332D01*
X159048016Y-102623459D01*
X159048009Y-102623446D01*
X158949464Y-102475965D01*
X158949461Y-102475961D01*
X158824038Y-102350538D01*
X158824034Y-102350535D01*
X158676553Y-102251990D01*
X158676540Y-102251983D01*
X158512667Y-102184106D01*
X158512658Y-102184103D01*
X158338694Y-102149500D01*
X158338691Y-102149500D01*
X158285453Y-102149500D01*
X158218414Y-102129815D01*
X158197772Y-102113181D01*
X156120822Y-100036232D01*
X156110859Y-100026269D01*
X156110858Y-100026267D01*
X156023733Y-99939142D01*
X155972509Y-99904915D01*
X155921286Y-99870688D01*
X155921283Y-99870686D01*
X155921280Y-99870685D01*
X155847603Y-99840168D01*
X155847601Y-99840167D01*
X155840792Y-99837347D01*
X155807452Y-99823537D01*
X155747029Y-99811518D01*
X155742306Y-99810578D01*
X155742304Y-99810578D01*
X155686610Y-99799500D01*
X155686607Y-99799500D01*
X155686606Y-99799500D01*
X151049361Y-99799500D01*
X150982322Y-99779815D01*
X150961679Y-99763180D01*
X150924038Y-99725538D01*
X150924034Y-99725535D01*
X150776553Y-99626990D01*
X150776540Y-99626983D01*
X150612667Y-99559106D01*
X150612658Y-99559103D01*
X150438694Y-99524500D01*
X150438691Y-99524500D01*
X150261309Y-99524500D01*
X150261306Y-99524500D01*
X150087341Y-99559103D01*
X150087332Y-99559106D01*
X149923459Y-99626983D01*
X149923446Y-99626990D01*
X149775965Y-99725535D01*
X149775961Y-99725538D01*
X149650538Y-99850961D01*
X149650535Y-99850965D01*
X149551990Y-99998446D01*
X149551983Y-99998459D01*
X149484106Y-100162332D01*
X149484103Y-100162341D01*
X149449500Y-100336304D01*
X149449500Y-100513695D01*
X149484103Y-100687658D01*
X149484106Y-100687667D01*
X149551983Y-100851540D01*
X149551990Y-100851553D01*
X149650535Y-100999034D01*
X149650538Y-100999038D01*
X149775961Y-101124461D01*
X149775965Y-101124464D01*
X149923446Y-101223009D01*
X149923459Y-101223016D01*
X150046363Y-101273923D01*
X150087334Y-101290894D01*
X150087336Y-101290894D01*
X150087341Y-101290896D01*
X150261304Y-101325499D01*
X150261307Y-101325500D01*
X150261309Y-101325500D01*
X150438693Y-101325500D01*
X150438694Y-101325499D01*
X150496682Y-101313964D01*
X150612658Y-101290896D01*
X150612661Y-101290894D01*
X150612666Y-101290894D01*
X150776547Y-101223013D01*
X150924035Y-101124464D01*
X150961679Y-101086820D01*
X151023001Y-101053334D01*
X151049361Y-101050500D01*
X154252381Y-101050500D01*
X154319420Y-101070185D01*
X154365175Y-101122989D01*
X154375119Y-101192147D01*
X154355483Y-101243389D01*
X154330467Y-101280829D01*
X154301987Y-101323452D01*
X154301983Y-101323459D01*
X154234106Y-101487332D01*
X154234103Y-101487341D01*
X154199500Y-101661304D01*
X154199500Y-101714548D01*
X154179815Y-101781587D01*
X154163181Y-101802229D01*
X152427229Y-103538181D01*
X152365906Y-103571666D01*
X152339548Y-103574500D01*
X123560452Y-103574500D01*
X123493413Y-103554815D01*
X123472771Y-103538181D01*
X123096771Y-103162181D01*
X123063286Y-103100858D01*
X123068270Y-103031166D01*
X123110142Y-102975233D01*
X123175606Y-102950816D01*
X123184452Y-102950500D01*
X123296286Y-102950500D01*
X123296287Y-102950500D01*
X123506243Y-102917246D01*
X123708412Y-102851557D01*
X123897816Y-102755051D01*
X123984138Y-102692335D01*
X124069786Y-102630109D01*
X124069788Y-102630106D01*
X124069792Y-102630104D01*
X124220104Y-102479792D01*
X124220106Y-102479788D01*
X124220109Y-102479786D01*
X124345048Y-102307820D01*
X124345047Y-102307820D01*
X124345051Y-102307816D01*
X124349514Y-102299054D01*
X124397488Y-102248259D01*
X124465308Y-102231463D01*
X124531444Y-102253999D01*
X124570486Y-102299056D01*
X124574951Y-102307820D01*
X124699890Y-102479786D01*
X124850213Y-102630109D01*
X125022179Y-102755048D01*
X125022181Y-102755049D01*
X125022184Y-102755051D01*
X125211588Y-102851557D01*
X125413757Y-102917246D01*
X125623713Y-102950500D01*
X125623714Y-102950500D01*
X125836286Y-102950500D01*
X125836287Y-102950500D01*
X126046243Y-102917246D01*
X126248412Y-102851557D01*
X126437816Y-102755051D01*
X126524138Y-102692335D01*
X126609786Y-102630109D01*
X126609788Y-102630106D01*
X126609792Y-102630104D01*
X126760104Y-102479792D01*
X126760106Y-102479788D01*
X126760109Y-102479786D01*
X126885048Y-102307820D01*
X126885047Y-102307820D01*
X126885051Y-102307816D01*
X126889514Y-102299054D01*
X126937488Y-102248259D01*
X127005308Y-102231463D01*
X127071444Y-102253999D01*
X127110486Y-102299056D01*
X127114951Y-102307820D01*
X127239890Y-102479786D01*
X127390213Y-102630109D01*
X127562179Y-102755048D01*
X127562181Y-102755049D01*
X127562184Y-102755051D01*
X127751588Y-102851557D01*
X127953757Y-102917246D01*
X128163713Y-102950500D01*
X128163714Y-102950500D01*
X128376286Y-102950500D01*
X128376287Y-102950500D01*
X128586243Y-102917246D01*
X128788412Y-102851557D01*
X128977816Y-102755051D01*
X129064138Y-102692335D01*
X129149786Y-102630109D01*
X129149788Y-102630106D01*
X129149792Y-102630104D01*
X129300104Y-102479792D01*
X129300106Y-102479788D01*
X129300109Y-102479786D01*
X129425048Y-102307820D01*
X129425047Y-102307820D01*
X129425051Y-102307816D01*
X129429514Y-102299054D01*
X129477488Y-102248259D01*
X129545308Y-102231463D01*
X129611444Y-102253999D01*
X129650486Y-102299056D01*
X129654951Y-102307820D01*
X129779890Y-102479786D01*
X129930213Y-102630109D01*
X130102179Y-102755048D01*
X130102181Y-102755049D01*
X130102184Y-102755051D01*
X130291588Y-102851557D01*
X130493757Y-102917246D01*
X130703713Y-102950500D01*
X130703714Y-102950500D01*
X130916286Y-102950500D01*
X130916287Y-102950500D01*
X131126243Y-102917246D01*
X131328412Y-102851557D01*
X131517816Y-102755051D01*
X131604138Y-102692335D01*
X131689786Y-102630109D01*
X131689788Y-102630106D01*
X131689792Y-102630104D01*
X131840104Y-102479792D01*
X131840106Y-102479788D01*
X131840109Y-102479786D01*
X131965048Y-102307820D01*
X131965047Y-102307820D01*
X131965051Y-102307816D01*
X131969514Y-102299054D01*
X132017488Y-102248259D01*
X132085308Y-102231463D01*
X132151444Y-102253999D01*
X132190486Y-102299056D01*
X132194951Y-102307820D01*
X132319890Y-102479786D01*
X132470213Y-102630109D01*
X132642179Y-102755048D01*
X132642181Y-102755049D01*
X132642184Y-102755051D01*
X132831588Y-102851557D01*
X133033757Y-102917246D01*
X133243713Y-102950500D01*
X133243714Y-102950500D01*
X133456286Y-102950500D01*
X133456287Y-102950500D01*
X133666243Y-102917246D01*
X133868412Y-102851557D01*
X134057816Y-102755051D01*
X134144138Y-102692335D01*
X134229786Y-102630109D01*
X134229788Y-102630106D01*
X134229792Y-102630104D01*
X134380104Y-102479792D01*
X134380106Y-102479788D01*
X134380109Y-102479786D01*
X134505048Y-102307820D01*
X134505047Y-102307820D01*
X134505051Y-102307816D01*
X134509514Y-102299054D01*
X134557488Y-102248259D01*
X134625308Y-102231463D01*
X134691444Y-102253999D01*
X134730486Y-102299056D01*
X134734951Y-102307820D01*
X134859890Y-102479786D01*
X135010213Y-102630109D01*
X135182179Y-102755048D01*
X135182181Y-102755049D01*
X135182184Y-102755051D01*
X135371588Y-102851557D01*
X135573757Y-102917246D01*
X135783713Y-102950500D01*
X135783714Y-102950500D01*
X135996286Y-102950500D01*
X135996287Y-102950500D01*
X136206243Y-102917246D01*
X136408412Y-102851557D01*
X136597816Y-102755051D01*
X136684138Y-102692335D01*
X136769786Y-102630109D01*
X136769788Y-102630106D01*
X136769792Y-102630104D01*
X136920104Y-102479792D01*
X136920106Y-102479788D01*
X136920109Y-102479786D01*
X137045048Y-102307820D01*
X137045047Y-102307820D01*
X137045051Y-102307816D01*
X137049514Y-102299054D01*
X137097488Y-102248259D01*
X137165308Y-102231463D01*
X137231444Y-102253999D01*
X137270486Y-102299056D01*
X137274951Y-102307820D01*
X137399890Y-102479786D01*
X137550213Y-102630109D01*
X137722179Y-102755048D01*
X137722181Y-102755049D01*
X137722184Y-102755051D01*
X137911588Y-102851557D01*
X138113757Y-102917246D01*
X138323713Y-102950500D01*
X138323714Y-102950500D01*
X138536286Y-102950500D01*
X138536287Y-102950500D01*
X138746243Y-102917246D01*
X138948412Y-102851557D01*
X139137816Y-102755051D01*
X139224138Y-102692335D01*
X139309786Y-102630109D01*
X139309788Y-102630106D01*
X139309792Y-102630104D01*
X139460104Y-102479792D01*
X139460106Y-102479788D01*
X139460109Y-102479786D01*
X139585048Y-102307820D01*
X139585047Y-102307820D01*
X139585051Y-102307816D01*
X139589514Y-102299054D01*
X139637488Y-102248259D01*
X139705308Y-102231463D01*
X139771444Y-102253999D01*
X139810486Y-102299056D01*
X139814951Y-102307820D01*
X139939890Y-102479786D01*
X140090213Y-102630109D01*
X140262179Y-102755048D01*
X140262181Y-102755049D01*
X140262184Y-102755051D01*
X140451588Y-102851557D01*
X140653757Y-102917246D01*
X140863713Y-102950500D01*
X140863714Y-102950500D01*
X141076286Y-102950500D01*
X141076287Y-102950500D01*
X141286243Y-102917246D01*
X141488412Y-102851557D01*
X141677816Y-102755051D01*
X141764138Y-102692335D01*
X141849786Y-102630109D01*
X141849788Y-102630106D01*
X141849792Y-102630104D01*
X142000104Y-102479792D01*
X142000106Y-102479788D01*
X142000109Y-102479786D01*
X142125048Y-102307820D01*
X142125047Y-102307820D01*
X142125051Y-102307816D01*
X142129514Y-102299054D01*
X142177488Y-102248259D01*
X142245308Y-102231463D01*
X142311444Y-102253999D01*
X142350486Y-102299056D01*
X142354951Y-102307820D01*
X142479890Y-102479786D01*
X142630213Y-102630109D01*
X142802179Y-102755048D01*
X142802181Y-102755049D01*
X142802184Y-102755051D01*
X142991588Y-102851557D01*
X143193757Y-102917246D01*
X143403713Y-102950500D01*
X143403714Y-102950500D01*
X143616286Y-102950500D01*
X143616287Y-102950500D01*
X143826243Y-102917246D01*
X144028412Y-102851557D01*
X144217816Y-102755051D01*
X144311730Y-102686819D01*
X144389784Y-102630110D01*
X144389784Y-102630109D01*
X144389792Y-102630104D01*
X144503329Y-102516566D01*
X144564648Y-102483084D01*
X144634340Y-102488068D01*
X144690274Y-102529939D01*
X144707189Y-102560917D01*
X144756202Y-102692328D01*
X144756206Y-102692335D01*
X144842452Y-102807544D01*
X144842455Y-102807547D01*
X144957664Y-102893793D01*
X144957671Y-102893797D01*
X145092517Y-102944091D01*
X145092516Y-102944091D01*
X145099444Y-102944835D01*
X145152127Y-102950500D01*
X146947872Y-102950499D01*
X147007483Y-102944091D01*
X147142331Y-102893796D01*
X147257546Y-102807546D01*
X147343796Y-102692331D01*
X147394091Y-102557483D01*
X147400500Y-102497873D01*
X147400499Y-100702128D01*
X147394091Y-100642517D01*
X147392810Y-100639083D01*
X147343797Y-100507671D01*
X147343793Y-100507664D01*
X147257547Y-100392455D01*
X147257544Y-100392452D01*
X147142335Y-100306206D01*
X147142328Y-100306202D01*
X147007482Y-100255908D01*
X147007483Y-100255908D01*
X146947883Y-100249501D01*
X146947881Y-100249500D01*
X146947873Y-100249500D01*
X146947864Y-100249500D01*
X145152129Y-100249500D01*
X145152123Y-100249501D01*
X145092516Y-100255908D01*
X144957671Y-100306202D01*
X144957664Y-100306206D01*
X144842455Y-100392452D01*
X144842452Y-100392455D01*
X144756206Y-100507664D01*
X144756203Y-100507669D01*
X144707189Y-100639083D01*
X144665317Y-100695016D01*
X144599853Y-100719433D01*
X144531580Y-100704581D01*
X144503326Y-100683430D01*
X144389786Y-100569890D01*
X144217820Y-100444951D01*
X144028414Y-100348444D01*
X144028413Y-100348443D01*
X144028412Y-100348443D01*
X143826243Y-100282754D01*
X143826241Y-100282753D01*
X143826240Y-100282753D01*
X143664957Y-100257208D01*
X143616287Y-100249500D01*
X143403713Y-100249500D01*
X143355042Y-100257208D01*
X143193760Y-100282753D01*
X142991585Y-100348444D01*
X142802179Y-100444951D01*
X142630213Y-100569890D01*
X142479890Y-100720213D01*
X142354949Y-100892182D01*
X142350484Y-100900946D01*
X142302509Y-100951742D01*
X142234688Y-100968536D01*
X142168553Y-100945998D01*
X142129516Y-100900946D01*
X142125050Y-100892182D01*
X142000109Y-100720213D01*
X141849786Y-100569890D01*
X141677820Y-100444951D01*
X141488414Y-100348444D01*
X141488413Y-100348443D01*
X141488412Y-100348443D01*
X141286243Y-100282754D01*
X141286241Y-100282753D01*
X141286240Y-100282753D01*
X141124957Y-100257208D01*
X141076287Y-100249500D01*
X140863713Y-100249500D01*
X140815042Y-100257208D01*
X140653760Y-100282753D01*
X140451585Y-100348444D01*
X140262179Y-100444951D01*
X140090213Y-100569890D01*
X139939890Y-100720213D01*
X139814949Y-100892182D01*
X139810484Y-100900946D01*
X139762509Y-100951742D01*
X139694688Y-100968536D01*
X139628553Y-100945998D01*
X139589516Y-100900946D01*
X139585050Y-100892182D01*
X139460109Y-100720213D01*
X139309786Y-100569890D01*
X139137820Y-100444951D01*
X138948414Y-100348444D01*
X138948413Y-100348443D01*
X138948412Y-100348443D01*
X138746243Y-100282754D01*
X138746241Y-100282753D01*
X138746240Y-100282753D01*
X138584957Y-100257208D01*
X138536287Y-100249500D01*
X138424451Y-100249500D01*
X138357412Y-100229815D01*
X138311657Y-100177011D01*
X138301713Y-100107853D01*
X138330738Y-100044297D01*
X138336770Y-100037819D01*
X139812771Y-98561819D01*
X139874094Y-98528334D01*
X139900452Y-98525500D01*
X151775639Y-98525500D01*
X151842678Y-98545185D01*
X151863321Y-98561820D01*
X151900961Y-98599461D01*
X151900965Y-98599464D01*
X152048446Y-98698009D01*
X152048459Y-98698016D01*
X152171363Y-98748923D01*
X152212334Y-98765894D01*
X152212336Y-98765894D01*
X152212341Y-98765896D01*
X152386304Y-98800499D01*
X152386307Y-98800500D01*
X152386309Y-98800500D01*
X152563693Y-98800500D01*
X152563694Y-98800499D01*
X152621682Y-98788964D01*
X152737658Y-98765896D01*
X152737661Y-98765894D01*
X152737666Y-98765894D01*
X152901547Y-98698013D01*
X153049035Y-98599464D01*
X153174464Y-98474035D01*
X153273013Y-98326547D01*
X153340894Y-98162666D01*
X153375500Y-97988691D01*
X153375500Y-97811309D01*
X153375500Y-97811306D01*
X153375499Y-97811304D01*
X153340896Y-97637341D01*
X153340893Y-97637332D01*
X153273016Y-97473459D01*
X153273009Y-97473446D01*
X153174464Y-97325965D01*
X153174461Y-97325961D01*
X153049038Y-97200538D01*
X153049034Y-97200535D01*
X152901553Y-97101990D01*
X152901540Y-97101983D01*
X152737667Y-97034106D01*
X152737658Y-97034103D01*
X152563694Y-96999500D01*
X152563691Y-96999500D01*
X152386309Y-96999500D01*
X152386306Y-96999500D01*
X152212341Y-97034103D01*
X152212332Y-97034106D01*
X152048459Y-97101983D01*
X152048446Y-97101990D01*
X151900965Y-97200535D01*
X151900961Y-97200538D01*
X151863321Y-97238180D01*
X151801999Y-97271666D01*
X151775639Y-97274500D01*
X139528389Y-97274500D01*
X139467971Y-97286518D01*
X139424743Y-97295116D01*
X139407546Y-97298537D01*
X139293716Y-97345687D01*
X139293707Y-97345692D01*
X139191268Y-97414140D01*
X139147705Y-97457703D01*
X139104142Y-97501267D01*
X139104139Y-97501270D01*
X136347837Y-100257571D01*
X136286514Y-100291056D01*
X136221838Y-100287821D01*
X136214219Y-100285345D01*
X136206241Y-100282753D01*
X136035797Y-100255757D01*
X135996287Y-100249500D01*
X135783713Y-100249500D01*
X135735042Y-100257208D01*
X135573760Y-100282753D01*
X135371585Y-100348444D01*
X135182179Y-100444951D01*
X135010213Y-100569890D01*
X134859890Y-100720213D01*
X134734949Y-100892182D01*
X134730484Y-100900946D01*
X134682509Y-100951742D01*
X134614688Y-100968536D01*
X134548553Y-100945998D01*
X134509516Y-100900946D01*
X134505050Y-100892182D01*
X134380109Y-100720213D01*
X134229786Y-100569890D01*
X134057820Y-100444951D01*
X133868414Y-100348444D01*
X133868413Y-100348443D01*
X133868412Y-100348443D01*
X133666243Y-100282754D01*
X133666241Y-100282753D01*
X133666240Y-100282753D01*
X133504957Y-100257208D01*
X133456287Y-100249500D01*
X133243713Y-100249500D01*
X133195042Y-100257208D01*
X133033760Y-100282753D01*
X132831585Y-100348444D01*
X132642179Y-100444951D01*
X132470213Y-100569890D01*
X132319890Y-100720213D01*
X132194949Y-100892182D01*
X132190484Y-100900946D01*
X132142509Y-100951742D01*
X132074688Y-100968536D01*
X132008553Y-100945998D01*
X131969516Y-100900946D01*
X131965050Y-100892182D01*
X131840109Y-100720213D01*
X131689786Y-100569890D01*
X131517820Y-100444951D01*
X131328414Y-100348444D01*
X131328413Y-100348443D01*
X131328412Y-100348443D01*
X131126243Y-100282754D01*
X131126241Y-100282753D01*
X131126240Y-100282753D01*
X130964957Y-100257208D01*
X130916287Y-100249500D01*
X130703713Y-100249500D01*
X130655042Y-100257208D01*
X130493760Y-100282753D01*
X130291585Y-100348444D01*
X130102179Y-100444951D01*
X129930213Y-100569890D01*
X129779890Y-100720213D01*
X129654949Y-100892182D01*
X129650484Y-100900946D01*
X129602509Y-100951742D01*
X129534688Y-100968536D01*
X129468553Y-100945998D01*
X129429516Y-100900946D01*
X129425050Y-100892182D01*
X129300109Y-100720213D01*
X129149786Y-100569890D01*
X128977820Y-100444951D01*
X128788414Y-100348444D01*
X128788413Y-100348443D01*
X128788412Y-100348443D01*
X128586243Y-100282754D01*
X128586241Y-100282753D01*
X128586240Y-100282753D01*
X128424957Y-100257208D01*
X128376287Y-100249500D01*
X128163713Y-100249500D01*
X128115042Y-100257208D01*
X127953760Y-100282753D01*
X127751585Y-100348444D01*
X127562179Y-100444951D01*
X127390213Y-100569890D01*
X127239890Y-100720213D01*
X127114949Y-100892182D01*
X127110484Y-100900946D01*
X127062509Y-100951742D01*
X126994688Y-100968536D01*
X126928553Y-100945998D01*
X126889516Y-100900946D01*
X126885050Y-100892182D01*
X126760109Y-100720213D01*
X126609786Y-100569890D01*
X126437820Y-100444951D01*
X126248414Y-100348444D01*
X126248413Y-100348443D01*
X126248412Y-100348443D01*
X126046243Y-100282754D01*
X126046241Y-100282753D01*
X126046240Y-100282753D01*
X125884957Y-100257208D01*
X125836287Y-100249500D01*
X125623713Y-100249500D01*
X125575042Y-100257208D01*
X125413760Y-100282753D01*
X125211585Y-100348444D01*
X125022179Y-100444951D01*
X124850213Y-100569890D01*
X124699890Y-100720213D01*
X124574949Y-100892182D01*
X124570484Y-100900946D01*
X124522509Y-100951742D01*
X124454688Y-100968536D01*
X124388553Y-100945998D01*
X124349516Y-100900946D01*
X124345050Y-100892182D01*
X124220109Y-100720213D01*
X124069786Y-100569890D01*
X123897820Y-100444951D01*
X123708414Y-100348444D01*
X123708413Y-100348443D01*
X123708412Y-100348443D01*
X123506243Y-100282754D01*
X123506241Y-100282753D01*
X123506240Y-100282753D01*
X123344957Y-100257208D01*
X123296287Y-100249500D01*
X123083713Y-100249500D01*
X123035042Y-100257208D01*
X122873760Y-100282753D01*
X122671585Y-100348444D01*
X122482179Y-100444951D01*
X122310213Y-100569890D01*
X122159890Y-100720213D01*
X122034949Y-100892182D01*
X122030484Y-100900946D01*
X121982509Y-100951742D01*
X121914688Y-100968536D01*
X121848553Y-100945998D01*
X121809516Y-100900946D01*
X121805050Y-100892182D01*
X121680109Y-100720213D01*
X121529786Y-100569890D01*
X121357820Y-100444951D01*
X121168414Y-100348444D01*
X121168413Y-100348443D01*
X121168412Y-100348443D01*
X120966243Y-100282754D01*
X120966241Y-100282753D01*
X120966240Y-100282753D01*
X120804957Y-100257208D01*
X120756287Y-100249500D01*
X120543713Y-100249500D01*
X120495042Y-100257208D01*
X120333760Y-100282753D01*
X120131585Y-100348444D01*
X119942179Y-100444951D01*
X119770213Y-100569890D01*
X119619890Y-100720213D01*
X119494949Y-100892182D01*
X119490484Y-100900946D01*
X119442509Y-100951742D01*
X119374688Y-100968536D01*
X119308553Y-100945998D01*
X119269516Y-100900946D01*
X119265050Y-100892182D01*
X119140109Y-100720213D01*
X118989786Y-100569890D01*
X118817820Y-100444951D01*
X118628414Y-100348444D01*
X118628413Y-100348443D01*
X118628412Y-100348443D01*
X118426243Y-100282754D01*
X118426241Y-100282753D01*
X118426240Y-100282753D01*
X118264957Y-100257208D01*
X118216287Y-100249500D01*
X118003713Y-100249500D01*
X117955042Y-100257208D01*
X117793760Y-100282753D01*
X117591585Y-100348444D01*
X117402179Y-100444951D01*
X117230213Y-100569890D01*
X117079890Y-100720213D01*
X116954951Y-100892179D01*
X116858444Y-101081585D01*
X116792753Y-101283760D01*
X116760511Y-101487332D01*
X116759500Y-101493713D01*
X105664500Y-101493713D01*
X105664500Y-99243713D01*
X107399500Y-99243713D01*
X107399500Y-99456286D01*
X107415784Y-99559103D01*
X107432754Y-99666243D01*
X107488349Y-99837347D01*
X107498444Y-99868414D01*
X107594951Y-100057820D01*
X107719890Y-100229786D01*
X107870213Y-100380109D01*
X108042179Y-100505048D01*
X108042181Y-100505049D01*
X108042184Y-100505051D01*
X108231588Y-100601557D01*
X108433757Y-100667246D01*
X108643713Y-100700500D01*
X108643714Y-100700500D01*
X108856286Y-100700500D01*
X108856287Y-100700500D01*
X109066243Y-100667246D01*
X109268412Y-100601557D01*
X109457816Y-100505051D01*
X109540540Y-100444949D01*
X109629786Y-100380109D01*
X109629788Y-100380106D01*
X109629792Y-100380104D01*
X109780104Y-100229792D01*
X109780106Y-100229788D01*
X109780109Y-100229786D01*
X109905048Y-100057820D01*
X109905047Y-100057820D01*
X109905051Y-100057816D01*
X110001557Y-99868412D01*
X110067246Y-99666243D01*
X110100500Y-99456287D01*
X110100500Y-99243713D01*
X110067246Y-99033757D01*
X110001557Y-98831588D01*
X109905051Y-98642184D01*
X109905049Y-98642181D01*
X109905048Y-98642179D01*
X109780109Y-98470213D01*
X109629786Y-98319890D01*
X109457820Y-98194951D01*
X109268414Y-98098444D01*
X109268413Y-98098443D01*
X109268412Y-98098443D01*
X109066243Y-98032754D01*
X109066241Y-98032753D01*
X109066240Y-98032753D01*
X108904957Y-98007208D01*
X108856287Y-97999500D01*
X108643713Y-97999500D01*
X108595042Y-98007208D01*
X108433760Y-98032753D01*
X108231585Y-98098444D01*
X108042179Y-98194951D01*
X107870213Y-98319890D01*
X107719890Y-98470213D01*
X107594951Y-98642179D01*
X107498444Y-98831585D01*
X107432753Y-99033760D01*
X107399500Y-99243713D01*
X105664500Y-99243713D01*
X105664500Y-96390500D01*
X105684185Y-96323461D01*
X105736989Y-96277706D01*
X105788500Y-96266500D01*
X162003700Y-96266500D01*
X162070739Y-96286185D01*
G37*
%TD.AperFunction*%
%TD*%
M02*
