M48
; DRILL file KiCad 10.0.3 date 2026-07-27T10:38:11
; FORMAT={-:-/ absolute / metric / decimal}
; #@! TF.CreationDate,2026-07-27T10:38:11+01:00
; #@! TF.GenerationSoftware,Kicad,Pcbnew,10.0.3
; #@! TF.FileFunction,Plated,1,2,PTH
FMAT,2
METRIC
; #@! TA.AperFunction,Plated,PTH,ViaDrill
T1C0.400
; #@! TA.AperFunction,Plated,PTH,ComponentDrill
T2C1.000
%
G90
G05
T1
X148.575Y-110.225
X150.35Y-100.425
X152.475Y-97.9
X154.55Y-114.025
X154.6Y-116.25
X154.675Y-99.275
X155.1Y-101.75
X158.025Y-113.275
X158.25Y-103.05
X159.675Y-107.6
T2
X107.95Y-121.92
X110.49Y-121.92
X113.03Y-121.92
X115.57Y-121.92
X118.11Y-101.6
X118.11Y-121.92
X120.65Y-101.6
X120.65Y-121.92
X123.19Y-101.6
X123.19Y-121.92
X125.73Y-101.6
X125.73Y-121.92
X128.27Y-101.6
X128.27Y-121.92
X130.81Y-101.6
X130.81Y-121.92
X133.35Y-101.6
X133.35Y-121.92
X135.89Y-101.6
X135.89Y-121.92
X138.43Y-101.6
X138.43Y-121.92
X140.97Y-101.6
X140.97Y-121.92
X143.51Y-101.6
X143.51Y-121.92
X146.05Y-101.6
X146.05Y-121.92
M30
