%TF.GenerationSoftware,KiCad,Pcbnew,9.0.4*%
%TF.CreationDate,2025-11-17T08:26:25+00:00*%
%TF.ProjectId,MRF-Pro-v7.5,4d52462d-5072-46f2-9d76-372e352e6b69,rev?*%
%TF.SameCoordinates,Original*%
%TF.FileFunction,Legend,Top*%
%TF.FilePolarity,Positive*%
%FSLAX46Y46*%
G04 Gerber Fmt 4.6, Leading zero omitted, Abs format (unit mm)*
G04 Created by KiCad (PCBNEW 9.0.4) date 2025-11-17 08:26:25*
%MOMM*%
%LPD*%
G01*
G04 APERTURE LIST*
%ADD10C,0.120000*%
G04 APERTURE END LIST*
D10*
%TO.C,J2*%
X116780000Y-100270000D02*
X116780000Y-102930000D01*
X144780000Y-100270000D02*
X116780000Y-100270000D01*
X144780000Y-100270000D02*
X144780000Y-102930000D01*
X144780000Y-102930000D02*
X116780000Y-102930000D01*
X146050000Y-100270000D02*
X147380000Y-100270000D01*
X147380000Y-100270000D02*
X147380000Y-101600000D01*
%TO.C,J4*%
X157887800Y-97505400D02*
X157887800Y-98555400D01*
X157887800Y-98555400D02*
X156897800Y-98555400D01*
X157887800Y-107725400D02*
X157887800Y-106675400D01*
X159037800Y-97505400D02*
X157887800Y-97505400D01*
X159037800Y-107725400D02*
X157887800Y-107725400D01*
X161007800Y-98675400D02*
X161007800Y-106555400D01*
%TO.C,J1*%
X106620000Y-123250000D02*
X106620000Y-121920000D01*
X107950000Y-123250000D02*
X106620000Y-123250000D01*
X109220000Y-120590000D02*
X147380000Y-120590000D01*
X109220000Y-123250000D02*
X109220000Y-120590000D01*
X109220000Y-123250000D02*
X147380000Y-123250000D01*
X147380000Y-123250000D02*
X147380000Y-120590000D01*
%TO.C,J3*%
X156834000Y-115561600D02*
X156834000Y-115961600D01*
X156834000Y-115961600D02*
X157234000Y-115761600D01*
X157234000Y-115761600D02*
X156834000Y-115561600D01*
X159424000Y-109186600D02*
X160024000Y-109186600D01*
X159424000Y-109296600D02*
X159424000Y-109186600D01*
X159424000Y-118726600D02*
X159424000Y-118836600D01*
X159424000Y-118836600D02*
X160024000Y-118836600D01*
%TD*%
M02*
