M48
; DRILL file {KiCad 9.0.4} date 2025-11-17T08:26:22+0000
; FORMAT={-:-/ absolute / inch / decimal}
; #@! TF.CreationDate,2025-11-17T08:26:22+00:00
; #@! TF.GenerationSoftware,Kicad,Pcbnew,9.0.4
; #@! TF.FileFunction,Plated,1,2,PTH
FMAT,2
INCH
; #@! TA.AperFunction,Plated,PTH,ViaDrill
T1C0.0157
; #@! TA.AperFunction,Plated,PTH,ComponentDrill
T2C0.0394
%
G90
G05
T1
X5.811Y-4.588
X5.82Y-4.1
X5.915Y-4.06
X6.01Y-4.02
X6.07Y-4.691
X6.2067Y-4.5126
X6.2076Y-3.9803
T2
X4.25Y-4.8
X4.35Y-4.8
X4.45Y-4.8
X4.55Y-4.8
X4.65Y-4.0
X4.65Y-4.8
X4.75Y-4.0
X4.75Y-4.8
X4.85Y-4.0
X4.85Y-4.8
X4.95Y-4.0
X4.95Y-4.8
X5.05Y-4.0
X5.05Y-4.8
X5.15Y-4.0
X5.15Y-4.8
X5.25Y-4.0
X5.25Y-4.8
X5.35Y-4.0
X5.35Y-4.8
X5.45Y-4.0
X5.45Y-4.8
X5.55Y-4.0
X5.55Y-4.8
X5.65Y-4.0
X5.65Y-4.8
X5.75Y-4.0
X5.75Y-4.8
M30
