%TF.GenerationSoftware,KiCad,Pcbnew,9.0.4*%
%TF.CreationDate,2025-11-17T08:26:22+00:00*%
%TF.ProjectId,MRF-Pro-v7.5,4d52462d-5072-46f2-9d76-372e352e6b69,rev?*%
%TF.SameCoordinates,Original*%
%TF.FileFunction,Drillmap*%
%TF.FilePolarity,Positive*%
%FSLAX45Y45*%
G04 Gerber Fmt 4.5, Leading zero omitted, Abs format (unit mm)*
G04 Created by KiCad (PCBNEW 9.0.4) date 2025-11-17 08:26:22*
%MOMM*%
%LPD*%
G01*
G04 APERTURE LIST*
%ADD10C,0.200000*%
%ADD11C,0.220000*%
G04 APERTURE END LIST*
D10*
X10566400Y-9626600D02*
X16212820Y-9626600D01*
X16212820Y-12499340D01*
X10566400Y-12499340D01*
X10566400Y-9626600D01*
D11*
X10768820Y-9826480D02*
X10988820Y-10046480D01*
X10988820Y-9826480D02*
X10768820Y-10046480D01*
X15815800Y-12109940D02*
X16035800Y-12329940D01*
X16035800Y-12109940D02*
X15815800Y-12329940D01*
D10*
X10817177Y-12820824D02*
X10817177Y-12620824D01*
X10817177Y-12620824D02*
X10864796Y-12620824D01*
X10864796Y-12620824D02*
X10893367Y-12630348D01*
X10893367Y-12630348D02*
X10912415Y-12649395D01*
X10912415Y-12649395D02*
X10921939Y-12668443D01*
X10921939Y-12668443D02*
X10931463Y-12706538D01*
X10931463Y-12706538D02*
X10931463Y-12735109D01*
X10931463Y-12735109D02*
X10921939Y-12773205D01*
X10921939Y-12773205D02*
X10912415Y-12792252D01*
X10912415Y-12792252D02*
X10893367Y-12811300D01*
X10893367Y-12811300D02*
X10864796Y-12820824D01*
X10864796Y-12820824D02*
X10817177Y-12820824D01*
X11017177Y-12820824D02*
X11017177Y-12687490D01*
X11017177Y-12725586D02*
X11026701Y-12706538D01*
X11026701Y-12706538D02*
X11036224Y-12697014D01*
X11036224Y-12697014D02*
X11055272Y-12687490D01*
X11055272Y-12687490D02*
X11074320Y-12687490D01*
X11140986Y-12820824D02*
X11140986Y-12687490D01*
X11140986Y-12620824D02*
X11131463Y-12630348D01*
X11131463Y-12630348D02*
X11140986Y-12639871D01*
X11140986Y-12639871D02*
X11150510Y-12630348D01*
X11150510Y-12630348D02*
X11140986Y-12620824D01*
X11140986Y-12620824D02*
X11140986Y-12639871D01*
X11264796Y-12820824D02*
X11245748Y-12811300D01*
X11245748Y-12811300D02*
X11236224Y-12792252D01*
X11236224Y-12792252D02*
X11236224Y-12620824D01*
X11369558Y-12820824D02*
X11350510Y-12811300D01*
X11350510Y-12811300D02*
X11340986Y-12792252D01*
X11340986Y-12792252D02*
X11340986Y-12620824D01*
X11598129Y-12820824D02*
X11598129Y-12620824D01*
X11598129Y-12620824D02*
X11664796Y-12763681D01*
X11664796Y-12763681D02*
X11731462Y-12620824D01*
X11731462Y-12620824D02*
X11731462Y-12820824D01*
X11912415Y-12820824D02*
X11912415Y-12716062D01*
X11912415Y-12716062D02*
X11902891Y-12697014D01*
X11902891Y-12697014D02*
X11883843Y-12687490D01*
X11883843Y-12687490D02*
X11845748Y-12687490D01*
X11845748Y-12687490D02*
X11826701Y-12697014D01*
X11912415Y-12811300D02*
X11893367Y-12820824D01*
X11893367Y-12820824D02*
X11845748Y-12820824D01*
X11845748Y-12820824D02*
X11826701Y-12811300D01*
X11826701Y-12811300D02*
X11817177Y-12792252D01*
X11817177Y-12792252D02*
X11817177Y-12773205D01*
X11817177Y-12773205D02*
X11826701Y-12754157D01*
X11826701Y-12754157D02*
X11845748Y-12744633D01*
X11845748Y-12744633D02*
X11893367Y-12744633D01*
X11893367Y-12744633D02*
X11912415Y-12735109D01*
X12007653Y-12687490D02*
X12007653Y-12887490D01*
X12007653Y-12697014D02*
X12026701Y-12687490D01*
X12026701Y-12687490D02*
X12064796Y-12687490D01*
X12064796Y-12687490D02*
X12083843Y-12697014D01*
X12083843Y-12697014D02*
X12093367Y-12706538D01*
X12093367Y-12706538D02*
X12102891Y-12725586D01*
X12102891Y-12725586D02*
X12102891Y-12782728D01*
X12102891Y-12782728D02*
X12093367Y-12801776D01*
X12093367Y-12801776D02*
X12083843Y-12811300D01*
X12083843Y-12811300D02*
X12064796Y-12820824D01*
X12064796Y-12820824D02*
X12026701Y-12820824D01*
X12026701Y-12820824D02*
X12007653Y-12811300D01*
X12188605Y-12801776D02*
X12198129Y-12811300D01*
X12198129Y-12811300D02*
X12188605Y-12820824D01*
X12188605Y-12820824D02*
X12179082Y-12811300D01*
X12179082Y-12811300D02*
X12188605Y-12801776D01*
X12188605Y-12801776D02*
X12188605Y-12820824D01*
X12188605Y-12697014D02*
X12198129Y-12706538D01*
X12198129Y-12706538D02*
X12188605Y-12716062D01*
X12188605Y-12716062D02*
X12179082Y-12706538D01*
X12179082Y-12706538D02*
X12188605Y-12697014D01*
X12188605Y-12697014D02*
X12188605Y-12716062D01*
X10356400Y-13049340D02*
X10556400Y-13249340D01*
X10556400Y-13049340D02*
X10356400Y-13249340D01*
X10807653Y-13059871D02*
X10817177Y-13050348D01*
X10817177Y-13050348D02*
X10836224Y-13040824D01*
X10836224Y-13040824D02*
X10883844Y-13040824D01*
X10883844Y-13040824D02*
X10902891Y-13050348D01*
X10902891Y-13050348D02*
X10912415Y-13059871D01*
X10912415Y-13059871D02*
X10921939Y-13078919D01*
X10921939Y-13078919D02*
X10921939Y-13097967D01*
X10921939Y-13097967D02*
X10912415Y-13126538D01*
X10912415Y-13126538D02*
X10798129Y-13240824D01*
X10798129Y-13240824D02*
X10921939Y-13240824D01*
X11007653Y-13221776D02*
X11017177Y-13231300D01*
X11017177Y-13231300D02*
X11007653Y-13240824D01*
X11007653Y-13240824D02*
X10998129Y-13231300D01*
X10998129Y-13231300D02*
X11007653Y-13221776D01*
X11007653Y-13221776D02*
X11007653Y-13240824D01*
X11093367Y-13059871D02*
X11102891Y-13050348D01*
X11102891Y-13050348D02*
X11121939Y-13040824D01*
X11121939Y-13040824D02*
X11169558Y-13040824D01*
X11169558Y-13040824D02*
X11188605Y-13050348D01*
X11188605Y-13050348D02*
X11198129Y-13059871D01*
X11198129Y-13059871D02*
X11207653Y-13078919D01*
X11207653Y-13078919D02*
X11207653Y-13097967D01*
X11207653Y-13097967D02*
X11198129Y-13126538D01*
X11198129Y-13126538D02*
X11083844Y-13240824D01*
X11083844Y-13240824D02*
X11207653Y-13240824D01*
X11331462Y-13040824D02*
X11350510Y-13040824D01*
X11350510Y-13040824D02*
X11369558Y-13050348D01*
X11369558Y-13050348D02*
X11379082Y-13059871D01*
X11379082Y-13059871D02*
X11388605Y-13078919D01*
X11388605Y-13078919D02*
X11398129Y-13117014D01*
X11398129Y-13117014D02*
X11398129Y-13164633D01*
X11398129Y-13164633D02*
X11388605Y-13202728D01*
X11388605Y-13202728D02*
X11379082Y-13221776D01*
X11379082Y-13221776D02*
X11369558Y-13231300D01*
X11369558Y-13231300D02*
X11350510Y-13240824D01*
X11350510Y-13240824D02*
X11331462Y-13240824D01*
X11331462Y-13240824D02*
X11312415Y-13231300D01*
X11312415Y-13231300D02*
X11302891Y-13221776D01*
X11302891Y-13221776D02*
X11293367Y-13202728D01*
X11293367Y-13202728D02*
X11283843Y-13164633D01*
X11283843Y-13164633D02*
X11283843Y-13117014D01*
X11283843Y-13117014D02*
X11293367Y-13078919D01*
X11293367Y-13078919D02*
X11302891Y-13059871D01*
X11302891Y-13059871D02*
X11312415Y-13050348D01*
X11312415Y-13050348D02*
X11331462Y-13040824D01*
X11521939Y-13040824D02*
X11540986Y-13040824D01*
X11540986Y-13040824D02*
X11560034Y-13050348D01*
X11560034Y-13050348D02*
X11569558Y-13059871D01*
X11569558Y-13059871D02*
X11579082Y-13078919D01*
X11579082Y-13078919D02*
X11588605Y-13117014D01*
X11588605Y-13117014D02*
X11588605Y-13164633D01*
X11588605Y-13164633D02*
X11579082Y-13202728D01*
X11579082Y-13202728D02*
X11569558Y-13221776D01*
X11569558Y-13221776D02*
X11560034Y-13231300D01*
X11560034Y-13231300D02*
X11540986Y-13240824D01*
X11540986Y-13240824D02*
X11521939Y-13240824D01*
X11521939Y-13240824D02*
X11502891Y-13231300D01*
X11502891Y-13231300D02*
X11493367Y-13221776D01*
X11493367Y-13221776D02*
X11483843Y-13202728D01*
X11483843Y-13202728D02*
X11474320Y-13164633D01*
X11474320Y-13164633D02*
X11474320Y-13117014D01*
X11474320Y-13117014D02*
X11483843Y-13078919D01*
X11483843Y-13078919D02*
X11493367Y-13059871D01*
X11493367Y-13059871D02*
X11502891Y-13050348D01*
X11502891Y-13050348D02*
X11521939Y-13040824D01*
X11674320Y-13240824D02*
X11674320Y-13107490D01*
X11674320Y-13126538D02*
X11683843Y-13117014D01*
X11683843Y-13117014D02*
X11702891Y-13107490D01*
X11702891Y-13107490D02*
X11731463Y-13107490D01*
X11731463Y-13107490D02*
X11750510Y-13117014D01*
X11750510Y-13117014D02*
X11760034Y-13136062D01*
X11760034Y-13136062D02*
X11760034Y-13240824D01*
X11760034Y-13136062D02*
X11769558Y-13117014D01*
X11769558Y-13117014D02*
X11788605Y-13107490D01*
X11788605Y-13107490D02*
X11817177Y-13107490D01*
X11817177Y-13107490D02*
X11836224Y-13117014D01*
X11836224Y-13117014D02*
X11845748Y-13136062D01*
X11845748Y-13136062D02*
X11845748Y-13240824D01*
X11940986Y-13240824D02*
X11940986Y-13107490D01*
X11940986Y-13126538D02*
X11950510Y-13117014D01*
X11950510Y-13117014D02*
X11969558Y-13107490D01*
X11969558Y-13107490D02*
X11998129Y-13107490D01*
X11998129Y-13107490D02*
X12017177Y-13117014D01*
X12017177Y-13117014D02*
X12026701Y-13136062D01*
X12026701Y-13136062D02*
X12026701Y-13240824D01*
X12026701Y-13136062D02*
X12036224Y-13117014D01*
X12036224Y-13117014D02*
X12055272Y-13107490D01*
X12055272Y-13107490D02*
X12083843Y-13107490D01*
X12083843Y-13107490D02*
X12102891Y-13117014D01*
X12102891Y-13117014D02*
X12112415Y-13136062D01*
X12112415Y-13136062D02*
X12112415Y-13240824D01*
X12502891Y-13031300D02*
X12331463Y-13288443D01*
X12760034Y-13040824D02*
X12779082Y-13040824D01*
X12779082Y-13040824D02*
X12798129Y-13050348D01*
X12798129Y-13050348D02*
X12807653Y-13059871D01*
X12807653Y-13059871D02*
X12817177Y-13078919D01*
X12817177Y-13078919D02*
X12826701Y-13117014D01*
X12826701Y-13117014D02*
X12826701Y-13164633D01*
X12826701Y-13164633D02*
X12817177Y-13202728D01*
X12817177Y-13202728D02*
X12807653Y-13221776D01*
X12807653Y-13221776D02*
X12798129Y-13231300D01*
X12798129Y-13231300D02*
X12779082Y-13240824D01*
X12779082Y-13240824D02*
X12760034Y-13240824D01*
X12760034Y-13240824D02*
X12740986Y-13231300D01*
X12740986Y-13231300D02*
X12731463Y-13221776D01*
X12731463Y-13221776D02*
X12721939Y-13202728D01*
X12721939Y-13202728D02*
X12712415Y-13164633D01*
X12712415Y-13164633D02*
X12712415Y-13117014D01*
X12712415Y-13117014D02*
X12721939Y-13078919D01*
X12721939Y-13078919D02*
X12731463Y-13059871D01*
X12731463Y-13059871D02*
X12740986Y-13050348D01*
X12740986Y-13050348D02*
X12760034Y-13040824D01*
X12912415Y-13221776D02*
X12921939Y-13231300D01*
X12921939Y-13231300D02*
X12912415Y-13240824D01*
X12912415Y-13240824D02*
X12902891Y-13231300D01*
X12902891Y-13231300D02*
X12912415Y-13221776D01*
X12912415Y-13221776D02*
X12912415Y-13240824D01*
X13045748Y-13040824D02*
X13064796Y-13040824D01*
X13064796Y-13040824D02*
X13083844Y-13050348D01*
X13083844Y-13050348D02*
X13093367Y-13059871D01*
X13093367Y-13059871D02*
X13102891Y-13078919D01*
X13102891Y-13078919D02*
X13112415Y-13117014D01*
X13112415Y-13117014D02*
X13112415Y-13164633D01*
X13112415Y-13164633D02*
X13102891Y-13202728D01*
X13102891Y-13202728D02*
X13093367Y-13221776D01*
X13093367Y-13221776D02*
X13083844Y-13231300D01*
X13083844Y-13231300D02*
X13064796Y-13240824D01*
X13064796Y-13240824D02*
X13045748Y-13240824D01*
X13045748Y-13240824D02*
X13026701Y-13231300D01*
X13026701Y-13231300D02*
X13017177Y-13221776D01*
X13017177Y-13221776D02*
X13007653Y-13202728D01*
X13007653Y-13202728D02*
X12998129Y-13164633D01*
X12998129Y-13164633D02*
X12998129Y-13117014D01*
X12998129Y-13117014D02*
X13007653Y-13078919D01*
X13007653Y-13078919D02*
X13017177Y-13059871D01*
X13017177Y-13059871D02*
X13026701Y-13050348D01*
X13026701Y-13050348D02*
X13045748Y-13040824D01*
X13226701Y-13126538D02*
X13207653Y-13117014D01*
X13207653Y-13117014D02*
X13198129Y-13107490D01*
X13198129Y-13107490D02*
X13188606Y-13088443D01*
X13188606Y-13088443D02*
X13188606Y-13078919D01*
X13188606Y-13078919D02*
X13198129Y-13059871D01*
X13198129Y-13059871D02*
X13207653Y-13050348D01*
X13207653Y-13050348D02*
X13226701Y-13040824D01*
X13226701Y-13040824D02*
X13264796Y-13040824D01*
X13264796Y-13040824D02*
X13283844Y-13050348D01*
X13283844Y-13050348D02*
X13293367Y-13059871D01*
X13293367Y-13059871D02*
X13302891Y-13078919D01*
X13302891Y-13078919D02*
X13302891Y-13088443D01*
X13302891Y-13088443D02*
X13293367Y-13107490D01*
X13293367Y-13107490D02*
X13283844Y-13117014D01*
X13283844Y-13117014D02*
X13264796Y-13126538D01*
X13264796Y-13126538D02*
X13226701Y-13126538D01*
X13226701Y-13126538D02*
X13207653Y-13136062D01*
X13207653Y-13136062D02*
X13198129Y-13145586D01*
X13198129Y-13145586D02*
X13188606Y-13164633D01*
X13188606Y-13164633D02*
X13188606Y-13202728D01*
X13188606Y-13202728D02*
X13198129Y-13221776D01*
X13198129Y-13221776D02*
X13207653Y-13231300D01*
X13207653Y-13231300D02*
X13226701Y-13240824D01*
X13226701Y-13240824D02*
X13264796Y-13240824D01*
X13264796Y-13240824D02*
X13283844Y-13231300D01*
X13283844Y-13231300D02*
X13293367Y-13221776D01*
X13293367Y-13221776D02*
X13302891Y-13202728D01*
X13302891Y-13202728D02*
X13302891Y-13164633D01*
X13302891Y-13164633D02*
X13293367Y-13145586D01*
X13293367Y-13145586D02*
X13283844Y-13136062D01*
X13283844Y-13136062D02*
X13264796Y-13126538D01*
X13474320Y-13040824D02*
X13436225Y-13040824D01*
X13436225Y-13040824D02*
X13417177Y-13050348D01*
X13417177Y-13050348D02*
X13407653Y-13059871D01*
X13407653Y-13059871D02*
X13388606Y-13088443D01*
X13388606Y-13088443D02*
X13379082Y-13126538D01*
X13379082Y-13126538D02*
X13379082Y-13202728D01*
X13379082Y-13202728D02*
X13388606Y-13221776D01*
X13388606Y-13221776D02*
X13398129Y-13231300D01*
X13398129Y-13231300D02*
X13417177Y-13240824D01*
X13417177Y-13240824D02*
X13455272Y-13240824D01*
X13455272Y-13240824D02*
X13474320Y-13231300D01*
X13474320Y-13231300D02*
X13483844Y-13221776D01*
X13483844Y-13221776D02*
X13493367Y-13202728D01*
X13493367Y-13202728D02*
X13493367Y-13155109D01*
X13493367Y-13155109D02*
X13483844Y-13136062D01*
X13483844Y-13136062D02*
X13474320Y-13126538D01*
X13474320Y-13126538D02*
X13455272Y-13117014D01*
X13455272Y-13117014D02*
X13417177Y-13117014D01*
X13417177Y-13117014D02*
X13398129Y-13126538D01*
X13398129Y-13126538D02*
X13388606Y-13136062D01*
X13388606Y-13136062D02*
X13379082Y-13155109D01*
X13664796Y-13040824D02*
X13626701Y-13040824D01*
X13626701Y-13040824D02*
X13607653Y-13050348D01*
X13607653Y-13050348D02*
X13598129Y-13059871D01*
X13598129Y-13059871D02*
X13579082Y-13088443D01*
X13579082Y-13088443D02*
X13569558Y-13126538D01*
X13569558Y-13126538D02*
X13569558Y-13202728D01*
X13569558Y-13202728D02*
X13579082Y-13221776D01*
X13579082Y-13221776D02*
X13588606Y-13231300D01*
X13588606Y-13231300D02*
X13607653Y-13240824D01*
X13607653Y-13240824D02*
X13645748Y-13240824D01*
X13645748Y-13240824D02*
X13664796Y-13231300D01*
X13664796Y-13231300D02*
X13674320Y-13221776D01*
X13674320Y-13221776D02*
X13683844Y-13202728D01*
X13683844Y-13202728D02*
X13683844Y-13155109D01*
X13683844Y-13155109D02*
X13674320Y-13136062D01*
X13674320Y-13136062D02*
X13664796Y-13126538D01*
X13664796Y-13126538D02*
X13645748Y-13117014D01*
X13645748Y-13117014D02*
X13607653Y-13117014D01*
X13607653Y-13117014D02*
X13588606Y-13126538D01*
X13588606Y-13126538D02*
X13579082Y-13136062D01*
X13579082Y-13136062D02*
X13569558Y-13155109D01*
X13760034Y-13040824D02*
X13760034Y-13078919D01*
X13836225Y-13040824D02*
X13836225Y-13078919D01*
X14131463Y-13317014D02*
X14121939Y-13307490D01*
X14121939Y-13307490D02*
X14102891Y-13278919D01*
X14102891Y-13278919D02*
X14093368Y-13259871D01*
X14093368Y-13259871D02*
X14083844Y-13231300D01*
X14083844Y-13231300D02*
X14074320Y-13183681D01*
X14074320Y-13183681D02*
X14074320Y-13145586D01*
X14074320Y-13145586D02*
X14083844Y-13097967D01*
X14083844Y-13097967D02*
X14093368Y-13069395D01*
X14093368Y-13069395D02*
X14102891Y-13050348D01*
X14102891Y-13050348D02*
X14121939Y-13021776D01*
X14121939Y-13021776D02*
X14131463Y-13012252D01*
X14198129Y-13059871D02*
X14207653Y-13050348D01*
X14207653Y-13050348D02*
X14226701Y-13040824D01*
X14226701Y-13040824D02*
X14274320Y-13040824D01*
X14274320Y-13040824D02*
X14293368Y-13050348D01*
X14293368Y-13050348D02*
X14302891Y-13059871D01*
X14302891Y-13059871D02*
X14312415Y-13078919D01*
X14312415Y-13078919D02*
X14312415Y-13097967D01*
X14312415Y-13097967D02*
X14302891Y-13126538D01*
X14302891Y-13126538D02*
X14188606Y-13240824D01*
X14188606Y-13240824D02*
X14312415Y-13240824D01*
X14550510Y-13240824D02*
X14550510Y-13040824D01*
X14636225Y-13240824D02*
X14636225Y-13136062D01*
X14636225Y-13136062D02*
X14626701Y-13117014D01*
X14626701Y-13117014D02*
X14607653Y-13107490D01*
X14607653Y-13107490D02*
X14579082Y-13107490D01*
X14579082Y-13107490D02*
X14560034Y-13117014D01*
X14560034Y-13117014D02*
X14550510Y-13126538D01*
X14760034Y-13240824D02*
X14740987Y-13231300D01*
X14740987Y-13231300D02*
X14731463Y-13221776D01*
X14731463Y-13221776D02*
X14721939Y-13202728D01*
X14721939Y-13202728D02*
X14721939Y-13145586D01*
X14721939Y-13145586D02*
X14731463Y-13126538D01*
X14731463Y-13126538D02*
X14740987Y-13117014D01*
X14740987Y-13117014D02*
X14760034Y-13107490D01*
X14760034Y-13107490D02*
X14788606Y-13107490D01*
X14788606Y-13107490D02*
X14807653Y-13117014D01*
X14807653Y-13117014D02*
X14817177Y-13126538D01*
X14817177Y-13126538D02*
X14826701Y-13145586D01*
X14826701Y-13145586D02*
X14826701Y-13202728D01*
X14826701Y-13202728D02*
X14817177Y-13221776D01*
X14817177Y-13221776D02*
X14807653Y-13231300D01*
X14807653Y-13231300D02*
X14788606Y-13240824D01*
X14788606Y-13240824D02*
X14760034Y-13240824D01*
X14940987Y-13240824D02*
X14921939Y-13231300D01*
X14921939Y-13231300D02*
X14912415Y-13212252D01*
X14912415Y-13212252D02*
X14912415Y-13040824D01*
X15093368Y-13231300D02*
X15074320Y-13240824D01*
X15074320Y-13240824D02*
X15036225Y-13240824D01*
X15036225Y-13240824D02*
X15017177Y-13231300D01*
X15017177Y-13231300D02*
X15007653Y-13212252D01*
X15007653Y-13212252D02*
X15007653Y-13136062D01*
X15007653Y-13136062D02*
X15017177Y-13117014D01*
X15017177Y-13117014D02*
X15036225Y-13107490D01*
X15036225Y-13107490D02*
X15074320Y-13107490D01*
X15074320Y-13107490D02*
X15093368Y-13117014D01*
X15093368Y-13117014D02*
X15102891Y-13136062D01*
X15102891Y-13136062D02*
X15102891Y-13155109D01*
X15102891Y-13155109D02*
X15007653Y-13174157D01*
X15179082Y-13231300D02*
X15198130Y-13240824D01*
X15198130Y-13240824D02*
X15236225Y-13240824D01*
X15236225Y-13240824D02*
X15255272Y-13231300D01*
X15255272Y-13231300D02*
X15264796Y-13212252D01*
X15264796Y-13212252D02*
X15264796Y-13202728D01*
X15264796Y-13202728D02*
X15255272Y-13183681D01*
X15255272Y-13183681D02*
X15236225Y-13174157D01*
X15236225Y-13174157D02*
X15207653Y-13174157D01*
X15207653Y-13174157D02*
X15188606Y-13164633D01*
X15188606Y-13164633D02*
X15179082Y-13145586D01*
X15179082Y-13145586D02*
X15179082Y-13136062D01*
X15179082Y-13136062D02*
X15188606Y-13117014D01*
X15188606Y-13117014D02*
X15207653Y-13107490D01*
X15207653Y-13107490D02*
X15236225Y-13107490D01*
X15236225Y-13107490D02*
X15255272Y-13117014D01*
X15331463Y-13317014D02*
X15340987Y-13307490D01*
X15340987Y-13307490D02*
X15360034Y-13278919D01*
X15360034Y-13278919D02*
X15369558Y-13259871D01*
X15369558Y-13259871D02*
X15379082Y-13231300D01*
X15379082Y-13231300D02*
X15388606Y-13183681D01*
X15388606Y-13183681D02*
X15388606Y-13145586D01*
X15388606Y-13145586D02*
X15379082Y-13097967D01*
X15379082Y-13097967D02*
X15369558Y-13069395D01*
X15369558Y-13069395D02*
X15360034Y-13050348D01*
X15360034Y-13050348D02*
X15340987Y-13021776D01*
X15340987Y-13021776D02*
X15331463Y-13012252D01*
X15693368Y-13317014D02*
X15683844Y-13307490D01*
X15683844Y-13307490D02*
X15664796Y-13278919D01*
X15664796Y-13278919D02*
X15655272Y-13259871D01*
X15655272Y-13259871D02*
X15645749Y-13231300D01*
X15645749Y-13231300D02*
X15636225Y-13183681D01*
X15636225Y-13183681D02*
X15636225Y-13145586D01*
X15636225Y-13145586D02*
X15645749Y-13097967D01*
X15645749Y-13097967D02*
X15655272Y-13069395D01*
X15655272Y-13069395D02*
X15664796Y-13050348D01*
X15664796Y-13050348D02*
X15683844Y-13021776D01*
X15683844Y-13021776D02*
X15693368Y-13012252D01*
X15769558Y-13107490D02*
X15769558Y-13240824D01*
X15769558Y-13126538D02*
X15779082Y-13117014D01*
X15779082Y-13117014D02*
X15798130Y-13107490D01*
X15798130Y-13107490D02*
X15826701Y-13107490D01*
X15826701Y-13107490D02*
X15845749Y-13117014D01*
X15845749Y-13117014D02*
X15855272Y-13136062D01*
X15855272Y-13136062D02*
X15855272Y-13240824D01*
X15979082Y-13240824D02*
X15960034Y-13231300D01*
X15960034Y-13231300D02*
X15950511Y-13221776D01*
X15950511Y-13221776D02*
X15940987Y-13202728D01*
X15940987Y-13202728D02*
X15940987Y-13145586D01*
X15940987Y-13145586D02*
X15950511Y-13126538D01*
X15950511Y-13126538D02*
X15960034Y-13117014D01*
X15960034Y-13117014D02*
X15979082Y-13107490D01*
X15979082Y-13107490D02*
X16007653Y-13107490D01*
X16007653Y-13107490D02*
X16026701Y-13117014D01*
X16026701Y-13117014D02*
X16036225Y-13126538D01*
X16036225Y-13126538D02*
X16045749Y-13145586D01*
X16045749Y-13145586D02*
X16045749Y-13202728D01*
X16045749Y-13202728D02*
X16036225Y-13221776D01*
X16036225Y-13221776D02*
X16026701Y-13231300D01*
X16026701Y-13231300D02*
X16007653Y-13240824D01*
X16007653Y-13240824D02*
X15979082Y-13240824D01*
X16102892Y-13107490D02*
X16179082Y-13107490D01*
X16131463Y-13040824D02*
X16131463Y-13212252D01*
X16131463Y-13212252D02*
X16140987Y-13231300D01*
X16140987Y-13231300D02*
X16160034Y-13240824D01*
X16160034Y-13240824D02*
X16179082Y-13240824D01*
X16398130Y-13107490D02*
X16398130Y-13307490D01*
X16398130Y-13117014D02*
X16417177Y-13107490D01*
X16417177Y-13107490D02*
X16455273Y-13107490D01*
X16455273Y-13107490D02*
X16474320Y-13117014D01*
X16474320Y-13117014D02*
X16483844Y-13126538D01*
X16483844Y-13126538D02*
X16493368Y-13145586D01*
X16493368Y-13145586D02*
X16493368Y-13202728D01*
X16493368Y-13202728D02*
X16483844Y-13221776D01*
X16483844Y-13221776D02*
X16474320Y-13231300D01*
X16474320Y-13231300D02*
X16455273Y-13240824D01*
X16455273Y-13240824D02*
X16417177Y-13240824D01*
X16417177Y-13240824D02*
X16398130Y-13231300D01*
X16607653Y-13240824D02*
X16588606Y-13231300D01*
X16588606Y-13231300D02*
X16579082Y-13212252D01*
X16579082Y-13212252D02*
X16579082Y-13040824D01*
X16769558Y-13240824D02*
X16769558Y-13136062D01*
X16769558Y-13136062D02*
X16760034Y-13117014D01*
X16760034Y-13117014D02*
X16740987Y-13107490D01*
X16740987Y-13107490D02*
X16702892Y-13107490D01*
X16702892Y-13107490D02*
X16683844Y-13117014D01*
X16769558Y-13231300D02*
X16750511Y-13240824D01*
X16750511Y-13240824D02*
X16702892Y-13240824D01*
X16702892Y-13240824D02*
X16683844Y-13231300D01*
X16683844Y-13231300D02*
X16674320Y-13212252D01*
X16674320Y-13212252D02*
X16674320Y-13193205D01*
X16674320Y-13193205D02*
X16683844Y-13174157D01*
X16683844Y-13174157D02*
X16702892Y-13164633D01*
X16702892Y-13164633D02*
X16750511Y-13164633D01*
X16750511Y-13164633D02*
X16769558Y-13155109D01*
X16836225Y-13107490D02*
X16912415Y-13107490D01*
X16864796Y-13040824D02*
X16864796Y-13212252D01*
X16864796Y-13212252D02*
X16874320Y-13231300D01*
X16874320Y-13231300D02*
X16893368Y-13240824D01*
X16893368Y-13240824D02*
X16912415Y-13240824D01*
X17055273Y-13231300D02*
X17036225Y-13240824D01*
X17036225Y-13240824D02*
X16998130Y-13240824D01*
X16998130Y-13240824D02*
X16979082Y-13231300D01*
X16979082Y-13231300D02*
X16969558Y-13212252D01*
X16969558Y-13212252D02*
X16969558Y-13136062D01*
X16969558Y-13136062D02*
X16979082Y-13117014D01*
X16979082Y-13117014D02*
X16998130Y-13107490D01*
X16998130Y-13107490D02*
X17036225Y-13107490D01*
X17036225Y-13107490D02*
X17055273Y-13117014D01*
X17055273Y-13117014D02*
X17064796Y-13136062D01*
X17064796Y-13136062D02*
X17064796Y-13155109D01*
X17064796Y-13155109D02*
X16969558Y-13174157D01*
X17236225Y-13240824D02*
X17236225Y-13040824D01*
X17236225Y-13231300D02*
X17217177Y-13240824D01*
X17217177Y-13240824D02*
X17179082Y-13240824D01*
X17179082Y-13240824D02*
X17160035Y-13231300D01*
X17160035Y-13231300D02*
X17150511Y-13221776D01*
X17150511Y-13221776D02*
X17140987Y-13202728D01*
X17140987Y-13202728D02*
X17140987Y-13145586D01*
X17140987Y-13145586D02*
X17150511Y-13126538D01*
X17150511Y-13126538D02*
X17160035Y-13117014D01*
X17160035Y-13117014D02*
X17179082Y-13107490D01*
X17179082Y-13107490D02*
X17217177Y-13107490D01*
X17217177Y-13107490D02*
X17236225Y-13117014D01*
X17312416Y-13317014D02*
X17321939Y-13307490D01*
X17321939Y-13307490D02*
X17340987Y-13278919D01*
X17340987Y-13278919D02*
X17350511Y-13259871D01*
X17350511Y-13259871D02*
X17360035Y-13231300D01*
X17360035Y-13231300D02*
X17369558Y-13183681D01*
X17369558Y-13183681D02*
X17369558Y-13145586D01*
X17369558Y-13145586D02*
X17360035Y-13097967D01*
X17360035Y-13097967D02*
X17350511Y-13069395D01*
X17350511Y-13069395D02*
X17340987Y-13050348D01*
X17340987Y-13050348D02*
X17321939Y-13021776D01*
X17321939Y-13021776D02*
X17312416Y-13012252D01*
M02*
