%TF.GenerationSoftware,KiCad,Pcbnew,9.0.4*%
%TF.CreationDate,2025-11-17T08:26:25+00:00*%
%TF.ProjectId,MRF-Pro-v7.5,4d52462d-5072-46f2-9d76-372e352e6b69,rev?*%
%TF.SameCoordinates,Original*%
%TF.FileFunction,Legend,Bot*%
%TF.FilePolarity,Positive*%
%FSLAX46Y46*%
G04 Gerber Fmt 4.6, Leading zero omitted, Abs format (unit mm)*
G04 Created by KiCad (PCBNEW 9.0.4) date 2025-11-17 08:26:25*
%MOMM*%
%LPD*%
G01*
G04 APERTURE LIST*
%ADD10C,0.000000*%
%ADD11C,0.250000*%
%ADD12C,0.175000*%
%ADD13C,0.600000*%
G04 APERTURE END LIST*
D10*
G36*
X118917846Y-117961884D02*
G01*
X118947829Y-117964238D01*
X118977617Y-117967882D01*
X119007164Y-117972833D01*
X119036426Y-117979110D01*
X119071001Y-117989550D01*
X119105818Y-118002274D01*
X119140708Y-118017169D01*
X119175499Y-118034120D01*
X119210022Y-118053014D01*
X119244105Y-118073738D01*
X119277579Y-118096177D01*
X119310272Y-118120219D01*
X119342014Y-118145748D01*
X119372635Y-118172653D01*
X119401964Y-118200818D01*
X119429831Y-118230130D01*
X119456064Y-118260476D01*
X119480494Y-118291742D01*
X119502950Y-118323814D01*
X119523261Y-118356579D01*
X119541826Y-118389962D01*
X119558505Y-118423922D01*
X119573315Y-118458397D01*
X119586272Y-118493322D01*
X119597391Y-118528635D01*
X119606690Y-118564273D01*
X119614184Y-118600171D01*
X119619889Y-118636267D01*
X119623822Y-118672497D01*
X119625998Y-118708799D01*
X119626434Y-118745108D01*
X119625147Y-118781361D01*
X119622151Y-118817496D01*
X119617463Y-118853448D01*
X119611100Y-118889155D01*
X119603078Y-118924553D01*
X119593412Y-118959579D01*
X119582119Y-118994170D01*
X119569215Y-119028262D01*
X119554716Y-119061792D01*
X119538638Y-119094697D01*
X119520998Y-119126913D01*
X119501811Y-119158377D01*
X119481094Y-119189026D01*
X119458863Y-119218797D01*
X119435134Y-119247625D01*
X119409924Y-119275449D01*
X119383247Y-119302204D01*
X119355121Y-119327827D01*
X119325562Y-119352256D01*
X119294585Y-119375426D01*
X119262207Y-119397274D01*
X119236681Y-119412957D01*
X119212783Y-119426992D01*
X119190156Y-119439466D01*
X119168444Y-119450467D01*
X119147290Y-119460083D01*
X119126338Y-119468403D01*
X119105230Y-119475512D01*
X119083611Y-119481501D01*
X119061124Y-119486456D01*
X119037412Y-119490465D01*
X119012119Y-119493617D01*
X118984888Y-119495998D01*
X118955363Y-119497698D01*
X118923186Y-119498803D01*
X118888002Y-119499401D01*
X118849454Y-119499581D01*
X118775722Y-119498803D01*
X118743546Y-119497698D01*
X118714021Y-119495998D01*
X118686790Y-119493617D01*
X118661497Y-119490465D01*
X118637785Y-119486456D01*
X118615298Y-119481501D01*
X118593680Y-119475512D01*
X118572572Y-119468403D01*
X118551620Y-119460083D01*
X118530466Y-119450467D01*
X118508754Y-119439466D01*
X118486128Y-119426992D01*
X118462230Y-119412957D01*
X118436704Y-119397274D01*
X118403696Y-119375085D01*
X118372150Y-119351555D01*
X118342082Y-119326750D01*
X118313507Y-119300735D01*
X118286442Y-119273576D01*
X118260901Y-119245338D01*
X118236900Y-119216085D01*
X118214454Y-119185883D01*
X118193580Y-119154798D01*
X118174292Y-119122894D01*
X118156605Y-119090237D01*
X118140537Y-119056892D01*
X118126101Y-119022924D01*
X118113314Y-118988399D01*
X118102190Y-118953382D01*
X118092747Y-118917938D01*
X118084998Y-118882132D01*
X118078960Y-118846029D01*
X118074647Y-118809696D01*
X118072076Y-118773196D01*
X118071263Y-118736596D01*
X118072221Y-118699960D01*
X118074968Y-118663353D01*
X118079518Y-118626842D01*
X118085887Y-118590491D01*
X118094091Y-118554365D01*
X118104145Y-118518530D01*
X118116064Y-118483051D01*
X118129864Y-118447993D01*
X118145561Y-118413421D01*
X118163170Y-118379401D01*
X118182706Y-118345998D01*
X118199793Y-118319595D01*
X118217951Y-118293974D01*
X118237135Y-118269154D01*
X118257299Y-118245153D01*
X118278399Y-118221990D01*
X118300389Y-118199681D01*
X118323223Y-118178246D01*
X118346858Y-118157703D01*
X118371246Y-118138069D01*
X118396345Y-118119362D01*
X118422107Y-118101601D01*
X118448488Y-118084804D01*
X118475442Y-118068989D01*
X118502925Y-118054174D01*
X118530891Y-118040377D01*
X118559296Y-118027616D01*
X118588092Y-118015909D01*
X118617237Y-118005274D01*
X118646683Y-117995730D01*
X118676387Y-117987295D01*
X118706303Y-117979985D01*
X118736385Y-117973821D01*
X118766589Y-117968819D01*
X118796869Y-117964998D01*
X118827180Y-117962376D01*
X118857476Y-117960971D01*
X118887714Y-117960801D01*
X118917846Y-117961884D01*
G37*
G36*
X144478761Y-119499581D02*
G01*
X143949594Y-119499581D01*
X143949594Y-117912081D01*
X144478761Y-117912081D01*
X144478761Y-119499581D01*
G37*
G36*
X123767674Y-117949840D02*
G01*
X124601938Y-117956620D01*
X125135239Y-117966707D01*
X125275076Y-117972681D01*
X125322928Y-117979110D01*
X125326277Y-117989812D01*
X125336121Y-118003291D01*
X125374067Y-118037952D01*
X125434317Y-118081832D01*
X125514420Y-118133670D01*
X125611928Y-118192205D01*
X125724391Y-118256177D01*
X125984386Y-118395387D01*
X126274807Y-118541210D01*
X126576060Y-118683562D01*
X126724624Y-118750283D01*
X126868548Y-118812354D01*
X127005382Y-118868512D01*
X127132677Y-118917498D01*
X127322943Y-118984698D01*
X127524371Y-119050947D01*
X127734564Y-119115625D01*
X127951122Y-119178112D01*
X128171650Y-119237788D01*
X128393748Y-119294032D01*
X128615019Y-119346225D01*
X128833066Y-119393746D01*
X129326955Y-119496053D01*
X124677346Y-119496053D01*
X120031263Y-119499581D01*
X120031263Y-117947359D01*
X122677094Y-117947359D01*
X123767674Y-117949840D01*
G37*
G36*
X121214193Y-106835105D02*
G01*
X121215581Y-106835834D01*
X121217224Y-106837034D01*
X121219117Y-106838690D01*
X121223624Y-106843324D01*
X121229052Y-106849632D01*
X121235347Y-106857511D01*
X121242460Y-106866857D01*
X121258927Y-106889539D01*
X121278041Y-106916852D01*
X121299387Y-106947968D01*
X121347122Y-107018304D01*
X121513810Y-107284209D01*
X121629896Y-107470244D01*
X121749289Y-107663886D01*
X122035038Y-108122498D01*
X122056205Y-108528191D01*
X122082849Y-108879116D01*
X122125162Y-109241409D01*
X122182275Y-109611226D01*
X122253320Y-109984723D01*
X122337428Y-110358054D01*
X122433733Y-110727375D01*
X122541364Y-111088842D01*
X122659455Y-111438609D01*
X122749910Y-111677608D01*
X122850127Y-111920198D01*
X122959367Y-112165177D01*
X123076890Y-112411338D01*
X123201958Y-112657479D01*
X123333832Y-112902395D01*
X123471773Y-113144883D01*
X123615042Y-113383737D01*
X123762899Y-113617755D01*
X123914606Y-113845732D01*
X124069425Y-114066463D01*
X124226615Y-114278746D01*
X124385438Y-114481375D01*
X124545155Y-114673147D01*
X124705028Y-114852858D01*
X124864316Y-115019303D01*
X124983064Y-115133947D01*
X125110013Y-115250028D01*
X125244518Y-115367080D01*
X125385931Y-115484638D01*
X125533608Y-115602238D01*
X125686902Y-115719414D01*
X125845167Y-115835702D01*
X126007757Y-115950635D01*
X126174027Y-116063750D01*
X126343330Y-116174580D01*
X126515021Y-116282662D01*
X126688453Y-116387529D01*
X126862981Y-116488716D01*
X127037958Y-116585760D01*
X127212739Y-116678193D01*
X127386678Y-116765553D01*
X127615932Y-116875184D01*
X127842560Y-116978004D01*
X128067411Y-117074231D01*
X128291332Y-117164081D01*
X128515170Y-117247771D01*
X128739773Y-117325518D01*
X128965988Y-117397539D01*
X129194663Y-117464052D01*
X129426646Y-117525273D01*
X129662783Y-117581420D01*
X129903922Y-117632709D01*
X130150911Y-117679357D01*
X130404598Y-117721582D01*
X130665829Y-117759600D01*
X130935453Y-117793629D01*
X131214316Y-117823885D01*
X131698945Y-117875040D01*
X132096262Y-117915609D01*
X133632774Y-117946532D01*
X136704862Y-117967202D01*
X139966789Y-117972659D01*
X142072817Y-117957943D01*
X143138205Y-117929720D01*
X143138205Y-119499581D01*
X136812900Y-119499581D01*
X131549896Y-119490321D01*
X130492169Y-119474280D01*
X130014872Y-119446664D01*
X129556247Y-119388394D01*
X129110769Y-119316522D01*
X128677031Y-119230677D01*
X128253629Y-119130487D01*
X127839157Y-119015579D01*
X127432209Y-118885582D01*
X127031379Y-118740124D01*
X126635262Y-118578832D01*
X126464853Y-118502509D01*
X126284688Y-118416718D01*
X126103200Y-118325884D01*
X125928823Y-118234431D01*
X125769991Y-118146780D01*
X125635136Y-118067357D01*
X125532693Y-118000584D01*
X125496262Y-117973323D01*
X125471096Y-117950884D01*
X125463523Y-117943218D01*
X125452850Y-117933536D01*
X125423028Y-117908663D01*
X125383285Y-117877340D01*
X125335274Y-117840644D01*
X125221062Y-117755426D01*
X125093622Y-117661608D01*
X124864900Y-117493419D01*
X124635707Y-117314894D01*
X124406896Y-117126943D01*
X124179321Y-116930476D01*
X123953833Y-116726403D01*
X123731286Y-116515632D01*
X123512532Y-116299073D01*
X123298423Y-116077636D01*
X123089813Y-115852230D01*
X122887554Y-115623765D01*
X122692499Y-115393151D01*
X122505500Y-115161296D01*
X122327410Y-114929110D01*
X122159082Y-114697503D01*
X122001368Y-114467385D01*
X121855121Y-114239664D01*
X121675564Y-113938120D01*
X121507256Y-113633913D01*
X121350121Y-113326782D01*
X121204081Y-113016462D01*
X121069058Y-112702691D01*
X120944975Y-112385203D01*
X120831754Y-112063737D01*
X120729319Y-111738028D01*
X120637590Y-111407813D01*
X120556492Y-111072828D01*
X120485946Y-110732810D01*
X120425875Y-110387495D01*
X120376201Y-110036620D01*
X120336847Y-109679921D01*
X120307735Y-109317135D01*
X120288788Y-108947997D01*
X120267621Y-108323582D01*
X120733289Y-107579218D01*
X120915907Y-107290272D01*
X121067105Y-107053581D01*
X121171340Y-106893619D01*
X121200988Y-106850059D01*
X121213068Y-106834859D01*
X121214193Y-106835105D01*
G37*
G36*
X132387819Y-97004967D02*
G01*
X132625428Y-97013525D01*
X133062729Y-97052778D01*
X133494708Y-97108279D01*
X133921085Y-97179902D01*
X134341582Y-97267525D01*
X134755918Y-97371022D01*
X135163816Y-97490271D01*
X135564995Y-97625147D01*
X135959178Y-97775525D01*
X136346085Y-97941282D01*
X136725436Y-98122295D01*
X137096953Y-98318438D01*
X137460357Y-98529588D01*
X137815369Y-98755621D01*
X138161710Y-98996412D01*
X138499100Y-99251839D01*
X138827261Y-99521776D01*
X138991737Y-99666414D01*
X139176015Y-99836188D01*
X139372778Y-100023822D01*
X139574709Y-100222039D01*
X139774490Y-100423563D01*
X139964804Y-100621118D01*
X140138333Y-100807428D01*
X140287760Y-100975218D01*
X140543979Y-101280446D01*
X140787382Y-101592738D01*
X141017887Y-101911883D01*
X141235410Y-102237667D01*
X141439869Y-102569881D01*
X141631183Y-102908310D01*
X141809266Y-103252745D01*
X141974039Y-103602973D01*
X142125416Y-103958781D01*
X142263316Y-104319959D01*
X142387657Y-104686294D01*
X142498355Y-105057575D01*
X142595327Y-105433589D01*
X142678492Y-105814125D01*
X142747766Y-106198970D01*
X142803067Y-106587914D01*
X142834148Y-106845373D01*
X142845459Y-106950264D01*
X142853282Y-107042226D01*
X142857116Y-107123480D01*
X142856459Y-107196249D01*
X142850810Y-107262755D01*
X142839667Y-107325220D01*
X142822530Y-107385866D01*
X142798898Y-107446914D01*
X142768268Y-107510588D01*
X142730141Y-107579110D01*
X142684013Y-107654700D01*
X142629385Y-107739582D01*
X142492622Y-107946108D01*
X142351180Y-108158051D01*
X142231567Y-108331959D01*
X142183873Y-108398967D01*
X142146349Y-108449644D01*
X142120566Y-108481718D01*
X142112568Y-108490068D01*
X142108094Y-108492915D01*
X142103306Y-108488929D01*
X142093108Y-108477233D01*
X142057658Y-108432281D01*
X142004101Y-108361202D01*
X141934792Y-108267137D01*
X141852089Y-108153229D01*
X141758348Y-108022618D01*
X141655926Y-107878448D01*
X141547177Y-107723859D01*
X141392941Y-107502884D01*
X141269090Y-107322629D01*
X141171945Y-107176853D01*
X141097827Y-107059313D01*
X141043057Y-106963767D01*
X141021777Y-106922290D01*
X141003955Y-106883971D01*
X140989130Y-106848030D01*
X140976842Y-106813685D01*
X140958039Y-106746664D01*
X140856284Y-106326514D01*
X140757837Y-105951260D01*
X140659390Y-105611229D01*
X140557636Y-105296747D01*
X140449267Y-104998140D01*
X140330976Y-104705734D01*
X140199457Y-104409856D01*
X140051400Y-104100831D01*
X139964041Y-103926892D01*
X139871607Y-103752111D01*
X139774564Y-103577134D01*
X139673376Y-103402606D01*
X139460428Y-103057483D01*
X139236483Y-102721910D01*
X139005262Y-102401055D01*
X138770486Y-102100085D01*
X138652927Y-101958671D01*
X138535875Y-101824167D01*
X138419794Y-101697218D01*
X138305150Y-101578470D01*
X138186402Y-101463826D01*
X138059453Y-101347745D01*
X137924948Y-101230692D01*
X137783535Y-101113134D01*
X137635858Y-100995534D01*
X137482564Y-100878357D01*
X137324299Y-100762070D01*
X137161709Y-100647136D01*
X136995439Y-100534022D01*
X136826136Y-100423191D01*
X136654445Y-100315110D01*
X136481013Y-100210243D01*
X136306485Y-100109055D01*
X136131508Y-100012012D01*
X135956727Y-99919579D01*
X135782788Y-99832220D01*
X135522243Y-99708031D01*
X135268063Y-99594095D01*
X135017688Y-99489419D01*
X134768552Y-99393011D01*
X134518094Y-99303880D01*
X134263749Y-99221032D01*
X134002956Y-99143475D01*
X133733150Y-99070219D01*
X133447777Y-99001386D01*
X133169132Y-98941731D01*
X132896255Y-98891253D01*
X132628183Y-98849954D01*
X132363956Y-98817832D01*
X132102613Y-98794887D01*
X131843192Y-98781121D01*
X131584733Y-98776532D01*
X131326273Y-98781121D01*
X131066852Y-98794887D01*
X130805509Y-98817832D01*
X130541282Y-98849954D01*
X130273211Y-98891253D01*
X130000333Y-98941731D01*
X129721689Y-99001386D01*
X129436316Y-99070219D01*
X129167612Y-99142868D01*
X128900142Y-99223119D01*
X128634233Y-99310801D01*
X128370211Y-99405744D01*
X128108400Y-99507777D01*
X127849126Y-99616729D01*
X127592715Y-99732430D01*
X127339493Y-99854709D01*
X127089785Y-99983396D01*
X126843916Y-100118321D01*
X126602213Y-100259312D01*
X126365000Y-100406200D01*
X126132603Y-100558814D01*
X125905348Y-100716982D01*
X125683561Y-100880536D01*
X125467566Y-101049303D01*
X125300692Y-101187238D01*
X125147255Y-101320005D01*
X125004152Y-101450705D01*
X124868285Y-101582438D01*
X124736552Y-101718306D01*
X124605852Y-101861408D01*
X124473085Y-102014845D01*
X124335150Y-102181719D01*
X124132038Y-102443081D01*
X123936925Y-102712230D01*
X123750039Y-102988686D01*
X123571607Y-103271968D01*
X123401857Y-103561596D01*
X123241016Y-103857090D01*
X123089311Y-104157968D01*
X122946970Y-104463750D01*
X122814220Y-104773956D01*
X122691288Y-105088105D01*
X122578403Y-105405716D01*
X122475791Y-105726309D01*
X122383679Y-106049403D01*
X122302296Y-106374518D01*
X122231868Y-106701173D01*
X122172623Y-107028887D01*
X122091483Y-107512193D01*
X121657566Y-106820747D01*
X121487405Y-106551974D01*
X121346680Y-106332150D01*
X121250273Y-106183764D01*
X121213068Y-106129304D01*
X121209630Y-106132720D01*
X121202105Y-106142746D01*
X121175639Y-106181283D01*
X121135365Y-106242227D01*
X121082978Y-106322890D01*
X120948647Y-106532627D01*
X120786203Y-106788998D01*
X120622769Y-107052919D01*
X120481494Y-107278476D01*
X120377920Y-107441856D01*
X120327594Y-107519247D01*
X120324059Y-107524287D01*
X120320727Y-107528811D01*
X120317596Y-107532799D01*
X120314661Y-107536231D01*
X120311920Y-107539087D01*
X120309370Y-107541347D01*
X120307007Y-107542990D01*
X120305895Y-107543574D01*
X120304829Y-107543997D01*
X120303807Y-107544256D01*
X120302831Y-107544348D01*
X120301899Y-107544271D01*
X120301011Y-107544022D01*
X120300166Y-107543599D01*
X120299365Y-107543000D01*
X120298606Y-107542222D01*
X120297890Y-107541262D01*
X120297216Y-107540118D01*
X120296584Y-107538787D01*
X120295442Y-107535556D01*
X120294461Y-107531548D01*
X120293639Y-107526744D01*
X120292972Y-107521124D01*
X120292456Y-107514667D01*
X120292090Y-107507353D01*
X120291868Y-107499163D01*
X120291789Y-107490076D01*
X120291848Y-107480073D01*
X120292371Y-107457236D01*
X120293411Y-107430492D01*
X120294941Y-107399682D01*
X120296937Y-107364644D01*
X120299372Y-107325219D01*
X120328199Y-106977206D01*
X120365786Y-106635456D01*
X120412209Y-106299700D01*
X120467547Y-105969670D01*
X120531876Y-105645098D01*
X120605275Y-105325713D01*
X120687820Y-105011248D01*
X120779590Y-104701434D01*
X120880662Y-104396002D01*
X120991112Y-104094684D01*
X121111020Y-103797210D01*
X121240461Y-103503313D01*
X121379515Y-103212722D01*
X121528258Y-102925171D01*
X121686767Y-102640389D01*
X121855121Y-102358108D01*
X122026269Y-102091462D01*
X122210945Y-101824021D01*
X122408127Y-101556808D01*
X122616791Y-101290845D01*
X122835915Y-101027155D01*
X123064474Y-100766763D01*
X123301447Y-100510691D01*
X123545809Y-100259962D01*
X123796538Y-100015600D01*
X124052610Y-99778628D01*
X124313002Y-99550068D01*
X124576692Y-99330945D01*
X124842655Y-99122280D01*
X125109868Y-98925099D01*
X125377309Y-98740423D01*
X125643955Y-98569276D01*
X125885748Y-98424463D01*
X126130864Y-98286378D01*
X126379235Y-98155053D01*
X126630796Y-98030517D01*
X126885477Y-97912804D01*
X127143212Y-97801942D01*
X127403934Y-97697964D01*
X127667577Y-97600900D01*
X127934071Y-97510781D01*
X128203351Y-97427639D01*
X128475349Y-97351504D01*
X128749998Y-97282408D01*
X129027231Y-97220380D01*
X129306981Y-97165453D01*
X129589180Y-97117657D01*
X129873761Y-97077024D01*
X130094006Y-97057801D01*
X130415330Y-97040313D01*
X131229751Y-97013525D01*
X132054093Y-97002611D01*
X132387819Y-97004967D01*
G37*
G36*
X143914317Y-119499581D02*
G01*
X143208761Y-119499581D01*
X143208761Y-117912081D01*
X143914317Y-117912081D01*
X143914317Y-119499581D01*
G37*
G36*
X141128027Y-107766481D02*
G01*
X141157744Y-107807753D01*
X141264514Y-107959338D01*
X141420894Y-108183682D01*
X141610678Y-108457636D01*
X141801123Y-108729550D01*
X141959487Y-108952847D01*
X142069564Y-109104046D01*
X142101432Y-109145270D01*
X142110686Y-109156005D01*
X142115150Y-109159664D01*
X142116634Y-109158926D01*
X142119084Y-109156734D01*
X142126781Y-109148130D01*
X142138032Y-109134131D01*
X142152633Y-109115016D01*
X142191052Y-109062554D01*
X142240386Y-108992977D01*
X142298980Y-108908517D01*
X142365181Y-108811407D01*
X142437335Y-108703878D01*
X142513789Y-108588165D01*
X142898316Y-108016665D01*
X142877150Y-108792776D01*
X142862136Y-109210707D01*
X142837738Y-109602841D01*
X142803170Y-109974470D01*
X142757646Y-110330886D01*
X142700382Y-110677380D01*
X142630591Y-111019243D01*
X142547489Y-111361768D01*
X142450289Y-111710246D01*
X142385133Y-111920594D01*
X142314180Y-112131961D01*
X142237666Y-112343875D01*
X142155830Y-112555867D01*
X142068908Y-112767466D01*
X141977140Y-112978202D01*
X141880761Y-113187604D01*
X141780011Y-113395203D01*
X141675127Y-113600528D01*
X141566346Y-113803109D01*
X141453907Y-114002476D01*
X141338047Y-114198158D01*
X141219003Y-114389685D01*
X141097014Y-114576587D01*
X140972317Y-114758394D01*
X140845150Y-114934635D01*
X140708359Y-115114050D01*
X140563093Y-115295909D01*
X140410138Y-115479432D01*
X140250279Y-115663838D01*
X140084301Y-115848348D01*
X139912990Y-116032181D01*
X139737132Y-116214557D01*
X139557511Y-116394695D01*
X139374914Y-116571815D01*
X139190126Y-116745137D01*
X139003933Y-116913880D01*
X138817119Y-117077265D01*
X138630471Y-117234510D01*
X138444773Y-117384836D01*
X138260812Y-117527462D01*
X138079373Y-117661608D01*
X137765399Y-117887386D01*
X135433539Y-117866219D01*
X133667886Y-117841525D01*
X133037406Y-117828516D01*
X132695983Y-117816830D01*
X132290290Y-117795663D01*
X132741844Y-117728637D01*
X133067648Y-117675240D01*
X133394986Y-117609202D01*
X133723079Y-117530866D01*
X134051146Y-117440572D01*
X134378407Y-117338661D01*
X134704081Y-117225474D01*
X135027388Y-117101352D01*
X135347549Y-116966637D01*
X135663782Y-116821669D01*
X135975307Y-116666790D01*
X136281345Y-116502340D01*
X136581114Y-116328661D01*
X136873834Y-116146093D01*
X137158726Y-115954978D01*
X137435008Y-115755657D01*
X137701900Y-115548470D01*
X137826155Y-115446366D01*
X137946509Y-115343487D01*
X138063358Y-115239388D01*
X138177103Y-115133625D01*
X138288139Y-115025754D01*
X138396865Y-114915330D01*
X138503679Y-114801909D01*
X138608980Y-114685046D01*
X138713163Y-114564298D01*
X138816629Y-114439218D01*
X138919774Y-114309364D01*
X139022997Y-114174291D01*
X139126695Y-114033553D01*
X139231267Y-113886708D01*
X139337110Y-113733310D01*
X139444622Y-113572915D01*
X139630016Y-113278551D01*
X139806274Y-112974343D01*
X139973024Y-112661443D01*
X140129893Y-112341003D01*
X140276509Y-112014176D01*
X140412501Y-111682115D01*
X140537496Y-111345971D01*
X140651122Y-111006897D01*
X140753007Y-110666045D01*
X140842780Y-110324568D01*
X140920067Y-109983618D01*
X140984497Y-109644347D01*
X141035698Y-109307909D01*
X141073298Y-108975454D01*
X141096924Y-108648137D01*
X141106205Y-108327108D01*
X141111497Y-107920532D01*
X141114143Y-107797280D01*
X141115466Y-107763766D01*
X141116789Y-107752081D01*
X141128027Y-107766481D01*
G37*
D11*
G36*
X107961001Y-101312937D02*
G01*
X106266932Y-101312937D01*
X106266932Y-101543900D01*
X107163896Y-101857385D01*
X107163896Y-101862160D01*
X106266932Y-102173466D01*
X106266932Y-102409099D01*
X107961001Y-102409099D01*
X107961001Y-102166304D01*
X106930754Y-102166304D01*
X106930754Y-102161529D01*
X107658829Y-101919667D01*
X107658829Y-101797595D01*
X106930754Y-101555733D01*
X107961001Y-101555733D01*
X107961001Y-101312937D01*
G37*
G36*
X107961001Y-102877771D02*
G01*
X107236869Y-102877771D01*
X107236869Y-103022265D01*
X107961001Y-103247414D01*
X107961001Y-103504431D01*
X107187251Y-103242639D01*
X107138395Y-103314442D01*
X107082314Y-103367977D01*
X107018364Y-103405714D01*
X106947119Y-103430564D01*
X106863033Y-103446452D01*
X106763838Y-103452114D01*
X106618389Y-103441305D01*
X106506072Y-103412007D01*
X106420010Y-103367458D01*
X106354954Y-103308717D01*
X106307758Y-103234531D01*
X106277769Y-103141509D01*
X106266932Y-103024549D01*
X106266932Y-103003269D01*
X106492808Y-103003269D01*
X106501655Y-103083926D01*
X106524734Y-103138274D01*
X106559761Y-103173818D01*
X106598152Y-103191317D01*
X106644880Y-103202260D01*
X106758544Y-103209318D01*
X106872209Y-103202260D01*
X106918752Y-103191791D01*
X106954836Y-103176205D01*
X106984229Y-103150967D01*
X107006322Y-103116933D01*
X107019276Y-103075350D01*
X107024280Y-103015102D01*
X107024280Y-102877771D01*
X106492808Y-102877771D01*
X106492808Y-103003269D01*
X106266932Y-103003269D01*
X106266932Y-102634975D01*
X107961001Y-102634975D01*
X107961001Y-102877771D01*
G37*
G36*
X107961001Y-103648094D02*
G01*
X106266932Y-103648094D01*
X106266932Y-104372226D01*
X106492808Y-104372226D01*
X106492808Y-103890890D01*
X107010994Y-103890890D01*
X107010994Y-104309113D01*
X107236869Y-104309113D01*
X107236869Y-103890890D01*
X107961001Y-103890890D01*
X107961001Y-103648094D01*
G37*
G36*
X107961001Y-104495129D02*
G01*
X107732322Y-104495129D01*
X106905218Y-104930791D01*
X106844125Y-104957828D01*
X106796744Y-104968679D01*
X106681107Y-104973454D01*
X106615607Y-104973454D01*
X106582337Y-104970330D01*
X106554675Y-104961516D01*
X106530694Y-104946755D01*
X106510662Y-104925808D01*
X106497777Y-104898575D01*
X106492808Y-104856883D01*
X106500955Y-104806666D01*
X106523741Y-104770000D01*
X106560112Y-104746570D01*
X106614258Y-104737924D01*
X106752627Y-104737924D01*
X106752627Y-104495129D01*
X106619136Y-104495129D01*
X106544881Y-104502324D01*
X106476199Y-104523571D01*
X106413440Y-104557487D01*
X106359421Y-104601838D01*
X106314713Y-104653648D01*
X106279596Y-104715710D01*
X106257328Y-104784148D01*
X106249805Y-104858025D01*
X106258942Y-104948368D01*
X106284371Y-105020477D01*
X106325291Y-105082618D01*
X106378521Y-105133207D01*
X106441670Y-105169955D01*
X106514399Y-105196008D01*
X106592238Y-105211086D01*
X106676436Y-105216250D01*
X106780135Y-105216250D01*
X106859960Y-105209087D01*
X106936255Y-105185109D01*
X107029159Y-105139643D01*
X107717997Y-104780795D01*
X107717997Y-105219260D01*
X107961001Y-105219260D01*
X107961001Y-104495129D01*
G37*
G36*
X107961001Y-106192622D02*
G01*
X107952957Y-106300789D01*
X107930527Y-106389925D01*
X107895386Y-106463463D01*
X107847959Y-106524066D01*
X107788397Y-106571573D01*
X107712697Y-106607432D01*
X107617167Y-106630775D01*
X107497104Y-106639288D01*
X106704774Y-106639288D01*
X106600018Y-106631618D01*
X106513170Y-106610182D01*
X106441063Y-106576544D01*
X106381219Y-106531125D01*
X106333167Y-106473784D01*
X106297688Y-106403754D01*
X106275058Y-106318369D01*
X106266932Y-106214110D01*
X106266932Y-106209439D01*
X106492808Y-106209439D01*
X106500061Y-106278151D01*
X106519025Y-106325044D01*
X106547720Y-106356216D01*
X106610072Y-106385371D01*
X106703009Y-106396492D01*
X107522536Y-106396492D01*
X107594806Y-106390828D01*
X107646893Y-106375914D01*
X107683742Y-106353829D01*
X107710700Y-106321680D01*
X107728422Y-106275265D01*
X107735125Y-106209439D01*
X107735125Y-106098162D01*
X106492808Y-106098162D01*
X106492808Y-106209439D01*
X106266932Y-106209439D01*
X106266932Y-105855366D01*
X107961001Y-105855366D01*
X107961001Y-106192622D01*
G37*
G36*
X107747804Y-106822248D02*
G01*
X107815987Y-106840355D01*
X107873230Y-106870427D01*
X107912421Y-106906062D01*
X107942877Y-106948376D01*
X107961104Y-106990765D01*
X107974287Y-107077856D01*
X107964529Y-107159825D01*
X107938890Y-107215188D01*
X107897706Y-107261959D01*
X107837267Y-107311829D01*
X107837267Y-107316604D01*
X107960066Y-107316604D01*
X107960066Y-107559399D01*
X107119572Y-107559399D01*
X107028082Y-107551845D01*
X106952968Y-107530750D01*
X106886429Y-107496717D01*
X106833801Y-107454454D01*
X106792311Y-107400344D01*
X106762489Y-107337572D01*
X106744690Y-107269078D01*
X106738614Y-107194531D01*
X106745712Y-107113881D01*
X106766018Y-107044224D01*
X106798796Y-106981777D01*
X106841068Y-106929833D01*
X106913125Y-106873986D01*
X106999275Y-106837307D01*
X107103067Y-106820113D01*
X107103067Y-107055746D01*
X107049529Y-107075281D01*
X107012551Y-107107233D01*
X106989260Y-107149035D01*
X106981617Y-107194531D01*
X106986827Y-107238798D01*
X107000645Y-107269454D01*
X107022100Y-107290238D01*
X107066330Y-107309586D01*
X107124554Y-107316604D01*
X107250675Y-107316604D01*
X107248288Y-107280792D01*
X107245900Y-107252142D01*
X107245664Y-107249547D01*
X107436171Y-107249547D01*
X107443334Y-107316604D01*
X107607239Y-107316604D01*
X107674941Y-107307164D01*
X107721319Y-107281830D01*
X107751185Y-107241273D01*
X107761698Y-107184981D01*
X107750734Y-107131165D01*
X107718931Y-107091662D01*
X107671252Y-107067029D01*
X107607239Y-107058134D01*
X107545041Y-107065382D01*
X107502068Y-107084573D01*
X107473022Y-107114291D01*
X107445761Y-107174868D01*
X107436171Y-107249547D01*
X107245664Y-107249547D01*
X107243513Y-107225880D01*
X107243513Y-107199721D01*
X107250418Y-107090511D01*
X107268529Y-107011111D01*
X107300601Y-106943618D01*
X107343579Y-106894125D01*
X107401091Y-106856447D01*
X107473333Y-106832050D01*
X107553860Y-106819804D01*
X107652913Y-106815338D01*
X107747804Y-106822248D01*
G37*
G36*
X106751901Y-108459581D02*
G01*
X107961001Y-108459581D01*
X107961001Y-108216785D01*
X107843703Y-108216785D01*
X107843703Y-108212114D01*
X107895956Y-108170041D01*
X107937541Y-108120767D01*
X107964507Y-108062152D01*
X107974287Y-107984370D01*
X107970475Y-107939713D01*
X107958821Y-107894372D01*
X107938392Y-107851961D01*
X107907542Y-107813717D01*
X107867758Y-107782283D01*
X107815884Y-107756729D01*
X107756263Y-107741196D01*
X107678760Y-107735450D01*
X106751901Y-107735450D01*
X106751901Y-107978245D01*
X107588347Y-107978245D01*
X107650036Y-107986560D01*
X107693188Y-108008971D01*
X107721386Y-108045336D01*
X107731284Y-108096373D01*
X107725854Y-108139747D01*
X107711325Y-108170051D01*
X107688413Y-108190834D01*
X107639908Y-108209443D01*
X107564472Y-108216785D01*
X106751901Y-108216785D01*
X106751901Y-108459581D01*
G37*
G36*
X107763774Y-108669990D02*
G01*
X107820351Y-108683007D01*
X107863737Y-108700923D01*
X107913177Y-108735715D01*
X107948203Y-108780833D01*
X107970189Y-108838319D01*
X107978128Y-108911851D01*
X107969837Y-108982070D01*
X107946053Y-109041190D01*
X107907650Y-109092408D01*
X107854291Y-109137208D01*
X107854291Y-109141879D01*
X108092104Y-109141879D01*
X108145527Y-109134918D01*
X108186046Y-109115617D01*
X108212975Y-109082685D01*
X108222896Y-109029772D01*
X108212842Y-108973870D01*
X108184904Y-108935519D01*
X108144919Y-108911079D01*
X108104041Y-108903340D01*
X108104041Y-108660544D01*
X108205148Y-108679763D01*
X108278950Y-108709228D01*
X108341025Y-108750724D01*
X108387320Y-108798291D01*
X108424071Y-108850886D01*
X108447941Y-108907492D01*
X108461551Y-108966576D01*
X108465899Y-109021468D01*
X108457395Y-109112132D01*
X108433720Y-109185165D01*
X108395988Y-109248811D01*
X108349121Y-109299245D01*
X108295691Y-109338125D01*
X108235871Y-109364433D01*
X108172535Y-109379697D01*
X108110789Y-109384675D01*
X106755222Y-109384675D01*
X106755222Y-109141879D01*
X106865046Y-109141879D01*
X106816570Y-109096829D01*
X106777436Y-109049391D01*
X106764970Y-109021468D01*
X106984420Y-109021468D01*
X106994908Y-109070553D01*
X107026149Y-109108766D01*
X107072566Y-109133114D01*
X107134623Y-109141879D01*
X107604125Y-109141879D01*
X107657026Y-109133034D01*
X107698275Y-109107624D01*
X107725838Y-109069132D01*
X107735125Y-109021468D01*
X107729663Y-108978066D01*
X107715121Y-108948169D01*
X107692254Y-108928045D01*
X107646706Y-108909741D01*
X107592188Y-108903340D01*
X107148844Y-108903340D01*
X107079691Y-108911031D01*
X107029782Y-108931678D01*
X107004888Y-108953851D01*
X106989820Y-108983004D01*
X106984420Y-109021468D01*
X106764970Y-109021468D01*
X106751485Y-108991261D01*
X106741936Y-108914239D01*
X106750732Y-108830957D01*
X106772869Y-108779087D01*
X106819145Y-108723531D01*
X106877657Y-108686820D01*
X106951514Y-108667706D01*
X107144381Y-108660544D01*
X107604229Y-108660544D01*
X107763774Y-108669990D01*
G37*
G36*
X107961001Y-109585638D02*
G01*
X106266932Y-109585638D01*
X106266932Y-109828434D01*
X106869614Y-109828434D01*
X106869614Y-109833105D01*
X106817247Y-109875160D01*
X106775568Y-109924348D01*
X106748441Y-109983068D01*
X106738614Y-110060849D01*
X106742426Y-110105506D01*
X106754081Y-110150846D01*
X106774450Y-110193247D01*
X106805359Y-110231502D01*
X106845162Y-110262907D01*
X106897121Y-110288386D01*
X106956646Y-110303995D01*
X107034038Y-110309769D01*
X107961001Y-110309769D01*
X107961001Y-110066974D01*
X107124658Y-110066974D01*
X107062969Y-110058659D01*
X107019817Y-110036248D01*
X106991538Y-109999873D01*
X106981617Y-109948845D01*
X106987057Y-109905482D01*
X107001618Y-109875177D01*
X107024592Y-109854385D01*
X107073085Y-109835773D01*
X107148429Y-109828434D01*
X107961001Y-109828434D01*
X107961001Y-109585638D01*
G37*
G36*
X106751901Y-110513743D02*
G01*
X106386513Y-110513743D01*
X106386513Y-110756538D01*
X106751901Y-110756538D01*
X106751901Y-110902693D01*
X106944559Y-110902693D01*
X106944559Y-110756538D01*
X107615751Y-110756538D01*
X107682600Y-110764635D01*
X107703812Y-110775573D01*
X107718516Y-110791312D01*
X107732737Y-110836571D01*
X107735125Y-110902693D01*
X107961001Y-110902693D01*
X107961001Y-110803665D01*
X107953951Y-110725364D01*
X107934842Y-110665814D01*
X107904436Y-110615109D01*
X107868200Y-110577374D01*
X107825170Y-110548842D01*
X107776542Y-110529002D01*
X107725476Y-110517447D01*
X107677722Y-110513743D01*
X106944559Y-110513743D01*
X106944559Y-110391151D01*
X106751901Y-110391151D01*
X106751901Y-110513743D01*
G37*
G36*
X107691008Y-110985217D02*
G01*
X107750264Y-110999237D01*
X107800417Y-111020925D01*
X107871065Y-111072819D01*
X107926745Y-111143620D01*
X107952469Y-111198713D01*
X107968598Y-111262831D01*
X107974287Y-111337836D01*
X107966902Y-111418308D01*
X107945741Y-111487832D01*
X107911608Y-111550154D01*
X107867266Y-111602223D01*
X107796906Y-111655666D01*
X107712667Y-111688376D01*
X107610561Y-111699902D01*
X107610561Y-111457106D01*
X107650188Y-111448087D01*
X107691112Y-111429702D01*
X107712268Y-111411055D01*
X107726018Y-111381905D01*
X107731284Y-111337940D01*
X107723149Y-111287444D01*
X107700454Y-111250745D01*
X107664539Y-111227127D01*
X107612948Y-111218566D01*
X107449458Y-111218566D01*
X107449458Y-111699902D01*
X107115523Y-111699902D01*
X107010992Y-111688761D01*
X106922267Y-111656871D01*
X106845946Y-111604610D01*
X106801568Y-111552358D01*
X106767264Y-111489077D01*
X106745996Y-111418473D01*
X106738624Y-111337940D01*
X106981617Y-111337940D01*
X106990575Y-111387944D01*
X107016080Y-111424927D01*
X107056482Y-111448232D01*
X107119260Y-111457106D01*
X107256800Y-111457106D01*
X107256800Y-111218566D01*
X107119260Y-111218566D01*
X107056482Y-111227441D01*
X107016080Y-111250745D01*
X106990584Y-111287757D01*
X106981617Y-111337940D01*
X106738624Y-111337940D01*
X106738614Y-111337836D01*
X106744314Y-111262837D01*
X106760477Y-111198720D01*
X106786260Y-111143620D01*
X106841857Y-111072824D01*
X106912484Y-111020925D01*
X106962637Y-110999237D01*
X107021893Y-110985217D01*
X107157667Y-110975771D01*
X107555234Y-110975771D01*
X107691008Y-110985217D01*
G37*
G36*
X107961001Y-111875952D02*
G01*
X106751901Y-111875952D01*
X106751901Y-112118748D01*
X106881136Y-112118748D01*
X106820438Y-112193900D01*
X106776710Y-112264072D01*
X106748775Y-112341130D01*
X106738614Y-112440642D01*
X106995942Y-112440642D01*
X106985188Y-112404203D01*
X106981617Y-112366734D01*
X106994800Y-112284418D01*
X107012272Y-112242531D01*
X107038813Y-112204593D01*
X107074004Y-112170432D01*
X107119883Y-112142519D01*
X107173576Y-112125138D01*
X107243720Y-112118748D01*
X107961001Y-112118748D01*
X107961001Y-111875952D01*
G37*
G36*
X107961001Y-112779767D02*
G01*
X107850969Y-112779767D01*
X107899782Y-112826212D01*
X107938683Y-112872151D01*
X107964374Y-112926507D01*
X107974287Y-113009795D01*
X107966442Y-113082039D01*
X107944590Y-113139262D01*
X107909584Y-113184862D01*
X107860000Y-113220723D01*
X107816537Y-113238646D01*
X107760037Y-113251656D01*
X107600492Y-113261102D01*
X107140955Y-113261102D01*
X106948089Y-113253940D01*
X106890050Y-113242040D01*
X106848126Y-113223110D01*
X106804729Y-113187914D01*
X106769547Y-113143701D01*
X106747228Y-113089083D01*
X106738614Y-113007407D01*
X106746862Y-112939270D01*
X106762768Y-112900178D01*
X106981617Y-112900178D01*
X106987082Y-112943576D01*
X107001624Y-112973433D01*
X107024488Y-112993497D01*
X107070029Y-113011882D01*
X107124450Y-113018306D01*
X107567067Y-113018306D01*
X107636220Y-113010615D01*
X107686130Y-112989968D01*
X107710897Y-112967811D01*
X107725903Y-112938660D01*
X107731284Y-112900178D01*
X107720821Y-112851065D01*
X107689659Y-112812776D01*
X107643351Y-112788507D01*
X107581392Y-112779767D01*
X107112513Y-112779767D01*
X107059719Y-112788611D01*
X107018571Y-112814022D01*
X106990927Y-112852523D01*
X106981617Y-112900178D01*
X106762768Y-112900178D01*
X106770793Y-112880456D01*
X106809114Y-112829243D01*
X106862451Y-112784438D01*
X106862451Y-112779767D01*
X106266932Y-112779767D01*
X106266932Y-112536971D01*
X107961001Y-112536971D01*
X107961001Y-112779767D01*
G37*
G36*
X107691008Y-113451581D02*
G01*
X107750264Y-113465601D01*
X107800417Y-113487289D01*
X107871065Y-113539184D01*
X107926745Y-113609985D01*
X107952469Y-113665078D01*
X107968598Y-113729195D01*
X107974287Y-113804200D01*
X107968598Y-113879135D01*
X107952469Y-113943183D01*
X107926745Y-113998209D01*
X107871058Y-114069095D01*
X107800417Y-114121008D01*
X107750264Y-114142696D01*
X107691008Y-114156716D01*
X107555234Y-114166266D01*
X107157667Y-114166266D01*
X107021893Y-114156716D01*
X106962637Y-114142696D01*
X106912484Y-114121008D01*
X106841865Y-114069091D01*
X106786260Y-113998209D01*
X106760477Y-113943176D01*
X106744315Y-113879129D01*
X106738622Y-113804304D01*
X106981617Y-113804304D01*
X106990598Y-113854299D01*
X107016184Y-113891291D01*
X107056698Y-113914593D01*
X107119675Y-113923470D01*
X107593330Y-113923470D01*
X107656307Y-113914593D01*
X107696821Y-113891291D01*
X107722326Y-113854308D01*
X107731284Y-113804304D01*
X107722317Y-113754121D01*
X107696821Y-113717110D01*
X107656307Y-113693808D01*
X107593330Y-113684931D01*
X107119675Y-113684931D01*
X107056698Y-113693808D01*
X107016184Y-113717110D01*
X106990607Y-113754130D01*
X106981617Y-113804304D01*
X106738622Y-113804304D01*
X106738614Y-113804200D01*
X106744314Y-113729201D01*
X106760477Y-113665084D01*
X106786260Y-113609985D01*
X106841857Y-113539188D01*
X106912484Y-113487289D01*
X106962637Y-113465601D01*
X107021893Y-113451581D01*
X107157667Y-113442135D01*
X107555234Y-113442135D01*
X107691008Y-113451581D01*
G37*
G36*
X107747804Y-114309365D02*
G01*
X107815987Y-114327472D01*
X107873230Y-114357545D01*
X107912421Y-114393180D01*
X107942877Y-114435494D01*
X107961104Y-114477883D01*
X107974287Y-114564974D01*
X107964529Y-114646943D01*
X107938890Y-114702306D01*
X107897706Y-114749077D01*
X107837267Y-114798947D01*
X107837267Y-114803722D01*
X107960066Y-114803722D01*
X107960066Y-115046517D01*
X107119572Y-115046517D01*
X107028082Y-115038963D01*
X106952968Y-115017868D01*
X106886429Y-114983835D01*
X106833801Y-114941572D01*
X106792311Y-114887462D01*
X106762489Y-114824690D01*
X106744690Y-114756196D01*
X106738614Y-114681649D01*
X106745712Y-114600999D01*
X106766018Y-114531342D01*
X106798796Y-114468895D01*
X106841068Y-114416951D01*
X106913125Y-114361104D01*
X106999275Y-114324425D01*
X107103067Y-114307231D01*
X107103067Y-114542864D01*
X107049529Y-114562399D01*
X107012551Y-114594351D01*
X106989260Y-114636153D01*
X106981617Y-114681649D01*
X106986827Y-114725916D01*
X107000645Y-114756572D01*
X107022100Y-114777356D01*
X107066330Y-114796704D01*
X107124554Y-114803722D01*
X107250675Y-114803722D01*
X107248288Y-114767909D01*
X107245900Y-114739260D01*
X107245664Y-114736665D01*
X107436171Y-114736665D01*
X107443334Y-114803722D01*
X107607239Y-114803722D01*
X107674941Y-114794282D01*
X107721319Y-114768948D01*
X107751185Y-114728390D01*
X107761698Y-114672099D01*
X107750734Y-114618283D01*
X107718931Y-114578780D01*
X107671252Y-114554147D01*
X107607239Y-114545252D01*
X107545041Y-114552500D01*
X107502068Y-114571691D01*
X107473022Y-114601409D01*
X107445761Y-114661986D01*
X107436171Y-114736665D01*
X107245664Y-114736665D01*
X107243513Y-114712998D01*
X107243513Y-114686839D01*
X107250418Y-114577629D01*
X107268529Y-114498229D01*
X107300601Y-114430736D01*
X107343579Y-114381243D01*
X107401091Y-114343565D01*
X107473333Y-114319168D01*
X107553860Y-114306922D01*
X107652913Y-114302456D01*
X107747804Y-114309365D01*
G37*
G36*
X107961001Y-115222568D02*
G01*
X106751901Y-115222568D01*
X106751901Y-115465363D01*
X106881136Y-115465363D01*
X106820438Y-115540515D01*
X106776710Y-115610688D01*
X106748775Y-115687746D01*
X106738614Y-115787257D01*
X106995942Y-115787257D01*
X106985188Y-115750819D01*
X106981617Y-115713349D01*
X106994800Y-115631033D01*
X107012272Y-115589147D01*
X107038813Y-115551209D01*
X107074004Y-115517047D01*
X107119883Y-115489134D01*
X107173576Y-115471754D01*
X107243720Y-115465363D01*
X107961001Y-115465363D01*
X107961001Y-115222568D01*
G37*
G36*
X107760037Y-115893032D02*
G01*
X107816537Y-115906042D01*
X107860000Y-115923966D01*
X107909388Y-115958751D01*
X107944384Y-116003865D01*
X107966354Y-116061353D01*
X107974287Y-116134894D01*
X107964841Y-116213162D01*
X107938787Y-116272433D01*
X107899860Y-116319871D01*
X107851384Y-116364922D01*
X107961001Y-116364922D01*
X107961001Y-116607718D01*
X106266932Y-116607718D01*
X106266932Y-116362534D01*
X106862451Y-116362534D01*
X106809129Y-116317507D01*
X106770793Y-116265997D01*
X106762092Y-116244510D01*
X106981617Y-116244510D01*
X106990927Y-116292166D01*
X107018571Y-116330667D01*
X107059820Y-116356077D01*
X107112721Y-116364922D01*
X107582119Y-116364922D01*
X107644176Y-116356157D01*
X107690593Y-116331809D01*
X107721752Y-116293605D01*
X107732218Y-116244510D01*
X107726827Y-116206037D01*
X107711790Y-116176886D01*
X107686960Y-116154720D01*
X107637038Y-116134076D01*
X107567794Y-116126382D01*
X107124658Y-116126382D01*
X107070139Y-116132784D01*
X107024592Y-116151087D01*
X107001662Y-116171221D01*
X106987089Y-116201119D01*
X106981617Y-116244510D01*
X106762092Y-116244510D01*
X106746859Y-116206891D01*
X106738614Y-116138527D01*
X106747410Y-116054833D01*
X106769547Y-116002649D01*
X106815791Y-115946829D01*
X106874270Y-115909957D01*
X106948089Y-115890749D01*
X107140955Y-115883586D01*
X107600492Y-115883586D01*
X107760037Y-115893032D01*
G37*
G36*
X106751901Y-117990999D02*
G01*
X107961001Y-117676787D01*
X107961001Y-117462641D01*
X106751901Y-117148428D01*
X106751901Y-117405445D01*
X107524612Y-117567274D01*
X107524612Y-117572049D01*
X106751901Y-117733879D01*
X106751901Y-117990999D01*
G37*
G36*
X107961001Y-118121895D02*
G01*
X106492808Y-118547903D01*
X106492808Y-118280195D01*
X106688269Y-118280195D01*
X106688269Y-118067606D01*
X106266932Y-118067606D01*
X106266932Y-118791737D01*
X106507133Y-118791737D01*
X107961001Y-118378185D01*
X107961001Y-118121895D01*
G37*
G36*
X107961001Y-118972770D02*
G01*
X107717997Y-118972770D01*
X107717997Y-119215566D01*
X107961001Y-119215566D01*
X107961001Y-118972770D01*
G37*
G36*
X106266932Y-120118757D02*
G01*
X106492808Y-120118757D01*
X106492808Y-119633789D01*
X106949438Y-119633789D01*
X106919762Y-119671133D01*
X106894007Y-119720153D01*
X106877284Y-119775115D01*
X106871482Y-119837866D01*
X106880326Y-119918024D01*
X106905469Y-119984642D01*
X106946532Y-120040697D01*
X107001508Y-120082264D01*
X107074670Y-120108943D01*
X107171681Y-120118757D01*
X107609938Y-120118757D01*
X107692349Y-120110987D01*
X107762321Y-120088862D01*
X107824603Y-120053764D01*
X107876608Y-120009141D01*
X107918532Y-119955344D01*
X107949271Y-119893608D01*
X107968005Y-119826781D01*
X107974287Y-119756692D01*
X107968003Y-119686512D01*
X107949271Y-119619672D01*
X107918511Y-119557943D01*
X107876505Y-119504139D01*
X107824391Y-119459434D01*
X107762010Y-119424314D01*
X107692024Y-119402350D01*
X107609419Y-119394626D01*
X107537899Y-119394626D01*
X107537899Y-119633789D01*
X107599973Y-119633789D01*
X107656718Y-119643104D01*
X107696718Y-119668874D01*
X107722371Y-119708470D01*
X107731284Y-119759702D01*
X107722476Y-119810270D01*
X107697963Y-119845651D01*
X107659651Y-119867817D01*
X107604748Y-119875962D01*
X107205936Y-119875962D01*
X107159174Y-119867787D01*
X107119987Y-119843575D01*
X107093143Y-119807016D01*
X107084071Y-119761051D01*
X107087030Y-119731477D01*
X107095178Y-119708423D01*
X107120921Y-119672507D01*
X107152789Y-119651020D01*
X107174899Y-119636591D01*
X107174899Y-119421200D01*
X106266932Y-119421200D01*
X106266932Y-120118757D01*
G37*
D12*
X155053535Y-98410839D02*
X155120202Y-98377506D01*
X155120202Y-98377506D02*
X155220202Y-98377506D01*
X155220202Y-98377506D02*
X155320202Y-98410839D01*
X155320202Y-98410839D02*
X155386869Y-98477506D01*
X155386869Y-98477506D02*
X155420202Y-98544173D01*
X155420202Y-98544173D02*
X155453535Y-98677506D01*
X155453535Y-98677506D02*
X155453535Y-98777506D01*
X155453535Y-98777506D02*
X155420202Y-98910839D01*
X155420202Y-98910839D02*
X155386869Y-98977506D01*
X155386869Y-98977506D02*
X155320202Y-99044173D01*
X155320202Y-99044173D02*
X155220202Y-99077506D01*
X155220202Y-99077506D02*
X155153535Y-99077506D01*
X155153535Y-99077506D02*
X155053535Y-99044173D01*
X155053535Y-99044173D02*
X155020202Y-99010839D01*
X155020202Y-99010839D02*
X155020202Y-98777506D01*
X155020202Y-98777506D02*
X155153535Y-98777506D01*
X154720202Y-99077506D02*
X154720202Y-98377506D01*
X154720202Y-98377506D02*
X154320202Y-99077506D01*
X154320202Y-99077506D02*
X154320202Y-98377506D01*
X153986869Y-99077506D02*
X153986869Y-98377506D01*
X153986869Y-98377506D02*
X153820202Y-98377506D01*
X153820202Y-98377506D02*
X153720202Y-98410839D01*
X153720202Y-98410839D02*
X153653536Y-98477506D01*
X153653536Y-98477506D02*
X153620202Y-98544173D01*
X153620202Y-98544173D02*
X153586869Y-98677506D01*
X153586869Y-98677506D02*
X153586869Y-98777506D01*
X153586869Y-98777506D02*
X153620202Y-98910839D01*
X153620202Y-98910839D02*
X153653536Y-98977506D01*
X153653536Y-98977506D02*
X153720202Y-99044173D01*
X153720202Y-99044173D02*
X153820202Y-99077506D01*
X153820202Y-99077506D02*
X153986869Y-99077506D01*
X155053535Y-99537800D02*
X155120202Y-99504467D01*
X155120202Y-99504467D02*
X155220202Y-99504467D01*
X155220202Y-99504467D02*
X155320202Y-99537800D01*
X155320202Y-99537800D02*
X155386869Y-99604467D01*
X155386869Y-99604467D02*
X155420202Y-99671134D01*
X155420202Y-99671134D02*
X155453535Y-99804467D01*
X155453535Y-99804467D02*
X155453535Y-99904467D01*
X155453535Y-99904467D02*
X155420202Y-100037800D01*
X155420202Y-100037800D02*
X155386869Y-100104467D01*
X155386869Y-100104467D02*
X155320202Y-100171134D01*
X155320202Y-100171134D02*
X155220202Y-100204467D01*
X155220202Y-100204467D02*
X155153535Y-100204467D01*
X155153535Y-100204467D02*
X155053535Y-100171134D01*
X155053535Y-100171134D02*
X155020202Y-100137800D01*
X155020202Y-100137800D02*
X155020202Y-99904467D01*
X155020202Y-99904467D02*
X155153535Y-99904467D01*
X154720202Y-100204467D02*
X154720202Y-99504467D01*
X154720202Y-99504467D02*
X154320202Y-100204467D01*
X154320202Y-100204467D02*
X154320202Y-99504467D01*
X153986869Y-100204467D02*
X153986869Y-99504467D01*
X153986869Y-99504467D02*
X153820202Y-99504467D01*
X153820202Y-99504467D02*
X153720202Y-99537800D01*
X153720202Y-99537800D02*
X153653536Y-99604467D01*
X153653536Y-99604467D02*
X153620202Y-99671134D01*
X153620202Y-99671134D02*
X153586869Y-99804467D01*
X153586869Y-99804467D02*
X153586869Y-99904467D01*
X153586869Y-99904467D02*
X153620202Y-100037800D01*
X153620202Y-100037800D02*
X153653536Y-100104467D01*
X153653536Y-100104467D02*
X153720202Y-100171134D01*
X153720202Y-100171134D02*
X153820202Y-100204467D01*
X153820202Y-100204467D02*
X153986869Y-100204467D01*
X155053535Y-100664761D02*
X155120202Y-100631428D01*
X155120202Y-100631428D02*
X155220202Y-100631428D01*
X155220202Y-100631428D02*
X155320202Y-100664761D01*
X155320202Y-100664761D02*
X155386869Y-100731428D01*
X155386869Y-100731428D02*
X155420202Y-100798095D01*
X155420202Y-100798095D02*
X155453535Y-100931428D01*
X155453535Y-100931428D02*
X155453535Y-101031428D01*
X155453535Y-101031428D02*
X155420202Y-101164761D01*
X155420202Y-101164761D02*
X155386869Y-101231428D01*
X155386869Y-101231428D02*
X155320202Y-101298095D01*
X155320202Y-101298095D02*
X155220202Y-101331428D01*
X155220202Y-101331428D02*
X155153535Y-101331428D01*
X155153535Y-101331428D02*
X155053535Y-101298095D01*
X155053535Y-101298095D02*
X155020202Y-101264761D01*
X155020202Y-101264761D02*
X155020202Y-101031428D01*
X155020202Y-101031428D02*
X155153535Y-101031428D01*
X154720202Y-101331428D02*
X154720202Y-100631428D01*
X154720202Y-100631428D02*
X154320202Y-101331428D01*
X154320202Y-101331428D02*
X154320202Y-100631428D01*
X153986869Y-101331428D02*
X153986869Y-100631428D01*
X153986869Y-100631428D02*
X153820202Y-100631428D01*
X153820202Y-100631428D02*
X153720202Y-100664761D01*
X153720202Y-100664761D02*
X153653536Y-100731428D01*
X153653536Y-100731428D02*
X153620202Y-100798095D01*
X153620202Y-100798095D02*
X153586869Y-100931428D01*
X153586869Y-100931428D02*
X153586869Y-101031428D01*
X153586869Y-101031428D02*
X153620202Y-101164761D01*
X153620202Y-101164761D02*
X153653536Y-101231428D01*
X153653536Y-101231428D02*
X153720202Y-101298095D01*
X153720202Y-101298095D02*
X153820202Y-101331428D01*
X153820202Y-101331428D02*
X153986869Y-101331428D01*
X155420202Y-102458389D02*
X155420202Y-101758389D01*
X155420202Y-101758389D02*
X155153535Y-101758389D01*
X155153535Y-101758389D02*
X155086869Y-101791722D01*
X155086869Y-101791722D02*
X155053535Y-101825056D01*
X155053535Y-101825056D02*
X155020202Y-101891722D01*
X155020202Y-101891722D02*
X155020202Y-101991722D01*
X155020202Y-101991722D02*
X155053535Y-102058389D01*
X155053535Y-102058389D02*
X155086869Y-102091722D01*
X155086869Y-102091722D02*
X155153535Y-102125056D01*
X155153535Y-102125056D02*
X155420202Y-102125056D01*
X154786869Y-101758389D02*
X154620202Y-102458389D01*
X154620202Y-102458389D02*
X154486869Y-101958389D01*
X154486869Y-101958389D02*
X154353535Y-102458389D01*
X154353535Y-102458389D02*
X154186869Y-101758389D01*
X153520202Y-102458389D02*
X153753535Y-102125056D01*
X153920202Y-102458389D02*
X153920202Y-101758389D01*
X153920202Y-101758389D02*
X153653535Y-101758389D01*
X153653535Y-101758389D02*
X153586869Y-101791722D01*
X153586869Y-101791722D02*
X153553535Y-101825056D01*
X153553535Y-101825056D02*
X153520202Y-101891722D01*
X153520202Y-101891722D02*
X153520202Y-101991722D01*
X153520202Y-101991722D02*
X153553535Y-102058389D01*
X153553535Y-102058389D02*
X153586869Y-102091722D01*
X153586869Y-102091722D02*
X153653535Y-102125056D01*
X153653535Y-102125056D02*
X153920202Y-102125056D01*
X155453535Y-103552017D02*
X155353535Y-103585350D01*
X155353535Y-103585350D02*
X155186869Y-103585350D01*
X155186869Y-103585350D02*
X155120202Y-103552017D01*
X155120202Y-103552017D02*
X155086869Y-103518683D01*
X155086869Y-103518683D02*
X155053535Y-103452017D01*
X155053535Y-103452017D02*
X155053535Y-103385350D01*
X155053535Y-103385350D02*
X155086869Y-103318683D01*
X155086869Y-103318683D02*
X155120202Y-103285350D01*
X155120202Y-103285350D02*
X155186869Y-103252017D01*
X155186869Y-103252017D02*
X155320202Y-103218683D01*
X155320202Y-103218683D02*
X155386869Y-103185350D01*
X155386869Y-103185350D02*
X155420202Y-103152017D01*
X155420202Y-103152017D02*
X155453535Y-103085350D01*
X155453535Y-103085350D02*
X155453535Y-103018683D01*
X155453535Y-103018683D02*
X155420202Y-102952017D01*
X155420202Y-102952017D02*
X155386869Y-102918683D01*
X155386869Y-102918683D02*
X155320202Y-102885350D01*
X155320202Y-102885350D02*
X155153535Y-102885350D01*
X155153535Y-102885350D02*
X155053535Y-102918683D01*
X154753535Y-103218683D02*
X154520202Y-103218683D01*
X154420202Y-103585350D02*
X154753535Y-103585350D01*
X154753535Y-103585350D02*
X154753535Y-102885350D01*
X154753535Y-102885350D02*
X154420202Y-102885350D01*
X153786869Y-103585350D02*
X154120202Y-103585350D01*
X154120202Y-103585350D02*
X154120202Y-102885350D01*
X153186868Y-103585350D02*
X153586868Y-103585350D01*
X153386868Y-103585350D02*
X153386868Y-102885350D01*
X153386868Y-102885350D02*
X153453535Y-102985350D01*
X153453535Y-102985350D02*
X153520202Y-103052017D01*
X153520202Y-103052017D02*
X153586868Y-103085350D01*
X155453535Y-104678978D02*
X155353535Y-104712311D01*
X155353535Y-104712311D02*
X155186869Y-104712311D01*
X155186869Y-104712311D02*
X155120202Y-104678978D01*
X155120202Y-104678978D02*
X155086869Y-104645644D01*
X155086869Y-104645644D02*
X155053535Y-104578978D01*
X155053535Y-104578978D02*
X155053535Y-104512311D01*
X155053535Y-104512311D02*
X155086869Y-104445644D01*
X155086869Y-104445644D02*
X155120202Y-104412311D01*
X155120202Y-104412311D02*
X155186869Y-104378978D01*
X155186869Y-104378978D02*
X155320202Y-104345644D01*
X155320202Y-104345644D02*
X155386869Y-104312311D01*
X155386869Y-104312311D02*
X155420202Y-104278978D01*
X155420202Y-104278978D02*
X155453535Y-104212311D01*
X155453535Y-104212311D02*
X155453535Y-104145644D01*
X155453535Y-104145644D02*
X155420202Y-104078978D01*
X155420202Y-104078978D02*
X155386869Y-104045644D01*
X155386869Y-104045644D02*
X155320202Y-104012311D01*
X155320202Y-104012311D02*
X155153535Y-104012311D01*
X155153535Y-104012311D02*
X155053535Y-104045644D01*
X154753535Y-104345644D02*
X154520202Y-104345644D01*
X154420202Y-104712311D02*
X154753535Y-104712311D01*
X154753535Y-104712311D02*
X154753535Y-104012311D01*
X154753535Y-104012311D02*
X154420202Y-104012311D01*
X153786869Y-104712311D02*
X154120202Y-104712311D01*
X154120202Y-104712311D02*
X154120202Y-104012311D01*
X153586868Y-104078978D02*
X153553535Y-104045644D01*
X153553535Y-104045644D02*
X153486868Y-104012311D01*
X153486868Y-104012311D02*
X153320202Y-104012311D01*
X153320202Y-104012311D02*
X153253535Y-104045644D01*
X153253535Y-104045644D02*
X153220202Y-104078978D01*
X153220202Y-104078978D02*
X153186868Y-104145644D01*
X153186868Y-104145644D02*
X153186868Y-104212311D01*
X153186868Y-104212311D02*
X153220202Y-104312311D01*
X153220202Y-104312311D02*
X153620202Y-104712311D01*
X153620202Y-104712311D02*
X153186868Y-104712311D01*
X155486869Y-105139272D02*
X155053535Y-105139272D01*
X155053535Y-105139272D02*
X155286869Y-105405939D01*
X155286869Y-105405939D02*
X155186869Y-105405939D01*
X155186869Y-105405939D02*
X155120202Y-105439272D01*
X155120202Y-105439272D02*
X155086869Y-105472605D01*
X155086869Y-105472605D02*
X155053535Y-105539272D01*
X155053535Y-105539272D02*
X155053535Y-105705939D01*
X155053535Y-105705939D02*
X155086869Y-105772605D01*
X155086869Y-105772605D02*
X155120202Y-105805939D01*
X155120202Y-105805939D02*
X155186869Y-105839272D01*
X155186869Y-105839272D02*
X155386869Y-105839272D01*
X155386869Y-105839272D02*
X155453535Y-105805939D01*
X155453535Y-105805939D02*
X155486869Y-105772605D01*
X154753535Y-105772605D02*
X154720202Y-105805939D01*
X154720202Y-105805939D02*
X154753535Y-105839272D01*
X154753535Y-105839272D02*
X154786868Y-105805939D01*
X154786868Y-105805939D02*
X154753535Y-105772605D01*
X154753535Y-105772605D02*
X154753535Y-105839272D01*
X154486869Y-105139272D02*
X154053535Y-105139272D01*
X154053535Y-105139272D02*
X154286869Y-105405939D01*
X154286869Y-105405939D02*
X154186869Y-105405939D01*
X154186869Y-105405939D02*
X154120202Y-105439272D01*
X154120202Y-105439272D02*
X154086869Y-105472605D01*
X154086869Y-105472605D02*
X154053535Y-105539272D01*
X154053535Y-105539272D02*
X154053535Y-105705939D01*
X154053535Y-105705939D02*
X154086869Y-105772605D01*
X154086869Y-105772605D02*
X154120202Y-105805939D01*
X154120202Y-105805939D02*
X154186869Y-105839272D01*
X154186869Y-105839272D02*
X154386869Y-105839272D01*
X154386869Y-105839272D02*
X154453535Y-105805939D01*
X154453535Y-105805939D02*
X154486869Y-105772605D01*
X153786868Y-105805939D02*
X153686868Y-105839272D01*
X153686868Y-105839272D02*
X153520202Y-105839272D01*
X153520202Y-105839272D02*
X153453535Y-105805939D01*
X153453535Y-105805939D02*
X153420202Y-105772605D01*
X153420202Y-105772605D02*
X153386868Y-105705939D01*
X153386868Y-105705939D02*
X153386868Y-105639272D01*
X153386868Y-105639272D02*
X153420202Y-105572605D01*
X153420202Y-105572605D02*
X153453535Y-105539272D01*
X153453535Y-105539272D02*
X153520202Y-105505939D01*
X153520202Y-105505939D02*
X153653535Y-105472605D01*
X153653535Y-105472605D02*
X153720202Y-105439272D01*
X153720202Y-105439272D02*
X153753535Y-105405939D01*
X153753535Y-105405939D02*
X153786868Y-105339272D01*
X153786868Y-105339272D02*
X153786868Y-105272605D01*
X153786868Y-105272605D02*
X153753535Y-105205939D01*
X153753535Y-105205939D02*
X153720202Y-105172605D01*
X153720202Y-105172605D02*
X153653535Y-105139272D01*
X153653535Y-105139272D02*
X153486868Y-105139272D01*
X153486868Y-105139272D02*
X153386868Y-105172605D01*
X153153535Y-105139272D02*
X152986868Y-105839272D01*
X152986868Y-105839272D02*
X152853535Y-105339272D01*
X152853535Y-105339272D02*
X152720201Y-105839272D01*
X152720201Y-105839272D02*
X152553535Y-105139272D01*
X151920201Y-105839272D02*
X152320201Y-105839272D01*
X152120201Y-105839272D02*
X152120201Y-105139272D01*
X152120201Y-105139272D02*
X152186868Y-105239272D01*
X152186868Y-105239272D02*
X152253535Y-105305939D01*
X152253535Y-105305939D02*
X152320201Y-105339272D01*
X155486869Y-106266233D02*
X155053535Y-106266233D01*
X155053535Y-106266233D02*
X155286869Y-106532900D01*
X155286869Y-106532900D02*
X155186869Y-106532900D01*
X155186869Y-106532900D02*
X155120202Y-106566233D01*
X155120202Y-106566233D02*
X155086869Y-106599566D01*
X155086869Y-106599566D02*
X155053535Y-106666233D01*
X155053535Y-106666233D02*
X155053535Y-106832900D01*
X155053535Y-106832900D02*
X155086869Y-106899566D01*
X155086869Y-106899566D02*
X155120202Y-106932900D01*
X155120202Y-106932900D02*
X155186869Y-106966233D01*
X155186869Y-106966233D02*
X155386869Y-106966233D01*
X155386869Y-106966233D02*
X155453535Y-106932900D01*
X155453535Y-106932900D02*
X155486869Y-106899566D01*
X154753535Y-106899566D02*
X154720202Y-106932900D01*
X154720202Y-106932900D02*
X154753535Y-106966233D01*
X154753535Y-106966233D02*
X154786868Y-106932900D01*
X154786868Y-106932900D02*
X154753535Y-106899566D01*
X154753535Y-106899566D02*
X154753535Y-106966233D01*
X154486869Y-106266233D02*
X154053535Y-106266233D01*
X154053535Y-106266233D02*
X154286869Y-106532900D01*
X154286869Y-106532900D02*
X154186869Y-106532900D01*
X154186869Y-106532900D02*
X154120202Y-106566233D01*
X154120202Y-106566233D02*
X154086869Y-106599566D01*
X154086869Y-106599566D02*
X154053535Y-106666233D01*
X154053535Y-106666233D02*
X154053535Y-106832900D01*
X154053535Y-106832900D02*
X154086869Y-106899566D01*
X154086869Y-106899566D02*
X154120202Y-106932900D01*
X154120202Y-106932900D02*
X154186869Y-106966233D01*
X154186869Y-106966233D02*
X154386869Y-106966233D01*
X154386869Y-106966233D02*
X154453535Y-106932900D01*
X154453535Y-106932900D02*
X154486869Y-106899566D01*
X153786868Y-106932900D02*
X153686868Y-106966233D01*
X153686868Y-106966233D02*
X153520202Y-106966233D01*
X153520202Y-106966233D02*
X153453535Y-106932900D01*
X153453535Y-106932900D02*
X153420202Y-106899566D01*
X153420202Y-106899566D02*
X153386868Y-106832900D01*
X153386868Y-106832900D02*
X153386868Y-106766233D01*
X153386868Y-106766233D02*
X153420202Y-106699566D01*
X153420202Y-106699566D02*
X153453535Y-106666233D01*
X153453535Y-106666233D02*
X153520202Y-106632900D01*
X153520202Y-106632900D02*
X153653535Y-106599566D01*
X153653535Y-106599566D02*
X153720202Y-106566233D01*
X153720202Y-106566233D02*
X153753535Y-106532900D01*
X153753535Y-106532900D02*
X153786868Y-106466233D01*
X153786868Y-106466233D02*
X153786868Y-106399566D01*
X153786868Y-106399566D02*
X153753535Y-106332900D01*
X153753535Y-106332900D02*
X153720202Y-106299566D01*
X153720202Y-106299566D02*
X153653535Y-106266233D01*
X153653535Y-106266233D02*
X153486868Y-106266233D01*
X153486868Y-106266233D02*
X153386868Y-106299566D01*
X153153535Y-106266233D02*
X152986868Y-106966233D01*
X152986868Y-106966233D02*
X152853535Y-106466233D01*
X152853535Y-106466233D02*
X152720201Y-106966233D01*
X152720201Y-106966233D02*
X152553535Y-106266233D01*
X152320201Y-106332900D02*
X152286868Y-106299566D01*
X152286868Y-106299566D02*
X152220201Y-106266233D01*
X152220201Y-106266233D02*
X152053535Y-106266233D01*
X152053535Y-106266233D02*
X151986868Y-106299566D01*
X151986868Y-106299566D02*
X151953535Y-106332900D01*
X151953535Y-106332900D02*
X151920201Y-106399566D01*
X151920201Y-106399566D02*
X151920201Y-106466233D01*
X151920201Y-106466233D02*
X151953535Y-106566233D01*
X151953535Y-106566233D02*
X152353535Y-106966233D01*
X152353535Y-106966233D02*
X151920201Y-106966233D01*
X154412135Y-110601173D02*
X154312135Y-110634506D01*
X154312135Y-110634506D02*
X154145469Y-110634506D01*
X154145469Y-110634506D02*
X154078802Y-110601173D01*
X154078802Y-110601173D02*
X154045469Y-110567839D01*
X154045469Y-110567839D02*
X154012135Y-110501173D01*
X154012135Y-110501173D02*
X154012135Y-110434506D01*
X154012135Y-110434506D02*
X154045469Y-110367839D01*
X154045469Y-110367839D02*
X154078802Y-110334506D01*
X154078802Y-110334506D02*
X154145469Y-110301173D01*
X154145469Y-110301173D02*
X154278802Y-110267839D01*
X154278802Y-110267839D02*
X154345469Y-110234506D01*
X154345469Y-110234506D02*
X154378802Y-110201173D01*
X154378802Y-110201173D02*
X154412135Y-110134506D01*
X154412135Y-110134506D02*
X154412135Y-110067839D01*
X154412135Y-110067839D02*
X154378802Y-110001173D01*
X154378802Y-110001173D02*
X154345469Y-109967839D01*
X154345469Y-109967839D02*
X154278802Y-109934506D01*
X154278802Y-109934506D02*
X154112135Y-109934506D01*
X154112135Y-109934506D02*
X154012135Y-109967839D01*
X153312135Y-110567839D02*
X153345468Y-110601173D01*
X153345468Y-110601173D02*
X153445468Y-110634506D01*
X153445468Y-110634506D02*
X153512135Y-110634506D01*
X153512135Y-110634506D02*
X153612135Y-110601173D01*
X153612135Y-110601173D02*
X153678802Y-110534506D01*
X153678802Y-110534506D02*
X153712135Y-110467839D01*
X153712135Y-110467839D02*
X153745468Y-110334506D01*
X153745468Y-110334506D02*
X153745468Y-110234506D01*
X153745468Y-110234506D02*
X153712135Y-110101173D01*
X153712135Y-110101173D02*
X153678802Y-110034506D01*
X153678802Y-110034506D02*
X153612135Y-109967839D01*
X153612135Y-109967839D02*
X153512135Y-109934506D01*
X153512135Y-109934506D02*
X153445468Y-109934506D01*
X153445468Y-109934506D02*
X153345468Y-109967839D01*
X153345468Y-109967839D02*
X153312135Y-110001173D01*
X152678802Y-110634506D02*
X153012135Y-110634506D01*
X153012135Y-110634506D02*
X153012135Y-109934506D01*
X154412135Y-111728134D02*
X154312135Y-111761467D01*
X154312135Y-111761467D02*
X154145469Y-111761467D01*
X154145469Y-111761467D02*
X154078802Y-111728134D01*
X154078802Y-111728134D02*
X154045469Y-111694800D01*
X154045469Y-111694800D02*
X154012135Y-111628134D01*
X154012135Y-111628134D02*
X154012135Y-111561467D01*
X154012135Y-111561467D02*
X154045469Y-111494800D01*
X154045469Y-111494800D02*
X154078802Y-111461467D01*
X154078802Y-111461467D02*
X154145469Y-111428134D01*
X154145469Y-111428134D02*
X154278802Y-111394800D01*
X154278802Y-111394800D02*
X154345469Y-111361467D01*
X154345469Y-111361467D02*
X154378802Y-111328134D01*
X154378802Y-111328134D02*
X154412135Y-111261467D01*
X154412135Y-111261467D02*
X154412135Y-111194800D01*
X154412135Y-111194800D02*
X154378802Y-111128134D01*
X154378802Y-111128134D02*
X154345469Y-111094800D01*
X154345469Y-111094800D02*
X154278802Y-111061467D01*
X154278802Y-111061467D02*
X154112135Y-111061467D01*
X154112135Y-111061467D02*
X154012135Y-111094800D01*
X153712135Y-111761467D02*
X153712135Y-111061467D01*
X153712135Y-111061467D02*
X153545468Y-111061467D01*
X153545468Y-111061467D02*
X153445468Y-111094800D01*
X153445468Y-111094800D02*
X153378802Y-111161467D01*
X153378802Y-111161467D02*
X153345468Y-111228134D01*
X153345468Y-111228134D02*
X153312135Y-111361467D01*
X153312135Y-111361467D02*
X153312135Y-111461467D01*
X153312135Y-111461467D02*
X153345468Y-111594800D01*
X153345468Y-111594800D02*
X153378802Y-111661467D01*
X153378802Y-111661467D02*
X153445468Y-111728134D01*
X153445468Y-111728134D02*
X153545468Y-111761467D01*
X153545468Y-111761467D02*
X153712135Y-111761467D01*
X153045468Y-111561467D02*
X152712135Y-111561467D01*
X153112135Y-111761467D02*
X152878802Y-111061467D01*
X152878802Y-111061467D02*
X152645468Y-111761467D01*
X154478802Y-112188428D02*
X154245469Y-112888428D01*
X154245469Y-112888428D02*
X154012135Y-112188428D01*
X153778802Y-112621761D02*
X153245469Y-112621761D01*
X153512135Y-112888428D02*
X153512135Y-112355095D01*
X154012135Y-113348722D02*
X154078802Y-113315389D01*
X154078802Y-113315389D02*
X154178802Y-113315389D01*
X154178802Y-113315389D02*
X154278802Y-113348722D01*
X154278802Y-113348722D02*
X154345469Y-113415389D01*
X154345469Y-113415389D02*
X154378802Y-113482056D01*
X154378802Y-113482056D02*
X154412135Y-113615389D01*
X154412135Y-113615389D02*
X154412135Y-113715389D01*
X154412135Y-113715389D02*
X154378802Y-113848722D01*
X154378802Y-113848722D02*
X154345469Y-113915389D01*
X154345469Y-113915389D02*
X154278802Y-113982056D01*
X154278802Y-113982056D02*
X154178802Y-114015389D01*
X154178802Y-114015389D02*
X154112135Y-114015389D01*
X154112135Y-114015389D02*
X154012135Y-113982056D01*
X154012135Y-113982056D02*
X153978802Y-113948722D01*
X153978802Y-113948722D02*
X153978802Y-113715389D01*
X153978802Y-113715389D02*
X154112135Y-113715389D01*
X153678802Y-114015389D02*
X153678802Y-113315389D01*
X153678802Y-113315389D02*
X153278802Y-114015389D01*
X153278802Y-114015389D02*
X153278802Y-113315389D01*
X152945469Y-114015389D02*
X152945469Y-113315389D01*
X152945469Y-113315389D02*
X152778802Y-113315389D01*
X152778802Y-113315389D02*
X152678802Y-113348722D01*
X152678802Y-113348722D02*
X152612136Y-113415389D01*
X152612136Y-113415389D02*
X152578802Y-113482056D01*
X152578802Y-113482056D02*
X152545469Y-113615389D01*
X152545469Y-113615389D02*
X152545469Y-113715389D01*
X152545469Y-113715389D02*
X152578802Y-113848722D01*
X152578802Y-113848722D02*
X152612136Y-113915389D01*
X152612136Y-113915389D02*
X152678802Y-113982056D01*
X152678802Y-113982056D02*
X152778802Y-114015389D01*
X152778802Y-114015389D02*
X152945469Y-114015389D01*
X154012135Y-114475683D02*
X154078802Y-114442350D01*
X154078802Y-114442350D02*
X154178802Y-114442350D01*
X154178802Y-114442350D02*
X154278802Y-114475683D01*
X154278802Y-114475683D02*
X154345469Y-114542350D01*
X154345469Y-114542350D02*
X154378802Y-114609017D01*
X154378802Y-114609017D02*
X154412135Y-114742350D01*
X154412135Y-114742350D02*
X154412135Y-114842350D01*
X154412135Y-114842350D02*
X154378802Y-114975683D01*
X154378802Y-114975683D02*
X154345469Y-115042350D01*
X154345469Y-115042350D02*
X154278802Y-115109017D01*
X154278802Y-115109017D02*
X154178802Y-115142350D01*
X154178802Y-115142350D02*
X154112135Y-115142350D01*
X154112135Y-115142350D02*
X154012135Y-115109017D01*
X154012135Y-115109017D02*
X153978802Y-115075683D01*
X153978802Y-115075683D02*
X153978802Y-114842350D01*
X153978802Y-114842350D02*
X154112135Y-114842350D01*
X153678802Y-115142350D02*
X153678802Y-114442350D01*
X153678802Y-114442350D02*
X153278802Y-115142350D01*
X153278802Y-115142350D02*
X153278802Y-114442350D01*
X152945469Y-115142350D02*
X152945469Y-114442350D01*
X152945469Y-114442350D02*
X152778802Y-114442350D01*
X152778802Y-114442350D02*
X152678802Y-114475683D01*
X152678802Y-114475683D02*
X152612136Y-114542350D01*
X152612136Y-114542350D02*
X152578802Y-114609017D01*
X152578802Y-114609017D02*
X152545469Y-114742350D01*
X152545469Y-114742350D02*
X152545469Y-114842350D01*
X152545469Y-114842350D02*
X152578802Y-114975683D01*
X152578802Y-114975683D02*
X152612136Y-115042350D01*
X152612136Y-115042350D02*
X152678802Y-115109017D01*
X152678802Y-115109017D02*
X152778802Y-115142350D01*
X152778802Y-115142350D02*
X152945469Y-115142350D01*
X153978802Y-116269311D02*
X154212135Y-115935978D01*
X154378802Y-116269311D02*
X154378802Y-115569311D01*
X154378802Y-115569311D02*
X154112135Y-115569311D01*
X154112135Y-115569311D02*
X154045469Y-115602644D01*
X154045469Y-115602644D02*
X154012135Y-115635978D01*
X154012135Y-115635978D02*
X153978802Y-115702644D01*
X153978802Y-115702644D02*
X153978802Y-115802644D01*
X153978802Y-115802644D02*
X154012135Y-115869311D01*
X154012135Y-115869311D02*
X154045469Y-115902644D01*
X154045469Y-115902644D02*
X154112135Y-115935978D01*
X154112135Y-115935978D02*
X154378802Y-115935978D01*
X153745469Y-115569311D02*
X153278802Y-116269311D01*
X153278802Y-115569311D02*
X153745469Y-116269311D01*
X154478802Y-116696272D02*
X154078802Y-116696272D01*
X154278802Y-117396272D02*
X154278802Y-116696272D01*
X153912136Y-116696272D02*
X153445469Y-117396272D01*
X153445469Y-116696272D02*
X153912136Y-117396272D01*
X154378802Y-118523233D02*
X154378802Y-117823233D01*
X154378802Y-117823233D02*
X154112135Y-117823233D01*
X154112135Y-117823233D02*
X154045469Y-117856566D01*
X154045469Y-117856566D02*
X154012135Y-117889900D01*
X154012135Y-117889900D02*
X153978802Y-117956566D01*
X153978802Y-117956566D02*
X153978802Y-118056566D01*
X153978802Y-118056566D02*
X154012135Y-118123233D01*
X154012135Y-118123233D02*
X154045469Y-118156566D01*
X154045469Y-118156566D02*
X154112135Y-118189900D01*
X154112135Y-118189900D02*
X154378802Y-118189900D01*
X153745469Y-117823233D02*
X153578802Y-118523233D01*
X153578802Y-118523233D02*
X153445469Y-118023233D01*
X153445469Y-118023233D02*
X153312135Y-118523233D01*
X153312135Y-118523233D02*
X153145469Y-117823233D01*
X152878802Y-118523233D02*
X152878802Y-117823233D01*
X152878802Y-117823233D02*
X152645469Y-118323233D01*
X152645469Y-118323233D02*
X152412135Y-117823233D01*
X152412135Y-117823233D02*
X152412135Y-118523233D01*
D13*
G36*
X148678290Y-112730000D02*
G01*
X148678290Y-107747445D01*
X147964185Y-107747445D01*
X147964185Y-112730000D01*
X148678290Y-112730000D01*
G37*
G36*
X147271451Y-112730000D02*
G01*
X146279520Y-112730000D01*
X145961383Y-112706343D01*
X145699218Y-112640370D01*
X145482930Y-112537016D01*
X145304685Y-112397524D01*
X145164959Y-112222341D01*
X145059493Y-111999695D01*
X144990836Y-111718723D01*
X144965799Y-111365598D01*
X144965799Y-109035216D01*
X144966179Y-109030026D01*
X145679904Y-109030026D01*
X145679904Y-111440397D01*
X145696561Y-111652958D01*
X145740426Y-111806154D01*
X145805383Y-111914534D01*
X145899939Y-111993821D01*
X146036454Y-112045945D01*
X146230061Y-112065659D01*
X146557346Y-112065659D01*
X146557346Y-108411786D01*
X146230061Y-108411786D01*
X146027964Y-108433118D01*
X145890045Y-108488896D01*
X145798361Y-108573292D01*
X145712612Y-108756680D01*
X145679904Y-109030026D01*
X144966179Y-109030026D01*
X144988356Y-108727110D01*
X145051403Y-108471674D01*
X145150339Y-108259595D01*
X145283925Y-108083585D01*
X145452574Y-107942255D01*
X145658546Y-107837905D01*
X145909676Y-107771344D01*
X146216322Y-107747445D01*
X147271451Y-107747445D01*
X147271451Y-112730000D01*
G37*
G36*
X144291688Y-112730000D02*
G01*
X144291688Y-107747445D01*
X142161891Y-107747445D01*
X142161891Y-108411786D01*
X143577583Y-108411786D01*
X143577583Y-109877243D01*
X142347515Y-109877243D01*
X142347515Y-110541584D01*
X143577583Y-110541584D01*
X143577583Y-112015284D01*
X142161891Y-112015284D01*
X142161891Y-112730000D01*
X144291688Y-112730000D01*
G37*
G36*
X141722254Y-112730000D02*
G01*
X141722254Y-107747445D01*
X141042953Y-107747445D01*
X139944166Y-110749495D01*
X139944166Y-107747445D01*
X139230061Y-107747445D01*
X139230061Y-112730000D01*
X139895622Y-112730000D01*
X141008148Y-109734972D01*
X141008148Y-112730000D01*
X141722254Y-112730000D01*
G37*
G36*
X138118145Y-112730000D02*
G01*
X138118145Y-108411786D01*
X138947655Y-108411786D01*
X138947655Y-107747445D01*
X136583384Y-107747445D01*
X136583384Y-108411786D01*
X137404040Y-108411786D01*
X137404040Y-112730000D01*
X138118145Y-112730000D01*
G37*
G36*
X136256099Y-112730000D02*
G01*
X136256099Y-107747445D01*
X135541994Y-107747445D01*
X135541994Y-112730000D01*
X136256099Y-112730000D01*
G37*
G36*
X134849260Y-112730000D02*
G01*
X133857329Y-112730000D01*
X133539192Y-112706343D01*
X133277027Y-112640370D01*
X133060739Y-112537016D01*
X132882494Y-112397524D01*
X132742768Y-112222341D01*
X132637302Y-111999695D01*
X132568645Y-111718723D01*
X132543607Y-111365598D01*
X132543607Y-109035216D01*
X132543987Y-109030026D01*
X133257712Y-109030026D01*
X133257712Y-111440397D01*
X133274370Y-111652958D01*
X133318235Y-111806154D01*
X133383192Y-111914534D01*
X133477747Y-111993821D01*
X133614263Y-112045945D01*
X133807869Y-112065659D01*
X134135155Y-112065659D01*
X134135155Y-108411786D01*
X133807869Y-108411786D01*
X133605773Y-108433118D01*
X133467854Y-108488896D01*
X133376170Y-108573292D01*
X133290421Y-108756680D01*
X133257712Y-109030026D01*
X132543987Y-109030026D01*
X132566165Y-108727110D01*
X132629212Y-108471674D01*
X132728148Y-108259595D01*
X132861734Y-108083585D01*
X133030383Y-107942255D01*
X133236354Y-107837905D01*
X133487485Y-107771344D01*
X133794131Y-107747445D01*
X134849260Y-107747445D01*
X134849260Y-112730000D01*
G37*
G36*
X131869497Y-112730000D02*
G01*
X131869497Y-107747445D01*
X129739699Y-107747445D01*
X129739699Y-108411786D01*
X131155392Y-108411786D01*
X131155392Y-109877243D01*
X129925324Y-109877243D01*
X129925324Y-110541584D01*
X131155392Y-110541584D01*
X131155392Y-112015284D01*
X129739699Y-112015284D01*
X129739699Y-112730000D01*
X131869497Y-112730000D01*
G37*
G36*
X129280523Y-112730000D02*
G01*
X129280523Y-107747445D01*
X128601222Y-107747445D01*
X127679206Y-110385573D01*
X127665162Y-110385573D01*
X126749556Y-107747445D01*
X126056517Y-107747445D01*
X126056517Y-112730000D01*
X126770622Y-112730000D01*
X126770622Y-109699862D01*
X126784666Y-109699862D01*
X127496024Y-111841261D01*
X127855061Y-111841261D01*
X128566418Y-109699862D01*
X128566418Y-112730000D01*
X129280523Y-112730000D01*
G37*
G36*
X125431256Y-112730000D02*
G01*
X125431256Y-112015284D01*
X124717151Y-112015284D01*
X124717151Y-112730000D01*
X125431256Y-112730000D01*
G37*
G36*
X122723213Y-109498972D02*
G01*
X122855645Y-109342142D01*
X123007145Y-109229389D01*
X123180988Y-109158995D01*
X123382058Y-109134745D01*
X123628218Y-109160614D01*
X123781700Y-109225725D01*
X123945877Y-109361736D01*
X124054324Y-109533734D01*
X124110818Y-109750847D01*
X124131884Y-110318101D01*
X124131884Y-111669680D01*
X124104101Y-112138932D01*
X124065838Y-112305107D01*
X124013121Y-112432939D01*
X123910810Y-112578199D01*
X123778123Y-112681128D01*
X123609040Y-112745745D01*
X123392744Y-112769078D01*
X123162545Y-112741296D01*
X122988217Y-112664665D01*
X122848693Y-112550176D01*
X122716191Y-112407599D01*
X122716191Y-112730000D01*
X122002086Y-112730000D01*
X122002086Y-110235059D01*
X122716191Y-110235059D01*
X122716191Y-111615642D01*
X122741970Y-111798163D01*
X122813583Y-111934684D01*
X122925948Y-112026328D01*
X123070343Y-112057110D01*
X123183498Y-112041255D01*
X123269239Y-111997029D01*
X123334431Y-111923998D01*
X123395148Y-111777169D01*
X123417779Y-111573510D01*
X123417779Y-110270169D01*
X123398950Y-110109820D01*
X123345116Y-109975856D01*
X123285899Y-109908416D01*
X123197963Y-109865555D01*
X123070343Y-109849460D01*
X122930179Y-109876842D01*
X122816941Y-109958148D01*
X122742206Y-110079468D01*
X122716191Y-110235059D01*
X122002086Y-110235059D01*
X122002086Y-107747445D01*
X122723213Y-107747445D01*
X122723213Y-109498972D01*
G37*
G36*
X120625324Y-109151511D02*
G01*
X120813903Y-109199049D01*
X120975961Y-109274879D01*
X121184187Y-109438401D01*
X121336830Y-109646128D01*
X121400618Y-109793636D01*
X121441854Y-109967918D01*
X121469637Y-110367255D01*
X121469637Y-111536568D01*
X121441854Y-111935905D01*
X121400618Y-112110187D01*
X121336830Y-112257695D01*
X121184199Y-112465484D01*
X120975961Y-112629249D01*
X120813922Y-112704907D01*
X120625342Y-112752346D01*
X120404738Y-112769078D01*
X120168055Y-112747356D01*
X119963574Y-112685120D01*
X119780274Y-112584728D01*
X119627130Y-112454310D01*
X119469945Y-112247369D01*
X119373737Y-111999608D01*
X119339839Y-111699295D01*
X120053944Y-111699295D01*
X120080471Y-111815845D01*
X120134544Y-111936210D01*
X120189388Y-111998435D01*
X120275122Y-112038874D01*
X120404433Y-112054363D01*
X120552951Y-112030435D01*
X120660887Y-111963688D01*
X120730352Y-111858053D01*
X120755532Y-111706317D01*
X120755532Y-111225464D01*
X119339839Y-111225464D01*
X119339839Y-110254293D01*
X120053944Y-110254293D01*
X120053944Y-110658820D01*
X120755532Y-110658820D01*
X120755532Y-110254293D01*
X120729431Y-110069650D01*
X120660887Y-109950821D01*
X120552030Y-109875833D01*
X120404433Y-109849460D01*
X120257362Y-109875807D01*
X120148588Y-109950821D01*
X120080045Y-110069650D01*
X120053944Y-110254293D01*
X119339839Y-110254293D01*
X119339839Y-110243302D01*
X119372606Y-109935856D01*
X119466399Y-109674901D01*
X119620108Y-109450429D01*
X119773792Y-109319905D01*
X119959911Y-109219009D01*
X120167569Y-109156457D01*
X120404738Y-109134745D01*
X120625324Y-109151511D01*
G37*
G36*
X117532442Y-110165450D02*
G01*
X117561365Y-110000284D01*
X117640519Y-109890676D01*
X117756443Y-109821904D01*
X117887815Y-109799085D01*
X118038545Y-109827460D01*
X118145491Y-109907773D01*
X118213306Y-110024501D01*
X118235861Y-110156901D01*
X118223816Y-110253635D01*
X118186707Y-110350464D01*
X118110736Y-110432340D01*
X117933611Y-110522044D01*
X117511987Y-110690572D01*
X117259650Y-110814174D01*
X117080741Y-110954870D01*
X116960608Y-111112196D01*
X116876819Y-111295073D01*
X116826521Y-111488364D01*
X116809483Y-111695020D01*
X116830049Y-111913380D01*
X116890389Y-112112676D01*
X116986366Y-112294779D01*
X117111734Y-112453089D01*
X117265257Y-112584038D01*
X117449094Y-112684815D01*
X117652473Y-112747585D01*
X117878046Y-112769078D01*
X118157627Y-112737696D01*
X118398224Y-112647127D01*
X118608637Y-112497053D01*
X118741105Y-112350233D01*
X118847995Y-112166409D01*
X118915351Y-111956722D01*
X118939281Y-111702958D01*
X118270361Y-111702958D01*
X118233938Y-111845600D01*
X118167168Y-111978037D01*
X118102652Y-112045743D01*
X118010095Y-112088723D01*
X117879267Y-112104738D01*
X117731177Y-112079480D01*
X117598387Y-112003072D01*
X117506011Y-111883314D01*
X117473824Y-111718529D01*
X117493739Y-111579717D01*
X117551065Y-111466043D01*
X117650531Y-111373934D01*
X117832250Y-111283166D01*
X118176632Y-111156770D01*
X118390133Y-111056266D01*
X118565207Y-110931300D01*
X118706945Y-110781552D01*
X118812804Y-110606475D01*
X118877619Y-110406002D01*
X118900202Y-110173693D01*
X118878956Y-109955506D01*
X118816549Y-109756343D01*
X118716596Y-109575567D01*
X118586045Y-109422646D01*
X118434984Y-109299213D01*
X118258454Y-109208628D01*
X118064497Y-109153507D01*
X117853621Y-109134745D01*
X117643159Y-109154275D01*
X117452452Y-109211376D01*
X117279717Y-109304179D01*
X117134631Y-109427226D01*
X117017012Y-109578128D01*
X116925498Y-109758175D01*
X116868008Y-109954589D01*
X116848562Y-110165450D01*
X117532442Y-110165450D01*
G37*
G36*
X116360076Y-112730000D02*
G01*
X116360076Y-109173824D01*
X115645971Y-109173824D01*
X115645971Y-112730000D01*
X116360076Y-112730000D01*
G37*
G36*
X116360076Y-108462161D02*
G01*
X116360076Y-107747445D01*
X115645971Y-107747445D01*
X115645971Y-108462161D01*
X116360076Y-108462161D01*
G37*
G36*
X114559490Y-109170385D02*
G01*
X114712048Y-109235495D01*
X114875448Y-109371601D01*
X114983423Y-109543695D01*
X115039638Y-109760922D01*
X115060704Y-110328176D01*
X115060704Y-111680671D01*
X115032922Y-112149923D01*
X114994635Y-112316324D01*
X114941941Y-112443930D01*
X114839611Y-112589342D01*
X114706914Y-112692361D01*
X114537837Y-112757026D01*
X114321564Y-112780375D01*
X114115039Y-112755990D01*
X113941156Y-112686036D01*
X113790517Y-112573086D01*
X113658750Y-112416147D01*
X113645012Y-112416147D01*
X113645012Y-113115598D01*
X113665488Y-113272726D01*
X113722254Y-113391898D01*
X113819114Y-113471101D01*
X113974740Y-113500280D01*
X114139156Y-113470711D01*
X114251955Y-113388539D01*
X114323835Y-113270935D01*
X114346599Y-113150708D01*
X115060704Y-113150708D01*
X115004177Y-113448081D01*
X114917517Y-113665144D01*
X114795469Y-113847719D01*
X114655566Y-113983881D01*
X114500875Y-114091971D01*
X114334387Y-114162178D01*
X114160611Y-114202207D01*
X113999164Y-114214996D01*
X113732505Y-114189983D01*
X113517700Y-114120352D01*
X113330507Y-114009375D01*
X113182172Y-113871530D01*
X113067817Y-113714383D01*
X112990441Y-113538443D01*
X112945549Y-113352159D01*
X112930907Y-113170553D01*
X112930907Y-110299478D01*
X113645012Y-110299478D01*
X113645012Y-111680366D01*
X113671027Y-111835957D01*
X113745762Y-111957276D01*
X113858975Y-112038344D01*
X113999164Y-112065659D01*
X114126815Y-112049594D01*
X114214746Y-112006826D01*
X114273937Y-111939569D01*
X114327770Y-111805605D01*
X114346599Y-111645256D01*
X114346599Y-110341304D01*
X114323977Y-110137914D01*
X114263251Y-109991121D01*
X114198035Y-109917905D01*
X114112292Y-109873587D01*
X113999164Y-109857704D01*
X113854795Y-109888551D01*
X113742404Y-109980436D01*
X113670791Y-110116956D01*
X113645012Y-110299478D01*
X112930907Y-110299478D01*
X112930907Y-109183593D01*
X113645012Y-109183593D01*
X113645012Y-109506605D01*
X113777513Y-109364028D01*
X113917037Y-109248928D01*
X114088007Y-109172602D01*
X114314542Y-109144515D01*
X114559490Y-109170385D01*
G37*
G36*
X112339839Y-112730000D02*
G01*
X112339839Y-109173824D01*
X111625734Y-109173824D01*
X111625734Y-109518817D01*
X111611995Y-109518817D01*
X111488329Y-109365361D01*
X111343633Y-109243128D01*
X111170952Y-109163575D01*
X110942159Y-109134745D01*
X110810817Y-109145958D01*
X110677461Y-109180235D01*
X110552754Y-109240146D01*
X110440240Y-109331055D01*
X110347872Y-109448122D01*
X110272934Y-109600943D01*
X110227024Y-109776016D01*
X110210041Y-110003639D01*
X110210041Y-112730000D01*
X110924146Y-112730000D01*
X110924146Y-110270169D01*
X110948601Y-110088730D01*
X111014516Y-109961812D01*
X111121500Y-109878640D01*
X111271582Y-109849460D01*
X111399120Y-109865460D01*
X111488253Y-109908285D01*
X111549408Y-109975856D01*
X111604147Y-110118484D01*
X111625734Y-110340083D01*
X111625734Y-112730000D01*
X112339839Y-112730000D01*
G37*
M02*
