<svg xmlns="http://www.w3.org/2000/svg" width="512" height="512" viewBox="0 0 128 128">
  <defs><filter id="soften" x="-2%" y="-2%" width="104%" height="104%"><feGaussianBlur stdDeviation="0.35"/></filter></defs>
  <rect x="0" y="0" width="128" height="128" fill="#000000" shape-rendering="crispEdges"/>
  <g filter="url(#soften)">
  <rect x="3" y="8" width="1" height="1" fill="#ffffff"/>
  <rect x="34" y="8" width="1" height="1" fill="#ffffff"/>
  <rect x="46" y="8" width="3" height="1" fill="#ffffff"/>
  <rect x="58" y="8" width="2" height="1" fill="#ffffff"/>
  <rect x="65" y="8" width="1" height="1" fill="#ffffff"/>
  <rect x="69" y="8" width="1" height="1" fill="#ffffff"/>
  <rect x="88" y="8" width="1" height="1" fill="#ffffff"/>
  <rect x="3" y="9" width="1" height="1" fill="#ffffff"/>
  <rect x="35" y="9" width="1" height="1" fill="#ffffff"/>
  <rect x="45" y="9" width="1" height="1" fill="#ffffff"/>
  <rect x="49" y="9" width="1" height="1" fill="#ffffff"/>
  <rect x="59" y="9" width="1" height="1" fill="#ffffff"/>
  <rect x="69" y="9" width="1" height="1" fill="#ffffff"/>
  <rect x="88" y="9" width="1" height="1" fill="#ffffff"/>
  <rect x="3" y="10" width="1" height="1" fill="#ffffff"/>
  <rect x="10" y="10" width="3" height="1" fill="#ffffff"/>
  <rect x="15" y="10" width="1" height="1" fill="#ffffff"/>
  <rect x="17" y="10" width="2" height="1" fill="#ffffff"/>
  <rect x="22" y="10" width="3" height="1" fill="#ffffff"/>
  <rect x="36" y="10" width="1" height="1" fill="#ffffff"/>
  <rect x="45" y="10" width="1" height="1" fill="#ffffff"/>
  <rect x="52" y="10" width="3" height="1" fill="#ffffff"/>
  <rect x="59" y="10" width="1" height="1" fill="#ffffff"/>
  <rect x="64" y="10" width="2" height="1" fill="#ffffff"/>
  <rect x="69" y="10" width="1" height="1" fill="#ffffff"/>
  <rect x="71" y="10" width="2" height="1" fill="#ffffff"/>
  <rect x="75" y="10" width="1" height="1" fill="#ffffff"/>
  <rect x="77" y="10" width="2" height="1" fill="#ffffff"/>
  <rect x="82" y="10" width="3" height="1" fill="#ffffff"/>
  <rect x="87" y="10" width="4" height="1" fill="#ffffff"/>
  <rect x="94" y="10" width="3" height="1" fill="#ffffff"/>
  <rect x="3" y="11" width="1" height="1" fill="#ffffff"/>
  <rect x="9" y="11" width="1" height="1" fill="#ffffff"/>
  <rect x="13" y="11" width="1" height="1" fill="#ffffff"/>
  <rect x="15" y="11" width="2" height="1" fill="#ffffff"/>
  <rect x="19" y="11" width="1" height="1" fill="#ffffff"/>
  <rect x="21" y="11" width="1" height="1" fill="#ffffff"/>
  <rect x="37" y="11" width="1" height="1" fill="#ffffff"/>
  <rect x="45" y="11" width="1" height="1" fill="#ffffff"/>
  <rect x="55" y="11" width="1" height="1" fill="#ffffff"/>
  <rect x="59" y="11" width="1" height="1" fill="#ffffff"/>
  <rect x="65" y="11" width="1" height="1" fill="#ffffff"/>
  <rect x="69" y="11" width="2" height="1" fill="#ffffff"/>
  <rect x="73" y="11" width="1" height="1" fill="#ffffff"/>
  <rect x="75" y="11" width="2" height="1" fill="#ffffff"/>
  <rect x="79" y="11" width="1" height="1" fill="#ffffff"/>
  <rect x="85" y="11" width="1" height="1" fill="#ffffff"/>
  <rect x="88" y="11" width="1" height="1" fill="#ffffff"/>
  <rect x="93" y="11" width="1" height="1" fill="#ffffff"/>
  <rect x="97" y="11" width="1" height="1" fill="#ffffff"/>
  <rect x="3" y="12" width="1" height="1" fill="#ffffff"/>
  <rect x="9" y="12" width="5" height="1" fill="#ffffff"/>
  <rect x="15" y="12" width="1" height="1" fill="#ffffff"/>
  <rect x="19" y="12" width="1" height="1" fill="#ffffff"/>
  <rect x="22" y="12" width="3" height="1" fill="#ffffff"/>
  <rect x="36" y="12" width="1" height="1" fill="#ffffff"/>
  <rect x="45" y="12" width="1" height="1" fill="#ffffff"/>
  <rect x="52" y="12" width="4" height="1" fill="#ffffff"/>
  <rect x="59" y="12" width="1" height="1" fill="#ffffff"/>
  <rect x="65" y="12" width="1" height="1" fill="#ffffff"/>
  <rect x="69" y="12" width="1" height="1" fill="#ffffff"/>
  <rect x="73" y="12" width="1" height="1" fill="#ffffff"/>
  <rect x="75" y="12" width="1" height="1" fill="#ffffff"/>
  <rect x="82" y="12" width="4" height="1" fill="#ffffff"/>
  <rect x="88" y="12" width="1" height="1" fill="#ffffff"/>
  <rect x="93" y="12" width="5" height="1" fill="#ffffff"/>
  <rect x="3" y="13" width="1" height="1" fill="#ffffff"/>
  <rect x="9" y="13" width="1" height="1" fill="#ffffff"/>
  <rect x="15" y="13" width="1" height="1" fill="#ffffff"/>
  <rect x="19" y="13" width="1" height="1" fill="#ffffff"/>
  <rect x="25" y="13" width="1" height="1" fill="#ffffff"/>
  <rect x="35" y="13" width="1" height="1" fill="#ffffff"/>
  <rect x="45" y="13" width="1" height="1" fill="#ffffff"/>
  <rect x="49" y="13" width="1" height="1" fill="#ffffff"/>
  <rect x="51" y="13" width="1" height="1" fill="#ffffff"/>
  <rect x="55" y="13" width="1" height="1" fill="#ffffff"/>
  <rect x="59" y="13" width="1" height="1" fill="#ffffff"/>
  <rect x="65" y="13" width="1" height="1" fill="#ffffff"/>
  <rect x="69" y="13" width="2" height="1" fill="#ffffff"/>
  <rect x="73" y="13" width="1" height="1" fill="#ffffff"/>
  <rect x="75" y="13" width="1" height="1" fill="#ffffff"/>
  <rect x="81" y="13" width="1" height="1" fill="#ffffff"/>
  <rect x="85" y="13" width="1" height="1" fill="#ffffff"/>
  <rect x="88" y="13" width="1" height="1" fill="#ffffff"/>
  <rect x="91" y="13" width="1" height="1" fill="#ffffff"/>
  <rect x="93" y="13" width="1" height="1" fill="#ffffff"/>
  <rect x="3" y="14" width="5" height="1" fill="#ffffff"/>
  <rect x="10" y="14" width="3" height="1" fill="#ffffff"/>
  <rect x="15" y="14" width="1" height="1" fill="#ffffff"/>
  <rect x="19" y="14" width="1" height="1" fill="#ffffff"/>
  <rect x="21" y="14" width="4" height="1" fill="#ffffff"/>
  <rect x="34" y="14" width="1" height="1" fill="#ffffff"/>
  <rect x="46" y="14" width="3" height="1" fill="#ffffff"/>
  <rect x="52" y="14" width="4" height="1" fill="#ffffff"/>
  <rect x="58" y="14" width="3" height="1" fill="#ffffff"/>
  <rect x="64" y="14" width="3" height="1" fill="#ffffff"/>
  <rect x="69" y="14" width="1" height="1" fill="#ffffff"/>
  <rect x="71" y="14" width="2" height="1" fill="#ffffff"/>
  <rect x="75" y="14" width="1" height="1" fill="#ffffff"/>
  <rect x="82" y="14" width="4" height="1" fill="#ffffff"/>
  <rect x="89" y="14" width="2" height="1" fill="#ffffff"/>
  <rect x="94" y="14" width="3" height="1" fill="#ffffff"/>
  <rect x="3" y="30" width="4" height="1" fill="#ffffff"/>
  <rect x="8" y="30" width="20" height="1" fill="#ffffff"/>
  <rect x="30" y="30" width="1" height="1" fill="#ffffff"/>
  <rect x="34" y="30" width="3" height="1" fill="#ffffff"/>
  <rect x="38" y="30" width="2" height="1" fill="#ffffff"/>
  <rect x="42" y="30" width="5" height="1" fill="#ffffff"/>
  <rect x="50" y="30" width="5" height="1" fill="#ffffff"/>
  <rect x="3" y="31" width="4" height="1" fill="#ffffff"/>
  <rect x="8" y="31" width="4" height="1" fill="#ffffff"/>
  <rect x="13" y="31" width="2" height="1" fill="#ffffff"/>
  <rect x="17" y="31" width="3" height="1" fill="#ffffff"/>
  <rect x="22" y="31" width="2" height="1" fill="#ffffff"/>
  <rect x="25" y="31" width="2" height="1" fill="#ffffff"/>
  <rect x="28" y="31" width="3" height="1" fill="#ffffff"/>
  <rect x="32" y="31" width="5" height="1" fill="#ffffff"/>
  <rect x="38" y="31" width="1" height="1" fill="#ffffff"/>
  <rect x="40" y="31" width="9" height="1" fill="#ffffff"/>
  <rect x="50" y="31" width="5" height="1" fill="#ffffff"/>
  <rect x="3" y="32" width="4" height="1" fill="#ffffff"/>
  <rect x="8" y="32" width="3" height="1" fill="#ffffff"/>
  <rect x="12" y="32" width="1" height="1" fill="#ffffff"/>
  <rect x="14" y="32" width="1" height="1" fill="#ffffff"/>
  <rect x="16" y="32" width="1" height="1" fill="#ffffff"/>
  <rect x="18" y="32" width="1" height="1" fill="#ffffff"/>
  <rect x="21" y="32" width="6" height="1" fill="#ffffff"/>
  <rect x="29" y="32" width="2" height="1" fill="#ffffff"/>
  <rect x="33" y="32" width="3" height="1" fill="#ffffff"/>
  <rect x="37" y="32" width="2" height="1" fill="#ffffff"/>
  <rect x="41" y="32" width="7" height="1" fill="#ffffff"/>
  <rect x="49" y="32" width="6" height="1" fill="#ffffff"/>
  <rect x="3" y="33" width="4" height="1" fill="#ffffff"/>
  <rect x="8" y="33" width="3" height="1" fill="#ffffff"/>
  <rect x="13" y="33" width="2" height="1" fill="#ffffff"/>
  <rect x="16" y="33" width="1" height="1" fill="#ffffff"/>
  <rect x="18" y="33" width="3" height="1" fill="#ffffff"/>
  <rect x="22" y="33" width="5" height="1" fill="#ffffff"/>
  <rect x="28" y="33" width="1" height="1" fill="#ffffff"/>
  <rect x="30" y="33" width="3" height="1" fill="#ffffff"/>
  <rect x="34" y="33" width="1" height="1" fill="#ffffff"/>
  <rect x="36" y="33" width="3" height="1" fill="#ffffff"/>
  <rect x="40" y="33" width="1" height="1" fill="#ffffff"/>
  <rect x="42" y="33" width="7" height="1" fill="#ffffff"/>
  <rect x="50" y="33" width="5" height="1" fill="#ffffff"/>
  <rect x="3" y="34" width="4" height="1" fill="#ffffff"/>
  <rect x="10" y="34" width="2" height="1" fill="#ffffff"/>
  <rect x="14" y="34" width="1" height="1" fill="#ffffff"/>
  <rect x="16" y="34" width="1" height="1" fill="#ffffff"/>
  <rect x="18" y="34" width="1" height="1" fill="#ffffff"/>
  <rect x="21" y="34" width="3" height="1" fill="#ffffff"/>
  <rect x="25" y="34" width="3" height="1" fill="#ffffff"/>
  <rect x="29" y="34" width="2" height="1" fill="#ffffff"/>
  <rect x="33" y="34" width="2" height="1" fill="#ffffff"/>
  <rect x="36" y="34" width="4" height="1" fill="#ffffff"/>
  <rect x="41" y="34" width="3" height="1" fill="#ffffff"/>
  <rect x="45" y="34" width="2" height="1" fill="#ffffff"/>
  <rect x="49" y="34" width="6" height="1" fill="#ffffff"/>
  <rect x="3" y="35" width="52" height="1" fill="#ffffff"/>
  <rect x="8" y="42" width="1" height="1" fill="#ffffff"/>
  <rect x="16" y="42" width="1" height="1" fill="#ffffff"/>
  <rect x="31" y="42" width="3" height="1" fill="#ffffff"/>
  <rect x="36" y="42" width="1" height="1" fill="#ffffff"/>
  <rect x="40" y="42" width="1" height="1" fill="#ffffff"/>
  <rect x="49" y="42" width="1" height="1" fill="#ffffff"/>
  <rect x="52" y="42" width="1" height="1" fill="#ffffff"/>
  <rect x="57" y="42" width="1" height="1" fill="#ffffff"/>
  <rect x="59" y="42" width="3" height="1" fill="#ffffff"/>
  <rect x="63" y="42" width="1" height="1" fill="#ffffff"/>
  <rect x="7" y="43" width="2" height="1" fill="#ffffff"/>
  <rect x="15" y="43" width="1" height="1" fill="#ffffff"/>
  <rect x="17" y="43" width="1" height="1" fill="#ffffff"/>
  <rect x="19" y="43" width="1" height="1" fill="#ffffff"/>
  <rect x="21" y="43" width="1" height="1" fill="#ffffff"/>
  <rect x="24" y="43" width="1" height="1" fill="#ffffff"/>
  <rect x="33" y="43" width="1" height="1" fill="#ffffff"/>
  <rect x="35" y="43" width="2" height="1" fill="#ffffff"/>
  <rect x="39" y="43" width="1" height="1" fill="#ffffff"/>
  <rect x="41" y="43" width="1" height="1" fill="#ffffff"/>
  <rect x="48" y="43" width="1" height="1" fill="#ffffff"/>
  <rect x="51" y="43" width="2" height="1" fill="#ffffff"/>
  <rect x="57" y="43" width="1" height="1" fill="#ffffff"/>
  <rect x="61" y="43" width="1" height="1" fill="#ffffff"/>
  <rect x="64" y="43" width="1" height="1" fill="#ffffff"/>
  <rect x="8" y="44" width="1" height="1" fill="#ffffff"/>
  <rect x="15" y="44" width="3" height="1" fill="#ffffff"/>
  <rect x="19" y="44" width="3" height="1" fill="#ffffff"/>
  <rect x="32" y="44" width="1" height="1" fill="#ffffff"/>
  <rect x="36" y="44" width="1" height="1" fill="#ffffff"/>
  <rect x="41" y="44" width="1" height="1" fill="#ffffff"/>
  <rect x="48" y="44" width="1" height="1" fill="#ffffff"/>
  <rect x="52" y="44" width="1" height="1" fill="#ffffff"/>
  <rect x="56" y="44" width="1" height="1" fill="#ffffff"/>
  <rect x="60" y="44" width="1" height="1" fill="#ffffff"/>
  <rect x="64" y="44" width="1" height="1" fill="#ffffff"/>
  <rect x="8" y="45" width="1" height="1" fill="#ffffff"/>
  <rect x="15" y="45" width="1" height="1" fill="#ffffff"/>
  <rect x="17" y="45" width="1" height="1" fill="#ffffff"/>
  <rect x="19" y="45" width="1" height="1" fill="#ffffff"/>
  <rect x="21" y="45" width="1" height="1" fill="#ffffff"/>
  <rect x="33" y="45" width="1" height="1" fill="#ffffff"/>
  <rect x="36" y="45" width="1" height="1" fill="#ffffff"/>
  <rect x="40" y="45" width="1" height="1" fill="#ffffff"/>
  <rect x="48" y="45" width="1" height="1" fill="#ffffff"/>
  <rect x="52" y="45" width="1" height="1" fill="#ffffff"/>
  <rect x="55" y="45" width="1" height="1" fill="#ffffff"/>
  <rect x="59" y="45" width="1" height="1" fill="#ffffff"/>
  <rect x="64" y="45" width="1" height="1" fill="#ffffff"/>
  <rect x="7" y="46" width="3" height="1" fill="#ffffff"/>
  <rect x="12" y="46" width="1" height="1" fill="#ffffff"/>
  <rect x="16" y="46" width="1" height="1" fill="#ffffff"/>
  <rect x="19" y="46" width="1" height="1" fill="#ffffff"/>
  <rect x="21" y="46" width="1" height="1" fill="#ffffff"/>
  <rect x="24" y="46" width="1" height="1" fill="#ffffff"/>
  <rect x="31" y="46" width="2" height="1" fill="#ffffff"/>
  <rect x="35" y="46" width="3" height="1" fill="#ffffff"/>
  <rect x="39" y="46" width="3" height="1" fill="#ffffff"/>
  <rect x="48" y="46" width="1" height="1" fill="#ffffff"/>
  <rect x="51" y="46" width="3" height="1" fill="#ffffff"/>
  <rect x="55" y="46" width="1" height="1" fill="#ffffff"/>
  <rect x="59" y="46" width="1" height="1" fill="#ffffff"/>
  <rect x="64" y="46" width="1" height="1" fill="#ffffff"/>
  <rect x="49" y="47" width="1" height="1" fill="#ffffff"/>
  <rect x="63" y="47" width="1" height="1" fill="#ffffff"/>
  <rect x="9" y="65" width="1" height="1" fill="#ffffff"/>
  <rect x="11" y="65" width="1" height="1" fill="#ffffff"/>
  <rect x="15" y="65" width="1" height="1" fill="#ffffff"/>
  <rect x="24" y="65" width="1" height="1" fill="#ffffff"/>
  <rect x="36" y="65" width="1" height="1" fill="#ffffff"/>
  <rect x="47" y="65" width="2" height="1" fill="#ffffff"/>
  <rect x="8" y="66" width="1" height="1" fill="#ffffff"/>
  <rect x="11" y="66" width="1" height="1" fill="#ffffff"/>
  <rect x="16" y="66" width="1" height="1" fill="#ffffff"/>
  <rect x="23" y="66" width="3" height="1" fill="#ffffff"/>
  <rect x="28" y="66" width="1" height="1" fill="#ffffff"/>
  <rect x="35" y="66" width="1" height="1" fill="#ffffff"/>
  <rect x="37" y="66" width="1" height="1" fill="#ffffff"/>
  <rect x="39" y="66" width="1" height="1" fill="#ffffff"/>
  <rect x="41" y="66" width="1" height="1" fill="#ffffff"/>
  <rect x="44" y="66" width="2" height="1" fill="#ffffff"/>
  <rect x="48" y="66" width="1" height="1" fill="#ffffff"/>
  <rect x="52" y="66" width="1" height="1" fill="#ffffff"/>
  <rect x="8" y="67" width="1" height="1" fill="#ffffff"/>
  <rect x="11" y="67" width="1" height="1" fill="#ffffff"/>
  <rect x="16" y="67" width="1" height="1" fill="#ffffff"/>
  <rect x="24" y="67" width="1" height="1" fill="#ffffff"/>
  <rect x="27" y="67" width="1" height="1" fill="#ffffff"/>
  <rect x="29" y="67" width="1" height="1" fill="#ffffff"/>
  <rect x="35" y="67" width="1" height="1" fill="#ffffff"/>
  <rect x="39" y="67" width="1" height="1" fill="#ffffff"/>
  <rect x="41" y="67" width="1" height="1" fill="#ffffff"/>
  <rect x="43" y="67" width="1" height="1" fill="#ffffff"/>
  <rect x="48" y="67" width="1" height="1" fill="#ffffff"/>
  <rect x="51" y="67" width="1" height="1" fill="#ffffff"/>
  <rect x="53" y="67" width="1" height="1" fill="#ffffff"/>
  <rect x="8" y="68" width="1" height="1" fill="#ffffff"/>
  <rect x="11" y="68" width="1" height="1" fill="#ffffff"/>
  <rect x="16" y="68" width="1" height="1" fill="#ffffff"/>
  <rect x="24" y="68" width="1" height="1" fill="#ffffff"/>
  <rect x="27" y="68" width="1" height="1" fill="#ffffff"/>
  <rect x="29" y="68" width="1" height="1" fill="#ffffff"/>
  <rect x="35" y="68" width="1" height="1" fill="#ffffff"/>
  <rect x="37" y="68" width="1" height="1" fill="#ffffff"/>
  <rect x="40" y="68" width="2" height="1" fill="#ffffff"/>
  <rect x="43" y="68" width="1" height="1" fill="#ffffff"/>
  <rect x="48" y="68" width="1" height="1" fill="#ffffff"/>
  <rect x="51" y="68" width="2" height="1" fill="#ffffff"/>
  <rect x="8" y="69" width="1" height="1" fill="#ffffff"/>
  <rect x="11" y="69" width="3" height="1" fill="#ffffff"/>
  <rect x="16" y="69" width="1" height="1" fill="#ffffff"/>
  <rect x="25" y="69" width="1" height="1" fill="#ffffff"/>
  <rect x="28" y="69" width="1" height="1" fill="#ffffff"/>
  <rect x="36" y="69" width="1" height="1" fill="#ffffff"/>
  <rect x="41" y="69" width="1" height="1" fill="#ffffff"/>
  <rect x="44" y="69" width="2" height="1" fill="#ffffff"/>
  <rect x="47" y="69" width="3" height="1" fill="#ffffff"/>
  <rect x="52" y="69" width="2" height="1" fill="#ffffff"/>
  <rect x="9" y="70" width="1" height="1" fill="#ffffff"/>
  <rect x="15" y="70" width="1" height="1" fill="#ffffff"/>
  <rect x="39" y="70" width="2" height="1" fill="#ffffff"/>
  <rect x="9" y="73" width="1" height="1" fill="#ffffff"/>
  <rect x="11" y="73" width="2" height="1" fill="#ffffff"/>
  <rect x="15" y="73" width="1" height="1" fill="#ffffff"/>
  <rect x="24" y="73" width="1" height="1" fill="#ffffff"/>
  <rect x="36" y="73" width="2" height="1" fill="#ffffff"/>
  <rect x="43" y="73" width="2" height="1" fill="#ffffff"/>
  <rect x="56" y="73" width="1" height="1" fill="#ffffff"/>
  <rect x="8" y="74" width="1" height="1" fill="#ffffff"/>
  <rect x="11" y="74" width="1" height="1" fill="#ffffff"/>
  <rect x="13" y="74" width="1" height="1" fill="#ffffff"/>
  <rect x="16" y="74" width="1" height="1" fill="#ffffff"/>
  <rect x="23" y="74" width="3" height="1" fill="#ffffff"/>
  <rect x="28" y="74" width="1" height="1" fill="#ffffff"/>
  <rect x="35" y="74" width="1" height="1" fill="#ffffff"/>
  <rect x="40" y="74" width="1" height="1" fill="#ffffff"/>
  <rect x="44" y="74" width="1" height="1" fill="#ffffff"/>
  <rect x="48" y="74" width="1" height="1" fill="#ffffff"/>
  <rect x="52" y="74" width="2" height="1" fill="#ffffff"/>
  <rect x="55" y="74" width="3" height="1" fill="#ffffff"/>
  <rect x="8" y="75" width="1" height="1" fill="#ffffff"/>
  <rect x="11" y="75" width="2" height="1" fill="#ffffff"/>
  <rect x="16" y="75" width="1" height="1" fill="#ffffff"/>
  <rect x="24" y="75" width="1" height="1" fill="#ffffff"/>
  <rect x="27" y="75" width="1" height="1" fill="#ffffff"/>
  <rect x="29" y="75" width="1" height="1" fill="#ffffff"/>
  <rect x="36" y="75" width="1" height="1" fill="#ffffff"/>
  <rect x="39" y="75" width="1" height="1" fill="#ffffff"/>
  <rect x="41" y="75" width="1" height="1" fill="#ffffff"/>
  <rect x="44" y="75" width="1" height="1" fill="#ffffff"/>
  <rect x="47" y="75" width="1" height="1" fill="#ffffff"/>
  <rect x="49" y="75" width="1" height="1" fill="#ffffff"/>
  <rect x="51" y="75" width="1" height="1" fill="#ffffff"/>
  <rect x="56" y="75" width="1" height="1" fill="#ffffff"/>
  <rect x="8" y="76" width="1" height="1" fill="#ffffff"/>
  <rect x="11" y="76" width="1" height="1" fill="#ffffff"/>
  <rect x="13" y="76" width="1" height="1" fill="#ffffff"/>
  <rect x="16" y="76" width="1" height="1" fill="#ffffff"/>
  <rect x="24" y="76" width="1" height="1" fill="#ffffff"/>
  <rect x="27" y="76" width="1" height="1" fill="#ffffff"/>
  <rect x="29" y="76" width="1" height="1" fill="#ffffff"/>
  <rect x="37" y="76" width="1" height="1" fill="#ffffff"/>
  <rect x="39" y="76" width="2" height="1" fill="#ffffff"/>
  <rect x="44" y="76" width="1" height="1" fill="#ffffff"/>
  <rect x="47" y="76" width="2" height="1" fill="#ffffff"/>
  <rect x="51" y="76" width="1" height="1" fill="#ffffff"/>
  <rect x="56" y="76" width="1" height="1" fill="#ffffff"/>
  <rect x="8" y="77" width="1" height="1" fill="#ffffff"/>
  <rect x="11" y="77" width="1" height="1" fill="#ffffff"/>
  <rect x="13" y="77" width="1" height="1" fill="#ffffff"/>
  <rect x="16" y="77" width="1" height="1" fill="#ffffff"/>
  <rect x="25" y="77" width="1" height="1" fill="#ffffff"/>
  <rect x="28" y="77" width="1" height="1" fill="#ffffff"/>
  <rect x="35" y="77" width="2" height="1" fill="#ffffff"/>
  <rect x="40" y="77" width="2" height="1" fill="#ffffff"/>
  <rect x="43" y="77" width="3" height="1" fill="#ffffff"/>
  <rect x="48" y="77" width="2" height="1" fill="#ffffff"/>
  <rect x="52" y="77" width="2" height="1" fill="#ffffff"/>
  <rect x="57" y="77" width="1" height="1" fill="#ffffff"/>
  <rect x="9" y="78" width="1" height="1" fill="#ffffff"/>
  <rect x="15" y="78" width="1" height="1" fill="#ffffff"/>
  </g>
</svg>
