%TF.GenerationSoftware,KiCad,Pcbnew,9.0.4*%
%TF.CreationDate,2025-11-17T08:26:59+00:00*%
%TF.ProjectId,MRF-Pro-v7-breakout-33,4d52462d-5072-46f2-9d76-372d62726561,rev?*%
%TF.SameCoordinates,Original*%
%TF.FileFunction,Copper,L1,Top*%
%TF.FilePolarity,Positive*%
%FSLAX46Y46*%
G04 Gerber Fmt 4.6, Leading zero omitted, Abs format (unit mm)*
G04 Created by KiCad (PCBNEW 9.0.4) date 2025-11-17 08:26:59*
%MOMM*%
%LPD*%
G01*
G04 APERTURE LIST*
G04 Aperture macros list*
%AMRoundRect*
0 Rectangle with rounded corners*
0 $1 Rounding radius*
0 $2 $3 $4 $5 $6 $7 $8 $9 X,Y pos of 4 corners*
0 Add a 4 corners polygon primitive as box body*
4,1,4,$2,$3,$4,$5,$6,$7,$8,$9,$2,$3,0*
0 Add four circle primitives for the rounded corners*
1,1,$1+$1,$2,$3*
1,1,$1+$1,$4,$5*
1,1,$1+$1,$6,$7*
1,1,$1+$1,$8,$9*
0 Add four rect primitives between the rounded corners*
20,1,$1+$1,$2,$3,$4,$5,0*
20,1,$1+$1,$4,$5,$6,$7,0*
20,1,$1+$1,$6,$7,$8,$9,0*
20,1,$1+$1,$8,$9,$2,$3,0*%
G04 Aperture macros list end*
%TA.AperFunction,SMDPad,CuDef*%
%ADD10R,0.300000X1.100000*%
%TD*%
%TA.AperFunction,SMDPad,CuDef*%
%ADD11R,2.300000X3.100000*%
%TD*%
%TA.AperFunction,SMDPad,CuDef*%
%ADD12RoundRect,0.150000X-0.150000X-0.625000X0.150000X-0.625000X0.150000X0.625000X-0.150000X0.625000X0*%
%TD*%
%TA.AperFunction,SMDPad,CuDef*%
%ADD13RoundRect,0.250000X-0.350000X-0.650000X0.350000X-0.650000X0.350000X0.650000X-0.350000X0.650000X0*%
%TD*%
%TA.AperFunction,ViaPad*%
%ADD14C,0.800000*%
%TD*%
%TA.AperFunction,Conductor*%
%ADD15C,0.250000*%
%TD*%
G04 APERTURE END LIST*
D10*
%TO.P,J5,1,Pin_1*%
%TO.N,/3.3V*%
X129553800Y-128776200D03*
%TO.P,J5,2,Pin_2*%
%TO.N,Net-(J5-Pin_2)*%
X129053800Y-128776200D03*
%TO.P,J5,3,Pin_3*%
%TO.N,Net-(J5-Pin_3)*%
X128553800Y-128776200D03*
%TO.P,J5,4,Pin_4*%
%TO.N,/GND*%
X128053800Y-128776200D03*
%TO.P,J5,5,Pin_5*%
X127553800Y-128776200D03*
%TO.P,J5,6,Pin_6*%
%TO.N,/3.3V*%
X127053800Y-128776200D03*
%TO.P,J5,7,Pin_7*%
%TO.N,Net-(J5-Pin_7)*%
X126553800Y-128776200D03*
%TO.P,J5,8,Pin_8*%
%TO.N,Net-(J5-Pin_8)*%
X126053800Y-128776200D03*
D11*
%TO.P,J5,MP*%
%TO.N,N/C*%
X131223800Y-127076200D03*
X124383800Y-127076200D03*
%TD*%
D12*
%TO.P,J6,1,Pin_1*%
%TO.N,/GND*%
X120853200Y-132715000D03*
%TO.P,J6,2,Pin_2*%
%TO.N,/3.3V*%
X121853200Y-132715000D03*
%TO.P,J6,3,Pin_3*%
%TO.N,Net-(J5-Pin_7)*%
X122853200Y-132715000D03*
%TO.P,J6,4,Pin_4*%
%TO.N,Net-(J5-Pin_8)*%
X123853200Y-132715000D03*
D13*
%TO.P,J6,MP*%
%TO.N,N/C*%
X119553200Y-136590000D03*
X125153200Y-136590000D03*
%TD*%
D12*
%TO.P,J7,1,Pin_1*%
%TO.N,/3.3V*%
X129470400Y-132715000D03*
%TO.P,J7,2,Pin_2*%
X130470400Y-132715000D03*
%TO.P,J7,3,Pin_3*%
%TO.N,Net-(J5-Pin_2)*%
X131470400Y-132715000D03*
%TO.P,J7,4,Pin_4*%
%TO.N,Net-(J5-Pin_3)*%
X132470400Y-132715000D03*
%TO.P,J7,5,Pin_5*%
%TO.N,/GND*%
X133470400Y-132715000D03*
%TO.P,J7,6,Pin_6*%
X134470400Y-132715000D03*
D13*
%TO.P,J7,MP*%
%TO.N,N/C*%
X128170400Y-136590000D03*
X135770400Y-136590000D03*
%TD*%
D14*
%TO.N,/GND*%
X135890000Y-132156200D03*
X119253000Y-132130800D03*
X127650000Y-127350000D03*
%TO.N,Net-(J5-Pin_3)*%
X128500000Y-130300000D03*
X132450000Y-134650000D03*
%TD*%
D15*
%TO.N,/GND*%
X133470400Y-133161751D02*
X133470400Y-132750000D01*
X133470400Y-132750000D02*
X133470400Y-132715000D01*
X120269000Y-132130800D02*
X120853200Y-132715000D01*
X133470400Y-132715000D02*
X134470400Y-132715000D01*
X135029200Y-132156200D02*
X134470400Y-132715000D01*
X135890000Y-132156200D02*
X135029200Y-132156200D01*
X127650000Y-128372400D02*
X128053800Y-128776200D01*
X119253000Y-132130800D02*
X120269000Y-132130800D01*
X127650000Y-127350000D02*
X127650000Y-128372400D01*
%TO.N,Net-(J5-Pin_2)*%
X131470400Y-132042800D02*
X131470400Y-132715000D01*
X129053800Y-128776200D02*
X129053800Y-129626200D01*
X129053800Y-129626200D02*
X131470400Y-132042800D01*
%TO.N,/3.3V*%
X129553800Y-128776200D02*
X129553800Y-127528800D01*
X127053800Y-128776200D02*
X127053800Y-127780520D01*
X127053800Y-127780520D02*
X126500000Y-127226720D01*
X129362200Y-132606800D02*
X129470400Y-132715000D01*
X126500000Y-127226720D02*
X126500000Y-127050000D01*
X129553800Y-127528800D02*
X129300000Y-127275000D01*
X121793000Y-132775200D02*
X121853200Y-132715000D01*
%TO.N,Net-(J5-Pin_3)*%
X132450000Y-132735400D02*
X132470400Y-132715000D01*
X132470400Y-133161751D02*
X132470400Y-132715000D01*
X132450000Y-134650000D02*
X132450000Y-132735400D01*
X128553800Y-130246200D02*
X128553800Y-128776200D01*
X128500000Y-130300000D02*
X128553800Y-130246200D01*
%TO.N,Net-(J5-Pin_7)*%
X123977400Y-134518400D02*
X122986800Y-134518400D01*
X126553800Y-128776200D02*
X126553800Y-131942000D01*
X122885200Y-132747000D02*
X122853200Y-132715000D01*
X122885200Y-134416800D02*
X122885200Y-132747000D01*
X122986800Y-134518400D02*
X122885200Y-134416800D01*
X126553800Y-131942000D02*
X123977400Y-134518400D01*
%TO.N,Net-(J5-Pin_8)*%
X126053800Y-130514400D02*
X123853200Y-132715000D01*
X126053800Y-128776200D02*
X126053800Y-130514400D01*
%TD*%
%TA.AperFunction,Conductor*%
%TO.N,/3.3V*%
G36*
X138270939Y-122905385D02*
G01*
X138316694Y-122958189D01*
X138327900Y-123009700D01*
X138327900Y-138229300D01*
X138308215Y-138296339D01*
X138255411Y-138342094D01*
X138203900Y-138353300D01*
X117447100Y-138353300D01*
X117380061Y-138333615D01*
X117334306Y-138280811D01*
X117323100Y-138229300D01*
X117323100Y-135889983D01*
X118452700Y-135889983D01*
X118452700Y-137290001D01*
X118452701Y-137290018D01*
X118463200Y-137392796D01*
X118463201Y-137392799D01*
X118518385Y-137559331D01*
X118518386Y-137559334D01*
X118610488Y-137708656D01*
X118734544Y-137832712D01*
X118883866Y-137924814D01*
X119050403Y-137979999D01*
X119153191Y-137990500D01*
X119953208Y-137990499D01*
X119953216Y-137990498D01*
X119953219Y-137990498D01*
X120009502Y-137984748D01*
X120055997Y-137979999D01*
X120222534Y-137924814D01*
X120371856Y-137832712D01*
X120495912Y-137708656D01*
X120588014Y-137559334D01*
X120643199Y-137392797D01*
X120653700Y-137290009D01*
X120653699Y-135889992D01*
X120653698Y-135889983D01*
X124052700Y-135889983D01*
X124052700Y-137290001D01*
X124052701Y-137290018D01*
X124063200Y-137392796D01*
X124063201Y-137392799D01*
X124118385Y-137559331D01*
X124118386Y-137559334D01*
X124210488Y-137708656D01*
X124334544Y-137832712D01*
X124483866Y-137924814D01*
X124650403Y-137979999D01*
X124753191Y-137990500D01*
X125553208Y-137990499D01*
X125553216Y-137990498D01*
X125553219Y-137990498D01*
X125609502Y-137984748D01*
X125655997Y-137979999D01*
X125822534Y-137924814D01*
X125971856Y-137832712D01*
X126095912Y-137708656D01*
X126188014Y-137559334D01*
X126243199Y-137392797D01*
X126253700Y-137290009D01*
X126253699Y-135889992D01*
X126253698Y-135889983D01*
X127069900Y-135889983D01*
X127069900Y-137290001D01*
X127069901Y-137290018D01*
X127080400Y-137392796D01*
X127080401Y-137392799D01*
X127135585Y-137559331D01*
X127135586Y-137559334D01*
X127227688Y-137708656D01*
X127351744Y-137832712D01*
X127501066Y-137924814D01*
X127667603Y-137979999D01*
X127770391Y-137990500D01*
X128570408Y-137990499D01*
X128570416Y-137990498D01*
X128570419Y-137990498D01*
X128626702Y-137984748D01*
X128673197Y-137979999D01*
X128839734Y-137924814D01*
X128989056Y-137832712D01*
X129113112Y-137708656D01*
X129205214Y-137559334D01*
X129260399Y-137392797D01*
X129270900Y-137290009D01*
X129270899Y-135889992D01*
X129270898Y-135889983D01*
X134669900Y-135889983D01*
X134669900Y-137290001D01*
X134669901Y-137290018D01*
X134680400Y-137392796D01*
X134680401Y-137392799D01*
X134735585Y-137559331D01*
X134735586Y-137559334D01*
X134827688Y-137708656D01*
X134951744Y-137832712D01*
X135101066Y-137924814D01*
X135267603Y-137979999D01*
X135370391Y-137990500D01*
X136170408Y-137990499D01*
X136170416Y-137990498D01*
X136170419Y-137990498D01*
X136226702Y-137984748D01*
X136273197Y-137979999D01*
X136439734Y-137924814D01*
X136589056Y-137832712D01*
X136713112Y-137708656D01*
X136805214Y-137559334D01*
X136860399Y-137392797D01*
X136870900Y-137290009D01*
X136870899Y-135889992D01*
X136860399Y-135787203D01*
X136805214Y-135620666D01*
X136713112Y-135471344D01*
X136589056Y-135347288D01*
X136439734Y-135255186D01*
X136273197Y-135200001D01*
X136273195Y-135200000D01*
X136170410Y-135189500D01*
X135370398Y-135189500D01*
X135370380Y-135189501D01*
X135267603Y-135200000D01*
X135267600Y-135200001D01*
X135101068Y-135255185D01*
X135101063Y-135255187D01*
X134951742Y-135347289D01*
X134827689Y-135471342D01*
X134735587Y-135620663D01*
X134735586Y-135620666D01*
X134680401Y-135787203D01*
X134680401Y-135787204D01*
X134680400Y-135787204D01*
X134669900Y-135889983D01*
X129270898Y-135889983D01*
X129260399Y-135787203D01*
X129205214Y-135620666D01*
X129113112Y-135471344D01*
X128989056Y-135347288D01*
X128839734Y-135255186D01*
X128673197Y-135200001D01*
X128673195Y-135200000D01*
X128570410Y-135189500D01*
X127770398Y-135189500D01*
X127770380Y-135189501D01*
X127667603Y-135200000D01*
X127667600Y-135200001D01*
X127501068Y-135255185D01*
X127501063Y-135255187D01*
X127351742Y-135347289D01*
X127227689Y-135471342D01*
X127135587Y-135620663D01*
X127135586Y-135620666D01*
X127080401Y-135787203D01*
X127080401Y-135787204D01*
X127080400Y-135787204D01*
X127069900Y-135889983D01*
X126253698Y-135889983D01*
X126243199Y-135787203D01*
X126188014Y-135620666D01*
X126095912Y-135471344D01*
X125971856Y-135347288D01*
X125822534Y-135255186D01*
X125655997Y-135200001D01*
X125655995Y-135200000D01*
X125553210Y-135189500D01*
X124753198Y-135189500D01*
X124753180Y-135189501D01*
X124650403Y-135200000D01*
X124650400Y-135200001D01*
X124483868Y-135255185D01*
X124483863Y-135255187D01*
X124334542Y-135347289D01*
X124210489Y-135471342D01*
X124118387Y-135620663D01*
X124118386Y-135620666D01*
X124063201Y-135787203D01*
X124063201Y-135787204D01*
X124063200Y-135787204D01*
X124052700Y-135889983D01*
X120653698Y-135889983D01*
X120643199Y-135787203D01*
X120588014Y-135620666D01*
X120495912Y-135471344D01*
X120371856Y-135347288D01*
X120222534Y-135255186D01*
X120055997Y-135200001D01*
X120055995Y-135200000D01*
X119953210Y-135189500D01*
X119153198Y-135189500D01*
X119153180Y-135189501D01*
X119050403Y-135200000D01*
X119050400Y-135200001D01*
X118883868Y-135255185D01*
X118883863Y-135255187D01*
X118734542Y-135347289D01*
X118610489Y-135471342D01*
X118518387Y-135620663D01*
X118518386Y-135620666D01*
X118463201Y-135787203D01*
X118463201Y-135787204D01*
X118463200Y-135787204D01*
X118452700Y-135889983D01*
X117323100Y-135889983D01*
X117323100Y-132042104D01*
X118352500Y-132042104D01*
X118352500Y-132219495D01*
X118387103Y-132393458D01*
X118387106Y-132393467D01*
X118454983Y-132557340D01*
X118454990Y-132557353D01*
X118553535Y-132704834D01*
X118553538Y-132704838D01*
X118678961Y-132830261D01*
X118678965Y-132830264D01*
X118826446Y-132928809D01*
X118826459Y-132928816D01*
X118895734Y-132957510D01*
X118990334Y-132996694D01*
X118990336Y-132996694D01*
X118990341Y-132996696D01*
X119164304Y-133031299D01*
X119164307Y-133031300D01*
X119164309Y-133031300D01*
X119341693Y-133031300D01*
X119341694Y-133031299D01*
X119399682Y-133019764D01*
X119515658Y-132996696D01*
X119515661Y-132996694D01*
X119515666Y-132996694D01*
X119679547Y-132928813D01*
X119827035Y-132830264D01*
X119841018Y-132816280D01*
X119902339Y-132782796D01*
X119972030Y-132787778D01*
X120027965Y-132829648D01*
X120052384Y-132895112D01*
X120052700Y-132903961D01*
X120052700Y-133405701D01*
X120055601Y-133442567D01*
X120055602Y-133442573D01*
X120101454Y-133600393D01*
X120101455Y-133600396D01*
X120185117Y-133741862D01*
X120185123Y-133741870D01*
X120301329Y-133858076D01*
X120301333Y-133858079D01*
X120301335Y-133858081D01*
X120442802Y-133941744D01*
X120458298Y-133946246D01*
X120600626Y-133987597D01*
X120600629Y-133987597D01*
X120600631Y-133987598D01*
X120637506Y-133990500D01*
X120637514Y-133990500D01*
X121068886Y-133990500D01*
X121068894Y-133990500D01*
X121105769Y-133987598D01*
X121105771Y-133987597D01*
X121105773Y-133987597D01*
X121147391Y-133975505D01*
X121263598Y-133941744D01*
X121290568Y-133925793D01*
X121358291Y-133908610D01*
X121416810Y-133925792D01*
X121443003Y-133941282D01*
X121443006Y-133941283D01*
X121600705Y-133987099D01*
X121600711Y-133987100D01*
X121603198Y-133987295D01*
X121603200Y-133987295D01*
X121603200Y-133624050D01*
X121608124Y-133589455D01*
X121650797Y-133442573D01*
X121650798Y-133442567D01*
X121653699Y-133405701D01*
X121653700Y-133405694D01*
X121653700Y-132024306D01*
X121653699Y-132024298D01*
X122052700Y-132024298D01*
X122052700Y-133405701D01*
X122055601Y-133442567D01*
X122055602Y-133442573D01*
X122098276Y-133589455D01*
X122103200Y-133624050D01*
X122103200Y-133987295D01*
X122103201Y-133987295D01*
X122105688Y-133987100D01*
X122111920Y-133985962D01*
X122112378Y-133988470D01*
X122170938Y-133988620D01*
X122229620Y-134026544D01*
X122258482Y-134090174D01*
X122259700Y-134107508D01*
X122259700Y-134478411D01*
X122283735Y-134599244D01*
X122283740Y-134599261D01*
X122330885Y-134713080D01*
X122330887Y-134713083D01*
X122330888Y-134713086D01*
X122365115Y-134764309D01*
X122399342Y-134815533D01*
X122486467Y-134902658D01*
X122486470Y-134902660D01*
X122493754Y-134909944D01*
X122497816Y-134914006D01*
X122497845Y-134914037D01*
X122588064Y-135004256D01*
X122588067Y-135004258D01*
X122639290Y-135038484D01*
X122690514Y-135072712D01*
X122771007Y-135106052D01*
X122804348Y-135119863D01*
X122864771Y-135131881D01*
X122925193Y-135143900D01*
X124039007Y-135143900D01*
X124099429Y-135131881D01*
X124159852Y-135119863D01*
X124193192Y-135106052D01*
X124273686Y-135072712D01*
X124324909Y-135038484D01*
X124330721Y-135034601D01*
X124337671Y-135029956D01*
X124376133Y-135004258D01*
X124463258Y-134917133D01*
X124463259Y-134917131D01*
X124470325Y-134910065D01*
X124470328Y-134910061D01*
X125974740Y-133405649D01*
X128670400Y-133405649D01*
X128673299Y-133442489D01*
X128673300Y-133442495D01*
X128719116Y-133600193D01*
X128719117Y-133600196D01*
X128802714Y-133741552D01*
X128802721Y-133741561D01*
X128918838Y-133857678D01*
X128918847Y-133857685D01*
X129060201Y-133941281D01*
X129217914Y-133987100D01*
X129217911Y-133987100D01*
X129220398Y-133987295D01*
X129220400Y-133987295D01*
X129720400Y-133987295D01*
X129720401Y-133987295D01*
X129722886Y-133987100D01*
X129880597Y-133941281D01*
X129907277Y-133925503D01*
X129975001Y-133908319D01*
X130033523Y-133925503D01*
X130060202Y-133941281D01*
X130217914Y-133987100D01*
X130217911Y-133987100D01*
X130220398Y-133987295D01*
X130220400Y-133987295D01*
X130220400Y-132965000D01*
X129720400Y-132965000D01*
X129720400Y-133987295D01*
X129220400Y-133987295D01*
X129220400Y-132965000D01*
X128670400Y-132965000D01*
X128670400Y-133405649D01*
X125974740Y-133405649D01*
X126952529Y-132427860D01*
X126952533Y-132427858D01*
X127039658Y-132340733D01*
X127108111Y-132238286D01*
X127108112Y-132238285D01*
X127140253Y-132160688D01*
X127155263Y-132124452D01*
X127175174Y-132024350D01*
X128670400Y-132024350D01*
X128670400Y-132465000D01*
X129220400Y-132465000D01*
X129220400Y-131442703D01*
X129217903Y-131442900D01*
X129060206Y-131488716D01*
X129060203Y-131488717D01*
X128918847Y-131572314D01*
X128918838Y-131572321D01*
X128802721Y-131688438D01*
X128802714Y-131688447D01*
X128719117Y-131829803D01*
X128719116Y-131829806D01*
X128673300Y-131987504D01*
X128673299Y-131987510D01*
X128670400Y-132024350D01*
X127175174Y-132024350D01*
X127179300Y-132003606D01*
X127179300Y-129945755D01*
X127182222Y-129935800D01*
X127180965Y-129925502D01*
X127191899Y-129902847D01*
X127198985Y-129878716D01*
X127206824Y-129871922D01*
X127211335Y-129862578D01*
X127232781Y-129849430D01*
X127251789Y-129832961D01*
X127263639Y-129830514D01*
X127270903Y-129826062D01*
X127294033Y-129824240D01*
X127305936Y-129821783D01*
X127311244Y-129821895D01*
X127355927Y-129826700D01*
X127537117Y-129826699D01*
X127538410Y-129826727D01*
X127570490Y-129836892D01*
X127602813Y-129846383D01*
X127603711Y-129847419D01*
X127605016Y-129847833D01*
X127626512Y-129873733D01*
X127648568Y-129899187D01*
X127648762Y-129900542D01*
X127649638Y-129901597D01*
X127653720Y-129935018D01*
X127658512Y-129968345D01*
X127658012Y-129970164D01*
X127658109Y-129970952D01*
X127657385Y-129972450D01*
X127650336Y-129998149D01*
X127634106Y-130037332D01*
X127634103Y-130037341D01*
X127599500Y-130211304D01*
X127599500Y-130388695D01*
X127634103Y-130562658D01*
X127634106Y-130562667D01*
X127701983Y-130726540D01*
X127701990Y-130726553D01*
X127800535Y-130874034D01*
X127800538Y-130874038D01*
X127925961Y-130999461D01*
X127925965Y-130999464D01*
X128073446Y-131098009D01*
X128073459Y-131098016D01*
X128196363Y-131148923D01*
X128237334Y-131165894D01*
X128237336Y-131165894D01*
X128237341Y-131165896D01*
X128411304Y-131200499D01*
X128411307Y-131200500D01*
X128411309Y-131200500D01*
X128588693Y-131200500D01*
X128588694Y-131200499D01*
X128646682Y-131188964D01*
X128762658Y-131165896D01*
X128762661Y-131165894D01*
X128762666Y-131165894D01*
X128926547Y-131098013D01*
X129074035Y-130999464D01*
X129199464Y-130874035D01*
X129202669Y-130869237D01*
X129256278Y-130824432D01*
X129325603Y-130815722D01*
X129388632Y-130845874D01*
X129393454Y-130850445D01*
X129770687Y-131227678D01*
X129804172Y-131289000D01*
X129799188Y-131358691D01*
X129757317Y-131414625D01*
X129746366Y-131418709D01*
X129720400Y-131442703D01*
X129720400Y-132465000D01*
X130346400Y-132465000D01*
X130413439Y-132484685D01*
X130459194Y-132537489D01*
X130470400Y-132589000D01*
X130470400Y-132715000D01*
X130545900Y-132715000D01*
X130612939Y-132734685D01*
X130658694Y-132787489D01*
X130669900Y-132839000D01*
X130669900Y-133405701D01*
X130672801Y-133442567D01*
X130672802Y-133442573D01*
X130715476Y-133589455D01*
X130720400Y-133624050D01*
X130720400Y-133987295D01*
X130720401Y-133987295D01*
X130722886Y-133987100D01*
X130880599Y-133941281D01*
X130906786Y-133925794D01*
X130974510Y-133908610D01*
X131033028Y-133925791D01*
X131060002Y-133941744D01*
X131060004Y-133941744D01*
X131060005Y-133941745D01*
X131217826Y-133987597D01*
X131217829Y-133987597D01*
X131217831Y-133987598D01*
X131254706Y-133990500D01*
X131254714Y-133990500D01*
X131575653Y-133990500D01*
X131642692Y-134010185D01*
X131688447Y-134062989D01*
X131698391Y-134132147D01*
X131678755Y-134183391D01*
X131651990Y-134223446D01*
X131651983Y-134223459D01*
X131584106Y-134387332D01*
X131584103Y-134387341D01*
X131549500Y-134561304D01*
X131549500Y-134738695D01*
X131584103Y-134912658D01*
X131584106Y-134912667D01*
X131651983Y-135076540D01*
X131651990Y-135076553D01*
X131750535Y-135224034D01*
X131750538Y-135224038D01*
X131875961Y-135349461D01*
X131875965Y-135349464D01*
X132023446Y-135448009D01*
X132023459Y-135448016D01*
X132146363Y-135498923D01*
X132187334Y-135515894D01*
X132187336Y-135515894D01*
X132187341Y-135515896D01*
X132361304Y-135550499D01*
X132361307Y-135550500D01*
X132361309Y-135550500D01*
X132538693Y-135550500D01*
X132538694Y-135550499D01*
X132596682Y-135538964D01*
X132712658Y-135515896D01*
X132712661Y-135515894D01*
X132712666Y-135515894D01*
X132876547Y-135448013D01*
X133024035Y-135349464D01*
X133149464Y-135224035D01*
X133248013Y-135076547D01*
X133249602Y-135072712D01*
X133277956Y-135004257D01*
X133315894Y-134912666D01*
X133316412Y-134910065D01*
X133345404Y-134764309D01*
X133350500Y-134738691D01*
X133350500Y-134561309D01*
X133350500Y-134561306D01*
X133350499Y-134561304D01*
X133315896Y-134387341D01*
X133315893Y-134387332D01*
X133248016Y-134223459D01*
X133248009Y-134223446D01*
X133221245Y-134183391D01*
X133200367Y-134116713D01*
X133218851Y-134049333D01*
X133270830Y-134002643D01*
X133324347Y-133990500D01*
X133686086Y-133990500D01*
X133686094Y-133990500D01*
X133722969Y-133987598D01*
X133722971Y-133987597D01*
X133722973Y-133987597D01*
X133764591Y-133975505D01*
X133880798Y-133941744D01*
X133890613Y-133935939D01*
X133907278Y-133926084D01*
X133975001Y-133908900D01*
X134033522Y-133926084D01*
X134059998Y-133941742D01*
X134059999Y-133941742D01*
X134060002Y-133941744D01*
X134075498Y-133946246D01*
X134217826Y-133987597D01*
X134217829Y-133987597D01*
X134217831Y-133987598D01*
X134254706Y-133990500D01*
X134254714Y-133990500D01*
X134686086Y-133990500D01*
X134686094Y-133990500D01*
X134722969Y-133987598D01*
X134722971Y-133987597D01*
X134722973Y-133987597D01*
X134764591Y-133975505D01*
X134880798Y-133941744D01*
X135022265Y-133858081D01*
X135138481Y-133741865D01*
X135222144Y-133600398D01*
X135267998Y-133442569D01*
X135270900Y-133405694D01*
X135270900Y-133057541D01*
X135290585Y-132990502D01*
X135343389Y-132944747D01*
X135412547Y-132934803D01*
X135457673Y-132952096D01*
X135458078Y-132951340D01*
X135463459Y-132954216D01*
X135551063Y-132990502D01*
X135627334Y-133022094D01*
X135627336Y-133022094D01*
X135627341Y-133022096D01*
X135801304Y-133056699D01*
X135801307Y-133056700D01*
X135801309Y-133056700D01*
X135978693Y-133056700D01*
X135978694Y-133056699D01*
X136036682Y-133045164D01*
X136152658Y-133022096D01*
X136152661Y-133022094D01*
X136152666Y-133022094D01*
X136316547Y-132954213D01*
X136464035Y-132855664D01*
X136589464Y-132730235D01*
X136688013Y-132582747D01*
X136755894Y-132418866D01*
X136760947Y-132393467D01*
X136778964Y-132302882D01*
X136790500Y-132244891D01*
X136790500Y-132067509D01*
X136790500Y-132067506D01*
X136790499Y-132067504D01*
X136755896Y-131893541D01*
X136755893Y-131893532D01*
X136688016Y-131729659D01*
X136688009Y-131729646D01*
X136589464Y-131582165D01*
X136589461Y-131582161D01*
X136464038Y-131456738D01*
X136464034Y-131456735D01*
X136316553Y-131358190D01*
X136316540Y-131358183D01*
X136152667Y-131290306D01*
X136152658Y-131290303D01*
X135978694Y-131255700D01*
X135978691Y-131255700D01*
X135801309Y-131255700D01*
X135801306Y-131255700D01*
X135627341Y-131290303D01*
X135627332Y-131290306D01*
X135463459Y-131358183D01*
X135463446Y-131358190D01*
X135315965Y-131456735D01*
X135315961Y-131456738D01*
X135278321Y-131494380D01*
X135251390Y-131509085D01*
X135225574Y-131525677D01*
X135219375Y-131526568D01*
X135216999Y-131527866D01*
X135190639Y-131530700D01*
X135096941Y-131530700D01*
X135096921Y-131530699D01*
X135090807Y-131530699D01*
X134986489Y-131530699D01*
X134923369Y-131513432D01*
X134880799Y-131488256D01*
X134880792Y-131488254D01*
X134722973Y-131442402D01*
X134722967Y-131442401D01*
X134686101Y-131439500D01*
X134686094Y-131439500D01*
X134254706Y-131439500D01*
X134254698Y-131439500D01*
X134217832Y-131442401D01*
X134217826Y-131442402D01*
X134060006Y-131488253D01*
X134033519Y-131503918D01*
X133965794Y-131521098D01*
X133907281Y-131503918D01*
X133880793Y-131488253D01*
X133722973Y-131442402D01*
X133722967Y-131442401D01*
X133686101Y-131439500D01*
X133686094Y-131439500D01*
X133254706Y-131439500D01*
X133254698Y-131439500D01*
X133217832Y-131442401D01*
X133217826Y-131442402D01*
X133060006Y-131488253D01*
X133033519Y-131503918D01*
X132965794Y-131521098D01*
X132907281Y-131503918D01*
X132880793Y-131488253D01*
X132722973Y-131442402D01*
X132722967Y-131442401D01*
X132686101Y-131439500D01*
X132686094Y-131439500D01*
X132254706Y-131439500D01*
X132254698Y-131439500D01*
X132217832Y-131442401D01*
X132217826Y-131442402D01*
X132060006Y-131488253D01*
X132033519Y-131503918D01*
X131965794Y-131521098D01*
X131926571Y-131513180D01*
X131916522Y-131509383D01*
X131880798Y-131488256D01*
X131793433Y-131462874D01*
X131788881Y-131461154D01*
X131774352Y-131450180D01*
X131745029Y-131432839D01*
X130108963Y-129796772D01*
X130075478Y-129735449D01*
X130080462Y-129665757D01*
X130097378Y-129634779D01*
X130147152Y-129568289D01*
X130147154Y-129568286D01*
X130197396Y-129433579D01*
X130197398Y-129433572D01*
X130203799Y-129374044D01*
X130203800Y-129374027D01*
X130203800Y-129250699D01*
X130223485Y-129183660D01*
X130276289Y-129137905D01*
X130327795Y-129126699D01*
X132421672Y-129126699D01*
X132481283Y-129120291D01*
X132616131Y-129069996D01*
X132731346Y-128983746D01*
X132817596Y-128868531D01*
X132867891Y-128733683D01*
X132874300Y-128674073D01*
X132874299Y-125478328D01*
X132867891Y-125418717D01*
X132849614Y-125369713D01*
X134310900Y-125369713D01*
X134310900Y-125582286D01*
X134344153Y-125792239D01*
X134409844Y-125994414D01*
X134506351Y-126183820D01*
X134631290Y-126355786D01*
X134781613Y-126506109D01*
X134953579Y-126631048D01*
X134953581Y-126631049D01*
X134953584Y-126631051D01*
X135142988Y-126727557D01*
X135345157Y-126793246D01*
X135555113Y-126826500D01*
X135555114Y-126826500D01*
X135767686Y-126826500D01*
X135767687Y-126826500D01*
X135977643Y-126793246D01*
X136179812Y-126727557D01*
X136369216Y-126631051D01*
X136478035Y-126551990D01*
X136541186Y-126506109D01*
X136541188Y-126506106D01*
X136541192Y-126506104D01*
X136691504Y-126355792D01*
X136691506Y-126355788D01*
X136691509Y-126355786D01*
X136816448Y-126183820D01*
X136816447Y-126183820D01*
X136816451Y-126183816D01*
X136912957Y-125994412D01*
X136978646Y-125792243D01*
X137011900Y-125582287D01*
X137011900Y-125369713D01*
X136978646Y-125159757D01*
X136912957Y-124957588D01*
X136816451Y-124768184D01*
X136816449Y-124768181D01*
X136816448Y-124768179D01*
X136691509Y-124596213D01*
X136541186Y-124445890D01*
X136369220Y-124320951D01*
X136179814Y-124224444D01*
X136179813Y-124224443D01*
X136179812Y-124224443D01*
X135977643Y-124158754D01*
X135977641Y-124158753D01*
X135977640Y-124158753D01*
X135816357Y-124133208D01*
X135767687Y-124125500D01*
X135555113Y-124125500D01*
X135506442Y-124133208D01*
X135345160Y-124158753D01*
X135142985Y-124224444D01*
X134953579Y-124320951D01*
X134781613Y-124445890D01*
X134631290Y-124596213D01*
X134506351Y-124768179D01*
X134409844Y-124957585D01*
X134344153Y-125159760D01*
X134310900Y-125369713D01*
X132849614Y-125369713D01*
X132817596Y-125283869D01*
X132817595Y-125283868D01*
X132817593Y-125283864D01*
X132731347Y-125168655D01*
X132731344Y-125168652D01*
X132616135Y-125082406D01*
X132616128Y-125082402D01*
X132481282Y-125032108D01*
X132481283Y-125032108D01*
X132421683Y-125025701D01*
X132421681Y-125025700D01*
X132421673Y-125025700D01*
X132421664Y-125025700D01*
X130025929Y-125025700D01*
X130025923Y-125025701D01*
X129966316Y-125032108D01*
X129831471Y-125082402D01*
X129831464Y-125082406D01*
X129716255Y-125168652D01*
X129716252Y-125168655D01*
X129630006Y-125283864D01*
X129630002Y-125283871D01*
X129579708Y-125418717D01*
X129573301Y-125478316D01*
X129573301Y-125478323D01*
X129573300Y-125478335D01*
X129573300Y-127602200D01*
X129571320Y-127608942D01*
X129572545Y-127615861D01*
X129561604Y-127642030D01*
X129553615Y-127669239D01*
X129548306Y-127673839D01*
X129545595Y-127680324D01*
X129522237Y-127696427D01*
X129500811Y-127714994D01*
X129492470Y-127716950D01*
X129488072Y-127719983D01*
X129461121Y-127724304D01*
X129453318Y-127726135D01*
X129310164Y-127730776D01*
X129307671Y-127730131D01*
X129292892Y-127730131D01*
X129251673Y-127725700D01*
X128855930Y-127725700D01*
X128855919Y-127725701D01*
X128817053Y-127729879D01*
X128799998Y-127730531D01*
X128795255Y-127730385D01*
X128751673Y-127725700D01*
X128642591Y-127725700D01*
X128640701Y-127725642D01*
X128609215Y-127715337D01*
X128577466Y-127706015D01*
X128576174Y-127704524D01*
X128574297Y-127703910D01*
X128553382Y-127678221D01*
X128531711Y-127653211D01*
X128531430Y-127651257D01*
X128530184Y-127649727D01*
X128526479Y-127616825D01*
X128521767Y-127584053D01*
X128522383Y-127580453D01*
X128522366Y-127580296D01*
X128522434Y-127580157D01*
X128522888Y-127577509D01*
X128550499Y-127438695D01*
X128550500Y-127438693D01*
X128550500Y-127261306D01*
X128550499Y-127261304D01*
X128515896Y-127087341D01*
X128515893Y-127087332D01*
X128448016Y-126923459D01*
X128448009Y-126923446D01*
X128349464Y-126775965D01*
X128349461Y-126775961D01*
X128224038Y-126650538D01*
X128224034Y-126650535D01*
X128076553Y-126551990D01*
X128076540Y-126551983D01*
X127912667Y-126484106D01*
X127912658Y-126484103D01*
X127738694Y-126449500D01*
X127738691Y-126449500D01*
X127561309Y-126449500D01*
X127561306Y-126449500D01*
X127387341Y-126484103D01*
X127387332Y-126484106D01*
X127223459Y-126551983D01*
X127223446Y-126551990D01*
X127075965Y-126650535D01*
X127075961Y-126650538D01*
X126950538Y-126775961D01*
X126950535Y-126775965D01*
X126851990Y-126923446D01*
X126851983Y-126923459D01*
X126784106Y-127087332D01*
X126784103Y-127087341D01*
X126749500Y-127261304D01*
X126749500Y-127438695D01*
X126777112Y-127577509D01*
X126770885Y-127647100D01*
X126728022Y-127702278D01*
X126662132Y-127725522D01*
X126655495Y-127725700D01*
X126355931Y-127725700D01*
X126355919Y-127725701D01*
X126317053Y-127729879D01*
X126299638Y-127730519D01*
X126295070Y-127730365D01*
X126251673Y-127725700D01*
X126156218Y-127725700D01*
X126154135Y-127725630D01*
X126122857Y-127715293D01*
X126091260Y-127706015D01*
X126089846Y-127704383D01*
X126087794Y-127703705D01*
X126067056Y-127678082D01*
X126045505Y-127653211D01*
X126044982Y-127650809D01*
X126043838Y-127649395D01*
X126042987Y-127641639D01*
X126034299Y-127601700D01*
X126034299Y-125478329D01*
X126034298Y-125478323D01*
X126034297Y-125478316D01*
X126027891Y-125418717D01*
X125977596Y-125283869D01*
X125977595Y-125283868D01*
X125977593Y-125283864D01*
X125891347Y-125168655D01*
X125891344Y-125168652D01*
X125776135Y-125082406D01*
X125776128Y-125082402D01*
X125641282Y-125032108D01*
X125641283Y-125032108D01*
X125581683Y-125025701D01*
X125581681Y-125025700D01*
X125581673Y-125025700D01*
X125581664Y-125025700D01*
X123185929Y-125025700D01*
X123185923Y-125025701D01*
X123126316Y-125032108D01*
X122991471Y-125082402D01*
X122991464Y-125082406D01*
X122876255Y-125168652D01*
X122876252Y-125168655D01*
X122790006Y-125283864D01*
X122790002Y-125283871D01*
X122739708Y-125418717D01*
X122733301Y-125478316D01*
X122733301Y-125478323D01*
X122733300Y-125478335D01*
X122733300Y-128674070D01*
X122733301Y-128674076D01*
X122739708Y-128733683D01*
X122790002Y-128868528D01*
X122790006Y-128868535D01*
X122876252Y-128983744D01*
X122876255Y-128983747D01*
X122991464Y-129069993D01*
X122991471Y-129069997D01*
X123126317Y-129120291D01*
X123126316Y-129120291D01*
X123133244Y-129121035D01*
X123185927Y-129126700D01*
X125279300Y-129126699D01*
X125346339Y-129146384D01*
X125392094Y-129199187D01*
X125403300Y-129250698D01*
X125403300Y-129374069D01*
X125403301Y-129374076D01*
X125409708Y-129433681D01*
X125420482Y-129462566D01*
X125428300Y-129505900D01*
X125428300Y-130203947D01*
X125408615Y-130270986D01*
X125391981Y-130291628D01*
X124262571Y-131421037D01*
X124201248Y-131454522D01*
X124140297Y-131452433D01*
X124127676Y-131448766D01*
X124105769Y-131442402D01*
X124105766Y-131442401D01*
X124105763Y-131442401D01*
X124068901Y-131439500D01*
X124068894Y-131439500D01*
X123637506Y-131439500D01*
X123637498Y-131439500D01*
X123600632Y-131442401D01*
X123600626Y-131442402D01*
X123442806Y-131488253D01*
X123416319Y-131503918D01*
X123348594Y-131521098D01*
X123290081Y-131503918D01*
X123263593Y-131488253D01*
X123105773Y-131442402D01*
X123105767Y-131442401D01*
X123068901Y-131439500D01*
X123068894Y-131439500D01*
X122637506Y-131439500D01*
X122637498Y-131439500D01*
X122600632Y-131442401D01*
X122600626Y-131442402D01*
X122442805Y-131488254D01*
X122442795Y-131488258D01*
X122415827Y-131504207D01*
X122348102Y-131521388D01*
X122289588Y-131504207D01*
X122263396Y-131488717D01*
X122263393Y-131488716D01*
X122105694Y-131442900D01*
X122105697Y-131442900D01*
X122103200Y-131442703D01*
X122103200Y-131805950D01*
X122098276Y-131840545D01*
X122055602Y-131987426D01*
X122055601Y-131987432D01*
X122052700Y-132024298D01*
X121653699Y-132024298D01*
X121650798Y-131987431D01*
X121650797Y-131987426D01*
X121608124Y-131840545D01*
X121603200Y-131805950D01*
X121603200Y-131442703D01*
X121600704Y-131442900D01*
X121443006Y-131488716D01*
X121442998Y-131488719D01*
X121416808Y-131504208D01*
X121349084Y-131521388D01*
X121290571Y-131504207D01*
X121263598Y-131488256D01*
X121263593Y-131488254D01*
X121105773Y-131442402D01*
X121105767Y-131442401D01*
X121068901Y-131439500D01*
X121068894Y-131439500D01*
X120637506Y-131439500D01*
X120637498Y-131439500D01*
X120600632Y-131442401D01*
X120600626Y-131442402D01*
X120442802Y-131488255D01*
X120442799Y-131488256D01*
X120433800Y-131493578D01*
X120366075Y-131510756D01*
X120346499Y-131508460D01*
X120330610Y-131505300D01*
X120330607Y-131505300D01*
X120330606Y-131505300D01*
X119952361Y-131505300D01*
X119885322Y-131485615D01*
X119864679Y-131468980D01*
X119827038Y-131431338D01*
X119827034Y-131431335D01*
X119679553Y-131332790D01*
X119679540Y-131332783D01*
X119515667Y-131264906D01*
X119515658Y-131264903D01*
X119341694Y-131230300D01*
X119341691Y-131230300D01*
X119164309Y-131230300D01*
X119164306Y-131230300D01*
X118990341Y-131264903D01*
X118990332Y-131264906D01*
X118826459Y-131332783D01*
X118826446Y-131332790D01*
X118678965Y-131431335D01*
X118678961Y-131431338D01*
X118553538Y-131556761D01*
X118553535Y-131556765D01*
X118454990Y-131704246D01*
X118454983Y-131704259D01*
X118387106Y-131868132D01*
X118387103Y-131868141D01*
X118352500Y-132042104D01*
X117323100Y-132042104D01*
X117323100Y-125369713D01*
X118613700Y-125369713D01*
X118613700Y-125582286D01*
X118646953Y-125792239D01*
X118712644Y-125994414D01*
X118809151Y-126183820D01*
X118934090Y-126355786D01*
X119084413Y-126506109D01*
X119256379Y-126631048D01*
X119256381Y-126631049D01*
X119256384Y-126631051D01*
X119445788Y-126727557D01*
X119647957Y-126793246D01*
X119857913Y-126826500D01*
X119857914Y-126826500D01*
X120070486Y-126826500D01*
X120070487Y-126826500D01*
X120280443Y-126793246D01*
X120482612Y-126727557D01*
X120672016Y-126631051D01*
X120780835Y-126551990D01*
X120843986Y-126506109D01*
X120843988Y-126506106D01*
X120843992Y-126506104D01*
X120994304Y-126355792D01*
X120994306Y-126355788D01*
X120994309Y-126355786D01*
X121119248Y-126183820D01*
X121119247Y-126183820D01*
X121119251Y-126183816D01*
X121215757Y-125994412D01*
X121281446Y-125792243D01*
X121314700Y-125582287D01*
X121314700Y-125369713D01*
X121281446Y-125159757D01*
X121215757Y-124957588D01*
X121119251Y-124768184D01*
X121119249Y-124768181D01*
X121119248Y-124768179D01*
X120994309Y-124596213D01*
X120843986Y-124445890D01*
X120672020Y-124320951D01*
X120482614Y-124224444D01*
X120482613Y-124224443D01*
X120482612Y-124224443D01*
X120280443Y-124158754D01*
X120280441Y-124158753D01*
X120280440Y-124158753D01*
X120119157Y-124133208D01*
X120070487Y-124125500D01*
X119857913Y-124125500D01*
X119809242Y-124133208D01*
X119647960Y-124158753D01*
X119445785Y-124224444D01*
X119256379Y-124320951D01*
X119084413Y-124445890D01*
X118934090Y-124596213D01*
X118809151Y-124768179D01*
X118712644Y-124957585D01*
X118646953Y-125159760D01*
X118613700Y-125369713D01*
X117323100Y-125369713D01*
X117323100Y-123009700D01*
X117342785Y-122942661D01*
X117395589Y-122896906D01*
X117447100Y-122885700D01*
X138203900Y-122885700D01*
X138270939Y-122905385D01*
G37*
%TD.AperFunction*%
%TD*%
M02*
